STARTFONT 2.1
COMMENT
COMMENT Converted from OpenType font "Catrinity-Regular.otf" by "otf2bdf 3.0".
COMMENT
FONT -FreeType-Catrinity-Medium-R-Normal--50-360-100-100-P-247-ISO10646-1
SIZE 36 100 100
FONTBOUNDINGBOX 114 66 -29 -20
STARTPROPERTIES 19
FOUNDRY "FreeType"
FAMILY_NAME "Catrinity"
WEIGHT_NAME "Medium"
SLANT "R"
SETWIDTH_NAME "Normal"
ADD_STYLE_NAME ""
PIXEL_SIZE 50
POINT_SIZE 360
RESOLUTION_X 100
RESOLUTION_Y 100
SPACING "P"
AVERAGE_WIDTH 247
CHARSET_REGISTRY "ISO10646"
CHARSET_ENCODING "1"
FONT_ASCENT 41
FONT_DESCENT 19
COPYRIGHT "Typeface © Alexander Lange. 2023. All Rights Reserved"
_OTF_FONTFILE "Catrinity-Regular.otf"
_OTF_PSNAME "Catrinity"
ENDPROPERTIES
CHARS 9984
STARTCHAR 0000
ENCODING 0
SWIDTH 0 0
DWIDTH 0 0
BBX 0 0 0 0
BITMAP
ENDCHAR
STARTCHAR 0008
ENCODING 8
SWIDTH 0 0
DWIDTH 0 0
BBX 0 0 0 0
BITMAP
ENDCHAR
STARTCHAR 0009
ENCODING 9
SWIDTH 240 0
DWIDTH 12 0
BBX 0 0 0 0
BITMAP
ENDCHAR
STARTCHAR 000D
ENCODING 13
SWIDTH 240 0
DWIDTH 12 0
BBX 0 0 0 0
BITMAP
ENDCHAR
STARTCHAR 001D
ENCODING 29
SWIDTH 0 0
DWIDTH 0 0
BBX 0 0 0 0
BITMAP
ENDCHAR
STARTCHAR 0020
ENCODING 32
SWIDTH 240 0
DWIDTH 12 0
BBX 0 0 0 0
BITMAP
ENDCHAR
STARTCHAR 0021
ENCODING 33
SWIDTH 160 0
DWIDTH 8 0
BBX 5 32 2 0
BITMAP
F0
F0
F0
F0
F0
F0
F0
F0
F0
F0
F0
F0
F0
F0
F0
F0
F0
F0
F0
F0
F0
F0
00
00
00
00
00
70
F8
F8
F8
F0
ENDCHAR
STARTCHAR 0022
ENCODING 34
SWIDTH 280 0
DWIDTH 14 0
BBX 10 10 2 22
BITMAP
F1C0
F1C0
F1C0
F1C0
F1C0
F1C0
F1C0
F1C0
F1C0
F1C0
ENDCHAR
STARTCHAR 0023
ENCODING 35
SWIDTH 700 0
DWIDTH 35 0
BBX 30 32 3 0
BITMAP
003803C0
00780380
00780780
00780780
00780780
00700780
00700780
00F00700
00F00F00
3FFFFFFC
3FFFFFFC
3FFFFFFC
01E00E00
01E01E00
01E01E00
01E01E00
01E01E00
01C01E00
03C01C00
03C03C00
FFFFFFF0
FFFFFFF0
FFFFFFF0
03803800
07803800
07807800
07807800
07807800
07007800
0F007000
0F00F000
0F00F000
ENDCHAR
STARTCHAR 0024
ENCODING 36
SWIDTH 480 0
DWIDTH 24 0
BBX 20 42 2 -5
BITMAP
00F000
00F000
00F000
00F000
00F000
03FE00
0FFF00
1FFF80
1FFFC0
3EF3C0
3CF3C0
3CF1E0
38F1E0
38F000
3CF000
3CF000
3EF000
1FF000
0FF000
07F800
01FE00
00FF00
00FFC0
00F7C0
00F3E0
00F1F0
00F0F0
00F0F0
F0F0F0
70F0F0
78F0F0
78F1E0
3CF3E0
3FFFC0
1FFF80
0FFF00
03FE00
00F000
00F000
00F000
00F000
00F000
ENDCHAR
STARTCHAR 0025
ENCODING 37
SWIDTH 620 0
DWIDTH 31 0
BBX 27 33 2 0
BITMAP
03800000
1FE003E0
3FF003C0
7FF807C0
7C7C0F80
783C0F00
F03C1E00
F03C3E00
703C3C00
787C7800
7FF8F800
3FF9F000
1FF1E000
07C3E000
0007C000
00078000
000F0000
001F0000
001E0000
003C0000
007C3F00
00F8FF80
00F1FFC0
01F1FFE0
03E3C1E0
03C3C0E0
078380E0
0F83C0E0
0F03C1E0
1E03E3E0
3E01FFC0
7C00FF80
78007F00
ENDCHAR
STARTCHAR 0026
ENCODING 38
SWIDTH 560 0
DWIDTH 28 0
BBX 24 33 2 0
BITMAP
00F000
03FE00
0FFF00
0FFF80
1F0FC0
3E03C0
3C0300
3C0000
380000
3800E0
3C00E0
3C00E0
3E00E0
1F00E0
0FFFFF
07FFFF
0FFFFF
1FFFFF
3E00E0
7C00E0
7800E0
7800E0
F000E0
F000E0
F000E0
7000E0
7801E0
7803E0
3C03E0
3F8FFE
1FFFFE
0FFFFE
03FC7E
ENDCHAR
STARTCHAR 0027
ENCODING 39
SWIDTH 160 0
DWIDTH 8 0
BBX 4 10 2 22
BITMAP
F0
F0
F0
F0
F0
F0
F0
F0
F0
F0
ENDCHAR
STARTCHAR 0028
ENCODING 40
SWIDTH 280 0
DWIDTH 14 0
BBX 10 42 2 -10
BITMAP
03C0
0780
0780
0F00
0F00
1E00
1E00
3C00
3C00
3C00
3800
7800
7800
7800
7800
7000
7000
7000
F000
F000
F000
F000
F000
F000
7000
7000
7000
7800
7800
7800
7800
3800
3C00
3C00
1C00
1E00
1E00
0F00
0F00
0780
07C0
03C0
ENDCHAR
STARTCHAR 0029
ENCODING 41
SWIDTH 280 0
DWIDTH 14 0
BBX 10 42 2 -10
BITMAP
7800
7800
3C00
1E00
1E00
0E00
0F00
0F00
0780
0780
0780
0380
0380
03C0
03C0
03C0
03C0
03C0
03C0
01C0
01C0
01C0
03C0
03C0
03C0
03C0
03C0
03C0
03C0
0380
0780
0780
0780
0700
0F00
0F00
1E00
1E00
3C00
3C00
7800
F800
ENDCHAR
STARTCHAR 002A
ENCODING 42
SWIDTH 420 0
DWIDTH 21 0
BBX 16 17 3 15
BITMAP
03C0
03C0
4182
6186
F18F
FDBF
3FFC
07E0
07E0
1FF8
FDBF
F99F
6186
4182
03C0
03C0
03C0
ENDCHAR
STARTCHAR 002B
ENCODING 43
SWIDTH 520 0
DWIDTH 26 0
BBX 22 22 2 5
BITMAP
003800
003800
003800
003800
003800
003800
003800
003800
003800
FFFFFC
FFFFFC
FFFFFC
FFFFFC
003800
003800
003800
003800
003800
003800
003800
003800
003800
ENDCHAR
STARTCHAR 002C
ENCODING 44
SWIDTH 200 0
DWIDTH 10 0
BBX 7 13 2 -8
BITMAP
30
7C
FC
FE
7E
16
06
06
0C
0C
18
30
C0
ENDCHAR
STARTCHAR 002D
ENCODING 45
SWIDTH 340 0
DWIDTH 17 0
BBX 13 4 2 9
BITMAP
FFF8
FFF8
FFF8
FFF8
ENDCHAR
STARTCHAR 002E
ENCODING 46
SWIDTH 200 0
DWIDTH 10 0
BBX 6 5 2 0
BITMAP
38
78
FC
7C
78
ENDCHAR
STARTCHAR 002F
ENCODING 47
SWIDTH 400 0
DWIDTH 20 0
BBX 15 32 3 0
BITMAP
001E
001C
003C
003C
0078
0078
0078
00F0
00F0
00F0
01E0
01E0
01C0
03C0
03C0
0780
0780
0780
0F00
0F00
0F00
1E00
1E00
1C00
3C00
3C00
7800
7800
7800
F000
F000
F000
ENDCHAR
STARTCHAR 0030
ENCODING 48
SWIDTH 480 0
DWIDTH 24 0
BBX 20 33 2 0
BITMAP
007000
03FC00
07FE00
0FFF00
0F0F80
1E0780
1E03C0
3C03C0
3C01E0
7801E0
7800E0
7800E0
7000F0
7000F0
F000F0
F000F0
F000F0
F000F0
F000F0
7000F0
7000F0
7000F0
7800E0
7801E0
7801E0
3C01E0
3C03C0
1E03C0
1E0780
0F8F80
07FF00
07FE00
01FC00
ENDCHAR
STARTCHAR 0031
ENCODING 49
SWIDTH 400 0
DWIDTH 20 0
BBX 16 32 2 0
BITMAP
03C0
03C0
03C0
07C0
3FC0
FFC0
FFC0
FFC0
01C0
01C0
01C0
01C0
01C0
01C0
01C0
01C0
01C0
01C0
01C0
01C0
01C0
01C0
01C0
01C0
01C0
01C0
01C0
01C0
FFFF
FFFF
FFFF
FFFF
ENDCHAR
STARTCHAR 0032
ENCODING 50
SWIDTH 420 0
DWIDTH 21 0
BBX 18 33 2 0
BITMAP
01E000
07F800
1FFE00
3FFF00
3E1F00
780780
780780
700380
F003C0
0003C0
000380
000780
000780
000F00
001F00
003E00
007C00
00F800
01F000
07E000
0FC000
0F0000
1E0000
3E0000
3C0000
780000
780000
700000
F00000
FFFFC0
FFFFC0
FFFFC0
FFFFC0
ENDCHAR
STARTCHAR 0033
ENCODING 51
SWIDTH 460 0
DWIDTH 23 0
BBX 19 33 2 0
BITMAP
01E000
07F800
1FFE00
3FFF00
3E1F00
7C0780
780780
700380
F003C0
0003C0
000380
000780
000F80
001F00
007F00
007E00
007F00
007F80
000F80
0007C0
0003C0
0001E0
0001E0
0001E0
0001E0
1001E0
3003C0
F803C0
7C07C0
3E1F80
3FFF00
0FFE00
07F800
ENDCHAR
STARTCHAR 0034
ENCODING 52
SWIDTH 540 0
DWIDTH 27 0
BBX 23 32 2 0
BITMAP
0007C0
0007C0
000FC0
001FC0
003FC0
003DC0
007DC0
00F9C0
00F1C0
01E1C0
03E1C0
07C1C0
0781C0
0F81C0
1F01C0
1E01C0
3C01C0
7C01C0
F801C0
FFFFFE
FFFFFE
FFFFFE
0001C0
0001C0
0001C0
0001C0
0001C0
0001C0
0001C0
0001C0
0001C0
0001C0
ENDCHAR
STARTCHAR 0035
ENCODING 53
SWIDTH 460 0
DWIDTH 23 0
BBX 19 32 2 0
BITMAP
1FFF00
1FFF00
1FFF00
3C0000
3C0000
3C0000
3C0000
380000
380000
7BF000
7FFC00
7FFE00
7FFF00
7C0F80
780780
7003C0
1003C0
0001C0
0001E0
0001E0
0001E0
0001E0
0001E0
0001E0
1003C0
3003C0
F807C0
7C0F80
3E1F00
3FFF00
0FFE00
07F800
ENDCHAR
STARTCHAR 0036
ENCODING 54
SWIDTH 480 0
DWIDTH 24 0
BBX 20 33 2 0
BITMAP
003800
01FF00
03FF80
07FFC0
0F83E0
1F01E0
1E0080
3C0000
3C0000
380000
780000
780000
780000
700000
71F800
F7FF00
FFFF80
FFFFC0
FE07C0
FC01E0
7801E0
7000F0
7000F0
7800F0
7800F0
7800F0
3C00F0
3C01E0
1E03E0
1F8FC0
0FFF80
07FF00
03FE00
ENDCHAR
STARTCHAR 0037
ENCODING 55
SWIDTH 500 0
DWIDTH 25 0
BBX 21 32 2 0
BITMAP
FFFFF8
FFFFF0
FFFFE0
0001E0
0003C0
0003C0
000780
000780
000F00
000F00
001E00
001E00
003C00
003C00
007800
007800
007800
00F000
00F000
00F000
01E000
01E000
01E000
01E000
01C000
03C000
03C000
03C000
03C000
03C000
03C000
038000
ENDCHAR
STARTCHAR 0038
ENCODING 56
SWIDTH 480 0
DWIDTH 24 0
BBX 20 33 2 0
BITMAP
00F000
03FE00
0FFF00
0FFF80
1F0FC0
3E03C0
3C03C0
3C01E0
3801E0
3801E0
3C01E0
3C03C0
3E03C0
1F0FC0
0FFF80
07FF00
0FFF80
1FFFC0
3E07C0
7C01E0
7801E0
7800F0
F000F0
F000F0
F000F0
7000F0
7800F0
7801E0
3C03E0
3F8FC0
1FFF80
0FFF00
03FE00
ENDCHAR
STARTCHAR 0039
ENCODING 57
SWIDTH 480 0
DWIDTH 24 0
BBX 20 33 2 0
BITMAP
00F000
07FE00
0FFF00
1FFF80
3F07C0
3C03E0
7801E0
7800F0
7000F0
F000F0
F000F0
7000F0
7800F0
7801E0
7C03E0
3E07E0
1FFFC0
0FFFC0
07FFC0
00F780
000780
000700
000F00
000F00
001E00
001E00
001E00
003C00
003C00
003C00
007800
007800
007000
ENDCHAR
STARTCHAR 003A
ENCODING 58
SWIDTH 200 0
DWIDTH 10 0
BBX 6 23 2 0
BITMAP
38
7C
FC
7C
78
00
00
00
00
00
00
00
00
00
00
00
00
00
38
78
FC
7C
78
ENDCHAR
STARTCHAR 003B
ENCODING 59
SWIDTH 200 0
DWIDTH 10 0
BBX 7 31 2 -8
BITMAP
38
7C
FC
7C
78
00
00
00
00
00
00
00
00
00
00
00
00
00
30
7C
FC
FE
7E
16
06
06
0C
0C
18
30
C0
ENDCHAR
STARTCHAR 003C
ENCODING 60
SWIDTH 520 0
DWIDTH 26 0
BBX 22 20 2 6
BITMAP
000004
00003C
0001FC
0007FC
003FF8
01FFC0
0FFE00
3FF000
FFC000
FE0000
FF0000
FFC000
3FF800
07FF00
00FFE0
003FF8
0007FC
0000FC
00001C
000004
ENDCHAR
STARTCHAR 003D
ENCODING 61
SWIDTH 520 0
DWIDTH 26 0
BBX 22 12 2 10
BITMAP
FFFFFC
FFFFFC
FFFFFC
000000
000000
000000
000000
000000
FFFFFC
FFFFFC
FFFFFC
FFFFFC
ENDCHAR
STARTCHAR 003E
ENCODING 62
SWIDTH 520 0
DWIDTH 26 0
BBX 22 20 2 6
BITMAP
C00000
F80000
FF0000
FFC000
3FF800
07FF00
00FFE0
003FF8
0007FC
0000FC
0001FC
0007FC
003FF8
01FFC0
0FFE00
3FF000
FFC000
FE0000
F00000
800000
ENDCHAR
STARTCHAR 003F
ENCODING 63
SWIDTH 420 0
DWIDTH 21 0
BBX 18 33 2 0
BITMAP
01E000
07F800
1FFE00
3FFF00
3E1F00
780780
780780
700380
F003C0
0003C0
000380
000780
000780
000F80
001F00
001E00
003E00
007C00
007800
00F000
00F000
01E000
01E000
01E000
000000
000000
000000
000000
00C000
01E000
03F000
03F000
01E000
ENDCHAR
STARTCHAR 0040
ENCODING 64
SWIDTH 940 0
DWIDTH 47 0
BBX 40 43 4 -11
BITMAP
00003FFC00
0000FFFF00
0003FFFFC0
000FF81FE0
001F8007F0
003E0001F8
007C0000F8
00F000007C
01E000003C
03C01F803E
07807FEF1E
0F00FFFE1E
0F01FFFE0F
1E03E0FE0F
1C07807E0F
3C0F007E0F
381E003C0F
781E003C0F
781C003C0F
703C003C0F
F03C00380F
F03800380E
F03800781E
F03800781E
F03800F81C
F03C00F03C
F03C01F03C
F03E03F078
F01F0FF078
F01FFFF0F0
F00FFEE1E0
7807F8F3E0
780000FFC0
7C0000FF80
3E00007E00
3F00000000
1F80000000
0FC0000000
07F81E0000
03FFFE0000
01FFFE0000
007FFC0000
0003000000
ENDCHAR
STARTCHAR 0041
ENCODING 65
SWIDTH 640 0
DWIDTH 32 0
BBX 27 32 3 0
BITMAP
001E0000
001F0000
003F0000
003F0000
007F8000
007F8000
007BC000
00F3C000
00F3C000
00F1E000
01E1E000
01E1E000
01C0F000
03C0F000
03C07000
07807800
07FFF800
07FFFC00
0FFFFC00
0FFFFC00
0F001E00
1E001E00
1E001E00
1C000F00
3C000F00
3C000700
78000780
78000780
780003C0
F00003C0
F00003C0
F00001E0
ENDCHAR
STARTCHAR 0042
ENCODING 66
SWIDTH 500 0
DWIDTH 25 0
BBX 21 32 2 0
BITMAP
FFFE00
FFFF00
FFFF80
F00FC0
F003E0
F001E0
F000F0
F000F0
F000F0
F000F0
F001E0
F001E0
F007E0
FFFFC0
FFFF80
FFFFC0
FFFFE0
F003F0
F000F0
F000F0
F00078
F00078
F00078
F00078
F00078
F000F0
F000F0
F003E0
FFFFE0
FFFFC0
FFFF80
FFFC00
ENDCHAR
STARTCHAR 0043
ENCODING 67
SWIDTH 580 0
DWIDTH 29 0
BBX 25 33 2 0
BITMAP
000F0000
007FE000
01FFF800
03FFFC00
07E07E00
0F801F00
1F000F00
1E000780
3C000700
3C000000
78000000
78000000
78000000
70000000
70000000
F0000000
F0000000
F0000000
F0000000
70000000
70000000
78000000
78000000
78000000
3C000200
3E000700
1E000F80
1F001F00
0F803E00
07F0FE00
03FFFC00
01FFF000
007FE000
ENDCHAR
STARTCHAR 0044
ENCODING 68
SWIDTH 620 0
DWIDTH 31 0
BBX 27 32 2 0
BITMAP
FFFFC000
FFFFF000
FFFFF800
0F03FC00
0F007E00
0F001F00
0F000F80
0F000780
0F0003C0
0F0003C0
0F0001E0
0F0001E0
0F0001E0
0F0001E0
0F0000E0
0F0000E0
0F0000E0
0F0000E0
0F0001E0
0F0001E0
0F0001E0
0F0001C0
0F0003C0
0F0007C0
0F000780
0F000F80
0F001F00
0F007E00
FFFFFC00
FFFFF800
FFFFF000
FFFF8000
ENDCHAR
STARTCHAR 0045
ENCODING 69
SWIDTH 500 0
DWIDTH 25 0
BBX 21 32 2 0
BITMAP
FFFFF8
FFFFF8
FFFFF8
F00000
F00000
F00000
F00000
F00000
F00000
F00000
F00000
F00000
F00000
F00000
FFFFC0
FFFFC0
FFFFC0
FFFFC0
F00000
F00000
F00000
F00000
F00000
F00000
F00000
F00000
F00000
F00000
FFFFF8
FFFFF8
FFFFF8
FFFFF8
ENDCHAR
STARTCHAR 0046
ENCODING 70
SWIDTH 500 0
DWIDTH 25 0
BBX 21 32 2 0
BITMAP
FFFFF8
FFFFF8
FFFFF8
F00000
F00000
F00000
F00000
F00000
F00000
F00000
F00000
F00000
F00000
F00000
FFFFC0
FFFFC0
FFFFC0
FFFFC0
F00000
F00000
F00000
F00000
F00000
F00000
F00000
F00000
F00000
F00000
F00000
F00000
F00000
F00000
ENDCHAR
STARTCHAR 0047
ENCODING 71
SWIDTH 580 0
DWIDTH 29 0
BBX 25 33 2 0
BITMAP
000F0000
007FE000
01FFF800
03FFFC00
07E07E00
0F801F00
1F000F00
1E000780
3C000700
3C000000
78000000
78000000
78000000
70000000
70000000
F0000000
F007FF80
F007FF80
F007FF80
7007FF80
70000780
78000780
78000780
78000780
3C000780
3E000780
1E000F80
1F001F00
0F803E00
07F0FE00
03FFFC00
01FFF000
007FE000
ENDCHAR
STARTCHAR 0048
ENCODING 72
SWIDTH 500 0
DWIDTH 25 0
BBX 21 32 2 0
BITMAP
F00078
F00078
F00078
F00078
F00078
F00078
F00078
F00078
F00078
F00078
F00078
F00078
F00078
F00078
FFFFF8
FFFFF8
FFFFF8
FFFFF8
F00078
F00078
F00078
F00078
F00078
F00078
F00078
F00078
F00078
F00078
F00078
F00078
F00078
F00078
ENDCHAR
STARTCHAR 0049
ENCODING 73
SWIDTH 300 0
DWIDTH 15 0
BBX 11 32 2 0
BITMAP
FFE0
FFE0
FFE0
0F00
0F00
0F00
0F00
0F00
0F00
0F00
0F00
0F00
0F00
0F00
0F00
0F00
0F00
0F00
0F00
0F00
0F00
0F00
0F00
0F00
0F00
0F00
0F00
0F00
FFE0
FFE0
FFE0
FFE0
ENDCHAR
STARTCHAR 004A
ENCODING 74
SWIDTH 360 0
DWIDTH 18 0
BBX 14 32 2 0
BITMAP
003C
003C
003C
003C
003C
003C
003C
003C
003C
003C
003C
003C
003C
003C
003C
003C
003C
003C
003C
003C
003C
003C
003C
003C
003C
003C
F03C
783C
7C7C
3FF8
3FF0
0FE0
ENDCHAR
STARTCHAR 004B
ENCODING 75
SWIDTH 540 0
DWIDTH 27 0
BBX 22 32 2 0
BITMAP
F001F0
F003E0
F003C0
F007C0
F00F80
F00F00
F01E00
F03E00
F03C00
F07800
F0F800
F1F000
F1E000
F3E000
F7C000
F7E000
FFF000
FFF000
FE7800
FC7C00
FC3E00
F81E00
F01F00
F00F80
F00780
F003C0
F003E0
F001E0
F000F0
F000F8
F0007C
F0003C
ENDCHAR
STARTCHAR 004C
ENCODING 76
SWIDTH 500 0
DWIDTH 25 0
BBX 21 32 2 0
BITMAP
F00000
F00000
F00000
F00000
F00000
F00000
F00000
F00000
F00000
F00000
F00000
F00000
F00000
F00000
F00000
F00000
F00000
F00000
F00000
F00000
F00000
F00000
F00000
F00000
F00000
F00000
F00000
F00000
FFFFF8
FFFFF8
FFFFF8
FFFFF8
ENDCHAR
STARTCHAR 004D
ENCODING 77
SWIDTH 640 0
DWIDTH 32 0
BBX 28 32 2 0
BITMAP
F80000F0
F80001F0
F80001F0
FC0001F0
FC0003F0
FC0003F0
FE0007F0
FE0007F0
FF0007F0
FF000FF0
FF000FF0
F7800FF0
F7801EF0
F7801EF0
F3C01CF0
F3C03CF0
F1C03CF0
F1E078F0
F1E078F0
F0F078F0
F0F0F0F0
F0F0F0F0
F078F0F0
F079E0F0
F079E0F0
F03DC0F0
F03FC0F0
F01FC0F0
F01F80F0
F01F80F0
F00F80F0
F00F00F0
ENDCHAR
STARTCHAR 004E
ENCODING 78
SWIDTH 600 0
DWIDTH 30 0
BBX 26 32 2 0
BITMAP
F80003C0
F80003C0
FC0003C0
FE0003C0
FE0003C0
FF0003C0
FF8003C0
F7C003C0
F3C003C0
F3E003C0
F1F003C0
F0F003C0
F07803C0
F07C03C0
F03C03C0
F01E03C0
F01F03C0
F00F83C0
F00783C0
F007C3C0
F003E3C0
F001E3C0
F000F3C0
F000FBC0
F0007BC0
F0003FC0
F0003FC0
F0001FC0
F0000FC0
F0000FC0
F00007C0
F00003C0
ENDCHAR
STARTCHAR 004F
ENCODING 79
SWIDTH 620 0
DWIDTH 31 0
BBX 27 33 2 0
BITMAP
000F0000
007FE000
01FFF800
03FFFC00
07E07E00
0F801F00
1F000F00
1E000780
3C000780
3C0003C0
780003C0
780001E0
780001E0
700001E0
700001E0
F00000E0
F00000E0
F00000E0
F00000E0
700001E0
700001E0
780001E0
780001E0
780003C0
3C0003C0
3E000780
1E000F80
1F001F00
0F803E00
07F0FE00
03FFFC00
01FFF000
007FE000
ENDCHAR
STARTCHAR 0050
ENCODING 80
SWIDTH 480 0
DWIDTH 24 0
BBX 20 32 2 0
BITMAP
FFFC00
FFFF00
FFFF80
F03FC0
F003E0
F001E0
F001E0
F000F0
F000F0
F000F0
F000F0
F001E0
F001E0
F007C0
FFFFC0
FFFF80
FFFE00
FFFC00
F00000
F00000
F00000
F00000
F00000
F00000
F00000
F00000
F00000
F00000
F00000
F00000
F00000
F00000
ENDCHAR
STARTCHAR 0051
ENCODING 81
SWIDTH 620 0
DWIDTH 31 0
BBX 31 36 2 -4
BITMAP
000F0000
007FE000
01FFF800
03FFFC00
07E07E00
0F801F00
1F000F00
1E000780
3C000780
3C0003C0
780003C0
780001E0
780001E0
700001E0
700001E0
F00000E0
F00000E0
F00000E0
F00000E0
700001E0
700001E0
780001E0
781F81E0
787FE3C0
3C7FF3C0
3E79F780
1E10FF80
1F007F00
0F803E00
07F0FE00
03FFFE00
01FFFE08
007FFF9E
00000FFE
000007FE
000003F8
ENDCHAR
STARTCHAR 0052
ENCODING 82
SWIDTH 520 0
DWIDTH 26 0
BBX 22 32 2 0
BITMAP
FFFC00
FFFF00
FFFF80
F03FC0
F003E0
F001E0
F001E0
F000F0
F000F0
F000F0
F000F0
F001E0
F001E0
F007C0
FFFFC0
FFFF80
FFFE00
FFFC00
F03E00
F01E00
F00F00
F00F00
F00780
F007C0
F003C0
F003E0
F001E0
F000F0
F000F0
F00078
F0007C
F0003C
ENDCHAR
STARTCHAR 0053
ENCODING 83
SWIDTH 480 0
DWIDTH 24 0
BBX 20 33 2 0
BITMAP
00F000
03FE00
0FFF00
1FFF80
1F0FC0
3E03C0
3C03C0
3C01E0
3801E0
380000
3C0000
3C0000
3E0000
1F8000
0FE000
07F800
01FE00
007F00
001FC0
0007C0
0003E0
0001F0
0000F0
0000F0
F000F0
7000F0
7800F0
7801E0
3C03E0
3F8FC0
1FFF80
0FFF00
03FE00
ENDCHAR
STARTCHAR 0054
ENCODING 84
SWIDTH 500 0
DWIDTH 25 0
BBX 21 32 2 0
BITMAP
FFFFF8
FFFFF8
FFFFF8
007800
007800
007800
007800
007800
007800
007800
007800
007800
007800
007800
007800
007800
007800
007800
007800
007800
007800
007800
007800
007800
007800
007800
007800
007800
007800
007800
007800
007800
ENDCHAR
STARTCHAR 0055
ENCODING 85
SWIDTH 580 0
DWIDTH 29 0
BBX 25 32 2 0
BITMAP
F0000780
F0000780
F0000780
F0000780
F0000780
F0000780
F0000780
F0000780
F0000780
F0000780
F0000780
F0000780
F0000780
F0000780
F0000780
F0000780
F0000780
F0000780
F0000780
F0000780
F0000780
F0000780
70000780
78000700
78000F00
3C001F00
3E003E00
1F007C00
0FC1FC00
07FFF800
03FFE000
00FFC000
ENDCHAR
STARTCHAR 0056
ENCODING 86
SWIDTH 640 0
DWIDTH 32 0
BBX 27 32 3 0
BITMAP
F00001E0
F00003C0
F00003C0
78000380
78000780
38000780
3C000F00
3C000F00
1E000F00
1E001E00
1E001E00
0F001E00
0F003C00
0F003C00
07803800
07807800
03807800
03C0F000
03C0F000
01E0F000
01E1E000
01E1E000
00F1E000
00F3C000
00F3C000
007B8000
007F8000
003F8000
003F0000
003F0000
001F0000
001E0000
ENDCHAR
STARTCHAR 0057
ENCODING 87
SWIDTH 860 0
DWIDTH 43 0
BBX 38 32 3 0
BITMAP
E00078003C
F000F80038
F000F80078
F000FC0078
7001FC0078
7801FC00F0
7801FC00F0
3801DE00F0
3C03DE00E0
3C03DE01E0
3C03CE01E0
1C038F01E0
1E078F01C0
1E078F03C0
1E078703C0
0E0F0783C0
0F0F078380
0F0F078780
0F0F03C780
079E03C780
079E03CF00
079E01CF00
039C01EF00
03FC01EE00
03FC01FE00
03FC00FE00
01F800FE00
01F800FC00
01F800FC00
01F8007C00
00F0007C00
00F0007800
ENDCHAR
STARTCHAR 0058
ENCODING 88
SWIDTH 620 0
DWIDTH 31 0
BBX 26 32 3 0
BITMAP
F00007C0
78000780
7C000F80
3E001F00
1E001E00
1F003E00
0F807C00
07807800
03C0F000
03E1F000
01E3E000
00F3C000
00FFC000
007F8000
003F0000
003F0000
003F0000
003F0000
007F8000
00FFC000
01F3C000
01E1E000
03E1F000
07C0F800
07807800
0F007C00
1F003E00
1E001E00
3C000F00
7C000F80
F8000780
F00003C0
ENDCHAR
STARTCHAR 0059
ENCODING 89
SWIDTH 620 0
DWIDTH 31 0
BBX 26 32 3 0
BITMAP
F00007C0
78000780
7C000F80
3E001F00
1E001E00
1F003C00
0F807C00
07807800
03C0F000
03E1F000
01E3E000
00F3C000
00FFC000
007F8000
003F0000
003E0000
001E0000
001E0000
001E0000
001E0000
001E0000
001E0000
001E0000
001E0000
001E0000
001E0000
001E0000
001E0000
001E0000
001E0000
001E0000
001E0000
ENDCHAR
STARTCHAR 005A
ENCODING 90
SWIDTH 520 0
DWIDTH 26 0
BBX 22 32 2 0
BITMAP
FFFFFC
FFFFFC
FFFFFC
00003C
00007C
0000F8
0000F0
0001F0
0003E0
0003C0
000780
000F80
000F00
001E00
003E00
007C00
007800
00F800
01F000
01E000
03C000
07C000
078000
0F0000
1F0000
3E0000
3C0000
7C0000
FFFFFC
FFFFFC
FFFFFC
FFFFFC
ENDCHAR
STARTCHAR 005B
ENCODING 91
SWIDTH 280 0
DWIDTH 14 0
BBX 10 42 2 -10
BITMAP
FFC0
FFC0
FFC0
F000
F000
F000
F000
F000
F000
F000
F000
F000
F000
F000
F000
F000
F000
F000
F000
F000
F000
F000
F000
F000
F000
F000
F000
F000
F000
F000
F000
F000
F000
F000
F000
F000
F000
F000
FFC0
FFC0
FFC0
FFC0
ENDCHAR
STARTCHAR 005C
ENCODING 92
SWIDTH 400 0
DWIDTH 20 0
BBX 15 32 3 0
BITMAP
F000
F000
F000
7800
7800
3800
3C00
3C00
1E00
1E00
1E00
0F00
0F00
0F00
0780
0780
0380
03C0
03C0
01E0
01E0
01E0
00F0
00F0
00F0
0078
0078
0038
003C
003C
001E
001E
ENDCHAR
STARTCHAR 005D
ENCODING 93
SWIDTH 280 0
DWIDTH 14 0
BBX 10 42 2 -10
BITMAP
FFC0
FFC0
FFC0
01C0
01C0
01C0
01C0
01C0
01C0
01C0
01C0
01C0
01C0
01C0
01C0
01C0
01C0
01C0
01C0
01C0
01C0
01C0
01C0
01C0
01C0
01C0
01C0
01C0
01C0
01C0
01C0
01C0
01C0
01C0
01C0
01C0
01C0
01C0
FFC0
FFC0
FFC0
FFC0
ENDCHAR
STARTCHAR 005E
ENCODING 94
SWIDTH 300 0
DWIDTH 15 0
BBX 11 10 2 22
BITMAP
0F00
1F80
1F80
1F80
3FC0
3FC0
3BC0
79E0
79E0
F0E0
ENDCHAR
STARTCHAR 005F
ENCODING 95
SWIDTH 500 0
DWIDTH 25 0
BBX 21 4 2 -4
BITMAP
FFFFF8
FFFFF8
FFFFF8
FFFFF8
ENDCHAR
STARTCHAR 0060
ENCODING 96
SWIDTH 260 0
DWIDTH 13 0
BBX 8 7 3 25
BITMAP
F8
78
3C
1C
0E
06
03
ENDCHAR
STARTCHAR 0061
ENCODING 97
SWIDTH 400 0
DWIDTH 20 0
BBX 16 23 2 0
BITMAP
01C0
0FF8
1FFC
1FFE
0C1E
000F
000F
000F
000F
03CF
0FFF
1FFF
3FFF
7C0F
780F
F00F
F00F
700F
781F
7E3F
3FFF
1FFF
0FFF
ENDCHAR
STARTCHAR 0062
ENCODING 98
SWIDTH 480 0
DWIDTH 24 0
BBX 20 32 2 0
BITMAP
F00000
F00000
F00000
F00000
F00000
F00000
F00000
F00000
F00000
F1F800
F7FE00
FFFF00
FFFF80
FF07C0
FC03C0
FC01E0
F801E0
F800F0
F000F0
F000F0
F000F0
F000F0
F000F0
F000F0
F800E0
F801E0
FC03E0
FE03C0
FF8FC0
FFFF80
F7FF00
F3FC00
ENDCHAR
STARTCHAR 0063
ENCODING 99
SWIDTH 460 0
DWIDTH 23 0
BBX 19 23 2 0
BITMAP
01F800
07FE00
0FFF00
1FFF80
1F07C0
3C03C0
7C01C0
780180
780000
700000
F00000
F00000
F00000
700000
700000
780000
780180
3C03E0
3E03C0
1F8FC0
0FFF80
07FF00
03FC00
ENDCHAR
STARTCHAR 0064
ENCODING 100
SWIDTH 480 0
DWIDTH 24 0
BBX 20 32 2 0
BITMAP
0000F0
0000F0
0000F0
0000F0
0000F0
0000F0
0000F0
0000F0
0000F0
01F8F0
07FEF0
0FFFF0
1FFFF0
1F07F0
3C03F0
7C01F0
7801F0
7800F0
7000F0
F000F0
F000F0
F000F0
7000F0
7000F0
7800F0
7801F0
3C03F0
3E03F0
1F8FF0
0FFFF0
07FFF0
03FCF0
ENDCHAR
STARTCHAR 0065
ENCODING 101
SWIDTH 480 0
DWIDTH 24 0
BBX 20 23 2 0
BITMAP
01F800
07FE00
0FFF00
1FFF80
1F07C0
3C03C0
7C01E0
7801E0
7800F0
7FFFF0
FFFFF0
FFFFF0
F00000
700000
700000
780000
780180
3C03E0
3E03C0
1F8FC0
0FFF80
07FF00
03FC00
ENDCHAR
STARTCHAR 0066
ENCODING 102
SWIDTH 320 0
DWIDTH 16 0
BBX 16 33 2 0
BITMAP
0038
00FF
01FF
03FE
07C4
0780
0780
0780
0780
0780
0780
0780
FFF8
FFF8
FFF8
FFF8
0780
0780
0780
0780
0780
0780
0780
0780
0780
0780
0780
0780
0780
0780
0780
0780
0780
ENDCHAR
STARTCHAR 0067
ENCODING 103
SWIDTH 500 0
DWIDTH 25 0
BBX 23 33 2 -10
BITMAP
01F808
07FF1E
1FFFBE
3FFFFC
3E03F8
7801F0
7800F0
7000F0
F000F0
F000F0
7800F0
7801E0
7C03E0
3FFFC0
3FFF80
3FFF00
7BFC00
780000
780000
3F0000
3FFC00
0FFF80
01FFE0
0007E0
0001F0
0000F0
F000F0
7800F0
7C01E0
3F9FE0
3FFFC0
0FFF80
03FE00
ENDCHAR
STARTCHAR 0068
ENCODING 104
SWIDTH 480 0
DWIDTH 24 0
BBX 20 32 2 0
BITMAP
F00000
F00000
F00000
F00000
F00000
F00000
F00000
F00000
F00000
F0FC00
F3FF00
F7FF80
FFFFC0
FF03C0
FE01E0
FC01E0
F800E0
F800F0
F000F0
F000F0
F000F0
F000F0
F000F0
F000F0
F000F0
F000F0
F000F0
F000F0
F000F0
F000F0
F000F0
F000F0
ENDCHAR
STARTCHAR 0069
ENCODING 105
SWIDTH 160 0
DWIDTH 8 0
BBX 5 31 2 0
BITMAP
F0
F8
F8
F8
70
00
00
00
00
F0
F0
F0
F0
F0
F0
F0
F0
F0
F0
F0
F0
F0
F0
F0
F0
F0
F0
F0
F0
F0
F0
ENDCHAR
STARTCHAR 006A
ENCODING 106
SWIDTH 160 0
DWIDTH 8 0
BBX 12 41 -5 -10
BITMAP
01E0
01F0
01F0
01F0
00E0
0000
0000
0000
0000
01E0
01E0
01E0
01E0
01E0
01E0
01E0
01E0
01E0
01E0
01E0
01E0
01E0
01E0
01E0
01E0
01E0
01E0
01E0
01E0
01E0
01E0
01E0
01E0
01E0
01E0
01E0
01E0
37C0
7FC0
FF80
7E00
ENDCHAR
STARTCHAR 006B
ENCODING 107
SWIDTH 420 0
DWIDTH 21 0
BBX 17 32 2 0
BITMAP
F00000
F00000
F00000
F00000
F00000
F00000
F00000
F00000
F00000
F00000
F03E00
F07C00
F07800
F0F000
F1F000
F3E000
F3C000
F7C000
FF8000
FF8000
FF8000
FFC000
FFE000
F9F000
F8F000
F0F800
F07C00
F03C00
F01E00
F01F00
F00F00
F00780
ENDCHAR
STARTCHAR 006C
ENCODING 108
SWIDTH 240 0
DWIDTH 12 0
BBX 8 32 2 0
BITMAP
F0
F0
F0
F0
F0
F0
F0
F0
F0
F0
F0
F0
F0
F0
F0
F0
F0
F0
F0
F0
F0
F0
F0
F0
F0
F0
F0
F0
FF
7F
7F
3F
ENDCHAR
STARTCHAR 006D
ENCODING 109
SWIDTH 600 0
DWIDTH 30 0
BBX 26 23 2 0
BITMAP
03E07C00
F7F0FE00
FFF9FF00
FFFFFF80
FE3FC780
FC1F8380
F81F03C0
F81F03C0
F81F03C0
F01E03C0
F01E03C0
F01E03C0
F01E03C0
F01E03C0
F01E03C0
F01E03C0
F01E03C0
F01E03C0
F01E03C0
F01E03C0
F01E03C0
F01E03C0
F01E03C0
ENDCHAR
STARTCHAR 006E
ENCODING 110
SWIDTH 480 0
DWIDTH 24 0
BBX 20 23 2 0
BITMAP
00FC00
F3FF00
F7FF80
FFFFC0
FF03C0
FE01E0
FC01E0
F800E0
F800F0
F000F0
F000F0
F000F0
F000F0
F000F0
F000F0
F000F0
F000F0
F000F0
F000F0
F000F0
F000F0
F000F0
F000F0
ENDCHAR
STARTCHAR 006F
ENCODING 111
SWIDTH 480 0
DWIDTH 24 0
BBX 20 23 2 0
BITMAP
01F800
07FE00
0FFF00
1FFF80
1F07C0
3C03C0
7C01E0
7801E0
7800F0
7000F0
F000F0
F000F0
F000F0
7000F0
7000F0
7800E0
7801E0
3C03E0
3E03C0
1F8FC0
0FFF80
07FF00
03FC00
ENDCHAR
STARTCHAR 0070
ENCODING 112
SWIDTH 480 0
DWIDTH 24 0
BBX 20 34 2 -11
BITMAP
01F800
F7FE00
FFFF00
FFFF80
FF07C0
FC03C0
FC01E0
F801E0
F800F0
F000F0
F000F0
F000F0
F000F0
F000F0
F000F0
F800E0
F801E0
FC03E0
FE03C0
FF8FC0
FFFF80
F7FF00
F3FC00
F00000
F00000
F00000
F00000
F00000
F00000
F00000
F00000
F00000
300000
100000
ENDCHAR
STARTCHAR 0071
ENCODING 113
SWIDTH 480 0
DWIDTH 24 0
BBX 20 34 2 -11
BITMAP
01F800
07FEF0
0FFFF0
1FFFF0
1F07F0
3C03F0
7C01F0
7801F0
7800F0
7000F0
F000F0
F000F0
F000F0
7000F0
7000F0
7800F0
7801F0
3C03F0
3E03F0
1F8FF0
0FFFF0
07FFF0
03FCF0
0000F0
0000F0
0000F0
0000F0
0000F0
0000F0
0000F0
0000F0
0000F0
000030
000010
ENDCHAR
STARTCHAR 0072
ENCODING 114
SWIDTH 340 0
DWIDTH 17 0
BBX 13 23 2 0
BITMAP
00F8
F3F0
F7F0
FFF0
FF00
FE00
FC00
F800
F800
F000
F000
F000
F000
F000
F000
F000
F000
F000
F000
F000
F000
F000
F000
ENDCHAR
STARTCHAR 0073
ENCODING 115
SWIDTH 380 0
DWIDTH 19 0
BBX 15 23 2 0
BITMAP
07C0
1FF0
3FF8
3FFC
7C3C
781C
7800
7800
3E00
3F80
1FE0
07F8
00FC
007C
001E
001E
F01E
701E
781E
7C7C
3FFC
1FF8
0FE0
ENDCHAR
STARTCHAR 0074
ENCODING 116
SWIDTH 340 0
DWIDTH 17 0
BBX 13 29 2 0
BITMAP
0080
0180
0780
0780
0780
0780
0780
FFF8
FFF8
FFF8
0780
0780
0780
0780
0780
0780
0780
0780
0780
0780
0780
0780
0780
0780
0780
07F0
07F0
07F0
03F0
ENDCHAR
STARTCHAR 0075
ENCODING 117
SWIDTH 480 0
DWIDTH 24 0
BBX 20 22 2 0
BITMAP
F000F0
F000F0
F000F0
F000F0
F000F0
F000F0
F000F0
F000F0
F000F0
F000F0
F000F0
F000F0
F000F0
7000F0
7801F0
7801F0
7803F0
3C07F0
3F1FF0
1FFFF0
0FFEF0
07F8F0
ENDCHAR
STARTCHAR 0076
ENCODING 118
SWIDTH 500 0
DWIDTH 25 0
BBX 19 22 3 0
BITMAP
F001E0
F001E0
7001E0
7803C0
7803C0
3C03C0
3C0780
3C0780
1E0700
1E0F00
1E0F00
0F1E00
0F1E00
071E00
07BC00
07BC00
03FC00
03F800
03F800
01F000
01F000
01F000
ENDCHAR
STARTCHAR 0077
ENCODING 119
SWIDTH 640 0
DWIDTH 32 0
BBX 27 22 3 0
BITMAP
F01F01E0
F01F01E0
F01F01E0
F03F03C0
783F83C0
783F83C0
783F83C0
387B8780
3C7BC780
3C7BC780
3C73C700
1CF1EF00
1EF1EF00
1EF1EF00
1FE0EE00
0FE0FE00
0FE0FE00
0FE0FE00
07C07C00
07C07C00
07C07C00
07807800
ENDCHAR
STARTCHAR 0078
ENCODING 120
SWIDTH 500 0
DWIDTH 25 0
BBX 19 22 3 0
BITMAP
F801E0
7803C0
3C07C0
3E0F80
1E0F00
0F1F00
0FBE00
07FC00
03F800
03F800
01F000
01F000
03F800
07FC00
07BC00
0F1E00
1F1F00
1E0F80
3C0780
7C07C0
F803E0
F001E0
ENDCHAR
STARTCHAR 0079
ENCODING 121
SWIDTH 500 0
DWIDTH 25 0
BBX 19 32 3 -10
BITMAP
F001E0
F001E0
7001E0
7803C0
7803C0
3C03C0
3C0780
3C0780
1E0F00
1E0F00
1E0F00
0F1E00
0F1E00
071E00
07BC00
07BC00
03FC00
03F800
03F800
01F000
01F000
01F000
01E000
01E000
01E000
03C000
03C000
07C000
3F8000
7F0000
7F0000
7C0000
ENDCHAR
STARTCHAR 007A
ENCODING 122
SWIDTH 400 0
DWIDTH 20 0
BBX 16 22 2 0
BITMAP
FFFF
FFFF
FFFF
001E
003E
007C
0078
00F8
01F0
01E0
03C0
07C0
0780
0F00
1F00
3E00
3C00
7C00
FFFF
FFFF
FFFF
FFFF
ENDCHAR
STARTCHAR 007B
ENCODING 123
SWIDTH 280 0
DWIDTH 14 0
BBX 10 43 2 -10
BITMAP
0040
01C0
07C0
07C0
0F80
0F00
0E00
0E00
0E00
0E00
0E00
0E00
0E00
0E00
0E00
0E00
0E00
0E00
1E00
3E00
FC00
F800
FC00
FC00
1E00
1E00
0E00
0E00
0E00
0E00
0E00
0E00
0E00
0E00
0E00
0E00
0E00
0E00
0F00
0FC0
07C0
03C0
01C0
ENDCHAR
STARTCHAR 007C
ENCODING 124
SWIDTH 160 0
DWIDTH 8 0
BBX 4 42 2 -10
BITMAP
F0
F0
F0
F0
F0
F0
F0
F0
F0
F0
F0
F0
F0
F0
F0
F0
F0
F0
F0
F0
F0
F0
F0
F0
F0
F0
F0
F0
F0
F0
F0
F0
F0
F0
F0
F0
F0
F0
F0
F0
F0
F0
ENDCHAR
STARTCHAR 007D
ENCODING 125
SWIDTH 280 0
DWIDTH 14 0
BBX 10 43 2 -10
BITMAP
C000
F000
F800
FC00
3E00
1E00
0E00
0E00
0E00
0E00
0E00
0E00
0E00
0E00
0E00
0E00
0E00
0E00
0F00
0F80
07C0
07C0
07C0
0FC0
0F00
0F00
0E00
0E00
0E00
0E00
0E00
0E00
0E00
0E00
0E00
0E00
0E00
1E00
1E00
7E00
FC00
F800
F000
ENDCHAR
STARTCHAR 007E
ENCODING 126
SWIDTH 580 0
DWIDTH 29 0
BBX 25 8 2 13
BITMAP
0FE00000
3FF80780
3FFC0780
7CFE0F80
783F9F00
F00FFF00
0007FE00
0001F800
ENDCHAR
STARTCHAR 00A0
ENCODING 160
SWIDTH 240 0
DWIDTH 12 0
BBX 0 0 0 0
BITMAP
ENDCHAR
STARTCHAR 00A1
ENCODING 161
SWIDTH 160 0
DWIDTH 8 0
BBX 6 33 1 -10
BITMAP
38
7C
FC
7C
78
00
00
00
00
00
78
78
78
78
78
78
78
78
78
78
78
78
78
78
78
78
78
78
78
78
78
78
78
ENDCHAR
STARTCHAR 00A2
ENCODING 162
SWIDTH 460 0
DWIDTH 23 0
BBX 19 32 2 -5
BITMAP
000780
000780
000F00
000F00
01FF00
07FE00
0FFF00
1FFF80
1F3FC0
3C3FC0
7C39C0
787980
787800
70F000
F0F000
F0F000
F1E000
71E000
71E000
7BC000
7BC180
3F83E0
3F83C0
1F8FC0
0FFF80
0FFF00
0FFC00
1E0000
1E0000
1E0000
3C0000
3C0000
ENDCHAR
STARTCHAR 00A3
ENCODING 163
SWIDTH 500 0
DWIDTH 25 0
BBX 21 33 2 0
BITMAP
001E00
00FF80
01FFC0
03FFE0
07C1F0
0F80F8
0F0078
0F0030
1E0000
1E0000
1E0000
1E0000
1E0000
1E0000
1E0000
FFFE00
FFFE00
FFFE00
FFFE00
078000
078000
078000
078000
078000
078000
070000
0F0000
0F0000
1E0000
FFFFF8
FFFFF8
FFFFF8
FFFFF8
ENDCHAR
STARTCHAR 00A4
ENCODING 164
SWIDTH 520 0
DWIDTH 26 0
BBX 23 23 2 5
BITMAP
200000
700018
F8003C
FC387C
7FFFF8
3FFFF0
1FFFE0
0F83E0
0F01E0
1E00F0
1E00F0
1E00F0
1E00F0
1E00F0
1E00F0
0F01E0
0FC7E0
1FFFF0
3FFFF8
7DFEFC
F8007E
70003C
200018
ENDCHAR
STARTCHAR 00A5
ENCODING 165
SWIDTH 620 0
DWIDTH 31 0
BBX 26 32 3 0
BITMAP
F00007C0
78000780
7C000F80
3E001F00
1E001E00
1F003C00
0F807C00
07807800
03C0F000
03E1F000
01E3E000
00F3C000
00FFC000
007F8000
003F0000
3FFFFF00
3FFFFF00
3FFFFF00
001E0000
001E0000
001E0000
3FFFFF00
3FFFFF00
3FFFFF00
3FFFFF00
001E0000
001E0000
001E0000
001E0000
001E0000
001E0000
001E0000
ENDCHAR
STARTCHAR 00A6
ENCODING 166
SWIDTH 160 0
DWIDTH 8 0
BBX 4 42 2 -10
BITMAP
F0
F0
F0
F0
F0
F0
F0
F0
F0
F0
F0
F0
F0
F0
F0
F0
00
00
00
00
00
00
00
00
00
F0
F0
F0
F0
F0
F0
F0
F0
F0
F0
F0
F0
F0
F0
F0
F0
F0
ENDCHAR
STARTCHAR 00A7
ENCODING 167
SWIDTH 480 0
DWIDTH 24 0
BBX 20 43 2 -10
BITMAP
00F000
03FE00
0FFF00
1FFF80
1F0FC0
3E03C0
3C03C0
3C01E0
3801E0
380000
3C0000
3C0000
3E0000
3F8000
3FE000
7FF800
79FE00
707F00
F01FC0
F007C0
7003E0
7801F0
7C00F0
3E00F0
3F00F0
1FC0F0
07F8F0
03FDE0
00FFE0
003FC0
000FC0
0007C0
0003E0
0001E0
0001E0
3801E0
3C01E0
3C03C0
1E07C0
1FDF80
0FFF80
07FF00
01FC00
ENDCHAR
STARTCHAR 00A8
ENCODING 168
SWIDTH 360 0
DWIDTH 18 0
BBX 14 5 2 26
BITMAP
7838
7C7C
FC7C
7C7C
7838
ENDCHAR
STARTCHAR 00A9
ENCODING 169
SWIDTH 760 0
DWIDTH 38 0
BBX 34 33 2 0
BITMAP
0001E00000
001FFE0000
007FFF8000
01FFFFE000
03F807F000
07E001F800
0F80007C00
1F00003E00
1E00001E00
3C01F00F00
3C07F80F00
780FFC0780
780FFE0780
781E1C0380
701E000380
F01C0003C0
F01C0003C0
F01C0003C0
F01C0003C0
701E080380
781F1C0780
780FFE0780
780FFC0780
3C07F80F00
3E01E00F00
1E00001E00
1F00003E00
0FC000FC00
07E001F800
03FC0FF000
01FFFFE000
007FFF8000
001FFE0000
ENDCHAR
STARTCHAR 00AA
ENCODING 170
SWIDTH 280 0
DWIDTH 14 0
BBX 10 17 2 17
BITMAP
1F00
3F80
1BC0
01C0
07C0
3FC0
3FC0
71C0
71C0
7BC0
3FC0
1FC0
0000
0000
FFC0
FFC0
FFC0
ENDCHAR
STARTCHAR 00AB
ENCODING 171
SWIDTH 400 0
DWIDTH 20 0
BBX 15 17 3 3
BITMAP
0082
0104
030C
0618
0C30
1870
38E0
71C0
E380
F3C0
71E0
38E0
1C70
0C38
0618
030C
0186
ENDCHAR
STARTCHAR 00AC
ENCODING 172
SWIDTH 520 0
DWIDTH 26 0
BBX 22 11 2 7
BITMAP
FFFFFC
FFFFFC
FFFFFC
FFFFFC
00001C
00001C
00001C
00001C
00001C
00001C
00001C
ENDCHAR
STARTCHAR 00AD
ENCODING 173
SWIDTH 340 0
DWIDTH 17 0
BBX 13 4 2 9
BITMAP
FFF8
FFF8
FFF8
FFF8
ENDCHAR
STARTCHAR 00AE
ENCODING 174
SWIDTH 760 0
DWIDTH 38 0
BBX 34 33 2 0
BITMAP
0001E00000
001FFE0000
007FFF8000
01FFFFE000
03F807F000
07E001F800
0F80007C00
1F00003E00
1E00001E00
3C0FE00F00
3C0FF80F00
780FFC0780
780FFE0780
780F1E0380
700F1E0380
F00F1E03C0
F00FFE03C0
F00FFC03C0
F00FF803C0
700FF80380
780F3C0780
780F3E0780
780F1E0780
3C0F0F0F00
3E00000F00
1E00001E00
1F00003E00
0FC000FC00
07E001F800
03FC0FF000
01FFFFE000
007FFF8000
001FFE0000
ENDCHAR
STARTCHAR 00AF
ENCODING 175
SWIDTH 340 0
DWIDTH 17 0
BBX 13 4 2 26
BITMAP
FFF8
FFF8
FFF8
FFF8
ENDCHAR
STARTCHAR 00B0
ENCODING 176
SWIDTH 360 0
DWIDTH 18 0
BBX 14 14 2 19
BITMAP
0380
1FE0
3FF0
7FF8
7C7C
783C
F03C
F03C
703C
787C
7FF8
3FF8
1FF0
07C0
ENDCHAR
STARTCHAR 00B1
ENCODING 177
SWIDTH 520 0
DWIDTH 26 0
BBX 22 28 2 2
BITMAP
003800
003800
003800
003800
003800
003800
003800
003800
003800
003800
FFFFFC
FFFFFC
FFFFFC
003800
003800
003800
003800
003800
003800
003800
003800
003800
000000
000000
FFFFFC
FFFFFC
FFFFFC
FFFFFC
ENDCHAR
STARTCHAR 00B2
ENCODING 178
SWIDTH 280 0
DWIDTH 14 0
BBX 10 17 2 22
BITMAP
1F00
3F80
7380
61C0
E1C0
01C0
0380
0780
0F00
1E00
3C00
7800
7000
6000
FFC0
FFC0
FFC0
ENDCHAR
STARTCHAR 00B3
ENCODING 179
SWIDTH 280 0
DWIDTH 14 0
BBX 9 17 3 22
BITMAP
3E00
7F00
F700
C380
C380
0380
0700
0F00
0F00
0780
0380
0180
4180
C380
F780
7F00
3E00
ENDCHAR
STARTCHAR 00B4
ENCODING 180
SWIDTH 260 0
DWIDTH 13 0
BBX 7 7 3 25
BITMAP
1E
3C
38
70
60
C0
80
ENDCHAR
STARTCHAR 00B5
ENCODING 181
SWIDTH 480 0
DWIDTH 24 0
BBX 20 33 2 -11
BITMAP
F000F0
F000F0
F000F0
F000F0
F000F0
F000F0
F000F0
F000F0
F000F0
F000F0
F000F0
F000F0
F000F0
F000F0
F801F0
F801F0
FC03F0
FE07F0
FF0FF0
FFFFF0
FFFEF0
F3FCF0
F00000
F00000
F00000
F00000
F00000
F00000
F00000
F00000
F00000
300000
100000
ENDCHAR
STARTCHAR 00B6
ENCODING 182
SWIDTH 500 0
DWIDTH 25 0
BBX 20 42 2 -10
BITMAP
07FFF0
0FFFF0
1FFFF0
3FFCF0
7FFCF0
7FFCF0
7FFCF0
FFFCF0
FFFCF0
7FFCF0
7FFCF0
7FFCF0
3FFCF0
3FFCF0
1FFCF0
07FCF0
01FCF0
003CF0
003CF0
003CF0
003CF0
003CF0
003CF0
003CF0
003CF0
003CF0
003CF0
003CF0
003CF0
003CF0
003CF0
003CF0
003CF0
003CF0
003CF0
003CF0
003CF0
003CF0
003CF0
003CF0
003CF0
003CF0
ENDCHAR
STARTCHAR 00B7
ENCODING 183
SWIDTH 200 0
DWIDTH 10 0
BBX 6 6 2 13
BITMAP
30
78
FC
FC
78
10
ENDCHAR
STARTCHAR 00B8
ENCODING 184
SWIDTH 280 0
DWIDTH 14 0
BBX 9 10 3 -10
BITMAP
1800
3C00
3F00
3F80
0380
0180
0180
8780
FF00
FE00
ENDCHAR
STARTCHAR 00B9
ENCODING 185
SWIDTH 260 0
DWIDTH 13 0
BBX 9 17 2 22
BITMAP
1C00
1C00
FC00
FC00
FC00
1C00
1C00
1C00
1C00
1C00
1C00
1C00
1C00
1C00
FF80
FF80
FF80
ENDCHAR
STARTCHAR 00BA
ENCODING 186
SWIDTH 320 0
DWIDTH 16 0
BBX 12 17 2 17
BITMAP
0F80
1FC0
3DE0
30E0
7070
7070
7070
7070
38E0
3DE0
1FC0
0F80
0000
0000
FFF0
FFF0
FFF0
ENDCHAR
STARTCHAR 00BB
ENCODING 187
SWIDTH 400 0
DWIDTH 20 0
BBX 15 17 3 3
BITMAP
8200
C300
6180
30C0
1860
1C70
0E38
071C
078E
071E
0E3C
0C38
1870
30E0
60C0
4180
8300
ENDCHAR
STARTCHAR 00BC
ENCODING 188
SWIDTH 480 0
DWIDTH 24 0
BBX 20 41 2 -4
BITMAP
007000
007000
00F000
03F000
03F000
007000
007000
007000
007000
007000
007000
007000
007000
007000
007000
03FE00
03FE00
000000
000000
000000
FFFFF0
FFFFF0
000000
000000
000000
003C00
007C00
007C00
00FC00
01DC00
01DC00
039C00
071C00
0F1C00
0FFF00
0FFF00
0FFF00
001C00
001C00
001C00
001C00
ENDCHAR
STARTCHAR 00BD
ENCODING 189
SWIDTH 480 0
DWIDTH 24 0
BBX 20 42 2 -5
BITMAP
006000
006000
00E000
03E000
03E000
006000
006000
006000
006000
006000
006000
006000
006000
006000
006000
03FE00
03FE00
000000
000000
000000
FFFFF0
FFFFF0
000000
000000
000000
01F800
03FC00
039E00
030E00
030E00
000E00
001C00
003C00
007800
00F000
01C000
038000
038000
030000
03FE00
03FE00
03FE00
ENDCHAR
STARTCHAR 00BE
ENCODING 190
SWIDTH 480 0
DWIDTH 24 0
BBX 20 41 2 -4
BITMAP
00F000
01F800
03FC00
030C00
070E00
000E00
001C00
003C00
003C00
003C00
000E00
000600
000600
030E00
079E00
03FC00
01F800
000000
000000
000000
FFFFF0
FFFFF0
000000
000000
000000
003C00
007C00
007C00
00FC00
01DC00
01DC00
039C00
071C00
0F1C00
0FFF00
0FFF00
0FFF00
001C00
001C00
001C00
001C00
ENDCHAR
STARTCHAR 00BF
ENCODING 191
SWIDTH 420 0
DWIDTH 21 0
BBX 17 33 2 -10
BITMAP
01C000
01E000
03F000
03F000
01E000
000000
000000
000000
000000
01E000
01E000
01E000
03C000
03C000
07C000
078000
0F0000
1F0000
3E0000
3C0000
7C0000
780000
700000
F00000
F00000
F00380
700380
780780
7C0F80
3F7F00
1FFE00
0FFC00
07F800
ENDCHAR
STARTCHAR 00C0
ENCODING 192
SWIDTH 640 0
DWIDTH 32 0
BBX 27 42 3 0
BITMAP
00F00000
00780000
00380000
001C0000
000E0000
00060000
00030000
00000000
00000000
00000000
001E0000
001F0000
003F0000
003F0000
007F8000
007F8000
007BC000
00F3C000
00F3C000
00F1E000
01E1E000
01E1E000
01C0F000
03C0F000
03C07000
07807800
07FFF800
07FFFC00
0FFFFC00
0FFFFC00
0F001E00
1E001E00
1E001E00
1C000F00
3C000F00
3C000700
78000780
78000780
780003C0
F00003C0
F00003C0
F00001E0
ENDCHAR
STARTCHAR 00C1
ENCODING 193
SWIDTH 640 0
DWIDTH 32 0
BBX 27 42 3 0
BITMAP
0003C000
00078000
00070000
000E0000
000C0000
00180000
00100000
00000000
00000000
00000000
001E0000
001F0000
003F0000
003F0000
007F8000
007F8000
007BC000
00F3C000
00F3C000
00F1E000
01E1E000
01E1E000
01C0F000
03C0F000
03C07000
07807800
07FFF800
07FFFC00
0FFFFC00
0FFFFC00
0F001E00
1E001E00
1E001E00
1C000F00
3C000F00
3C000700
78000780
78000780
780003C0
F00003C0
F00003C0
F00001E0
ENDCHAR
STARTCHAR 00C2
ENCODING 194
SWIDTH 640 0
DWIDTH 32 0
BBX 27 42 3 0
BITMAP
003F0000
003F0000
007F8000
00738000
00E1C000
00C0C000
01806000
00000000
00000000
00000000
001E0000
001F0000
003F0000
003F0000
007F8000
007F8000
007BC000
00F3C000
00F3C000
00F1E000
01E1E000
01E1E000
01C0F000
03C0F000
03C07000
07807800
07FFF800
07FFFC00
0FFFFC00
0FFFFC00
0F001E00
1E001E00
1E001E00
1C000F00
3C000F00
3C000700
78000780
78000780
780003C0
F00003C0
F00003C0
F00001E0
ENDCHAR
STARTCHAR 00C3
ENCODING 195
SWIDTH 640 0
DWIDTH 32 0
BBX 27 41 3 0
BITMAP
03F01C00
03FC1C00
07FE1800
060FF800
0603F000
06006000
00000000
00000000
00000000
001E0000
001F0000
003F0000
003F0000
007F8000
007F8000
007BC000
00F3C000
00F3C000
00F1E000
01E1E000
01E1E000
01C0F000
03C0F000
03C07000
07807800
07FFF800
07FFFC00
0FFFFC00
0FFFFC00
0F001E00
1E001E00
1E001E00
1C000F00
3C000F00
3C000700
78000780
78000780
780003C0
F00003C0
F00003C0
F00001E0
ENDCHAR
STARTCHAR 00C4
ENCODING 196
SWIDTH 640 0
DWIDTH 32 0
BBX 27 41 3 0
BITMAP
01E0E000
01E1F000
03F1F000
03F1F000
01E1E000
00000000
00000000
00000000
00000000
001E0000
001F0000
003F0000
003F0000
007F8000
007F8000
007BC000
00F3C000
00F3C000
00F1E000
01E1E000
01E1E000
01C0F000
03C0F000
03C07000
07807800
07FFF800
07FFFC00
0FFFFC00
0FFFFC00
0F001E00
1E001E00
1E001E00
1C000F00
3C000F00
3C000700
78000780
78000780
780003C0
F00003C0
F00003C0
F00001E0
ENDCHAR
STARTCHAR 00C5
ENCODING 197
SWIDTH 640 0
DWIDTH 32 0
BBX 27 43 3 0
BITMAP
00040000
003F0000
007F8000
00738000
00618000
00718000
007F8000
003F0000
001E0000
00000000
00000000
001E0000
001F0000
003F0000
003F0000
007F8000
007F8000
007BC000
00F3C000
00F3C000
00F1E000
01E1E000
01E1E000
01C0F000
03C0F000
03C07000
07807800
07FFF800
07FFFC00
0FFFFC00
0FFFFC00
0F001E00
1E001E00
1E001E00
1C000F00
3C000F00
3C000700
78000780
78000780
780003C0
F00003C0
F00003C0
F00001E0
ENDCHAR
STARTCHAR 00C6
ENCODING 198
SWIDTH 720 0
DWIDTH 36 0
BBX 31 32 3 0
BITMAP
001FFFFE
001FFFFE
003FFFFE
003CE000
0078E000
0078E000
0078E000
00F0E000
00F0E000
00F0E000
01E0E000
01E0E000
01C0E000
03C0E000
03FFFFF0
07FFFFF0
07FFFFF0
07FFFFF0
0F00E000
0F00E000
0F00E000
1E00E000
1E00E000
1C00E000
3C00E000
3C00E000
7800E000
7800E000
7800FFFE
F000FFFE
F000FFFE
F000FFFE
ENDCHAR
STARTCHAR 00C7
ENCODING 199
SWIDTH 580 0
DWIDTH 29 0
BBX 25 43 2 -10
BITMAP
000F0000
007FE000
01FFF800
03FFFC00
07E07E00
0F801F00
1F000F00
1E000780
3C000700
3C000000
78000000
78000000
78000000
70000000
70000000
F0000000
F0000000
F0000000
F0000000
70000000
70000000
78000000
78000000
78000000
3C000200
3E000700
1E000F80
0F001F00
0F803E00
07F0FE00
03FFFC00
01FFF000
007FE000
000E0000
000E0000
001F8000
001FC000
0000E000
0000E000
0000E000
0023C000
007F8000
007F0000
ENDCHAR
STARTCHAR 00C8
ENCODING 200
SWIDTH 500 0
DWIDTH 25 0
BBX 21 42 2 0
BITMAP
07C000
01E000
00E000
007000
003000
001800
000800
000000
000000
000000
FFFFF8
FFFFF8
FFFFF8
F00000
F00000
F00000
F00000
F00000
F00000
F00000
F00000
F00000
F00000
F00000
FFFFC0
FFFFC0
FFFFC0
FFFFC0
F00000
F00000
F00000
F00000
F00000
F00000
F00000
F00000
F00000
F00000
FFFFF8
FFFFF8
FFFFF8
FFFFF8
ENDCHAR
STARTCHAR 00C9
ENCODING 201
SWIDTH 500 0
DWIDTH 25 0
BBX 21 42 2 0
BITMAP
001F00
001E00
003C00
003800
007000
006000
00C000
000000
000000
000000
FFFFF8
FFFFF8
FFFFF8
F00000
F00000
F00000
F00000
F00000
F00000
F00000
F00000
F00000
F00000
F00000
FFFFC0
FFFFC0
FFFFC0
FFFFC0
F00000
F00000
F00000
F00000
F00000
F00000
F00000
F00000
F00000
F00000
FFFFF8
FFFFF8
FFFFF8
FFFFF8
ENDCHAR
STARTCHAR 00CA
ENCODING 202
SWIDTH 500 0
DWIDTH 25 0
BBX 21 42 2 0
BITMAP
00F800
00FC00
01FC00
03CE00
038600
060300
040100
000000
000000
000000
FFFFF8
FFFFF8
FFFFF8
F00000
F00000
F00000
F00000
F00000
F00000
F00000
F00000
F00000
F00000
F00000
FFFFC0
FFFFC0
FFFFC0
FFFFC0
F00000
F00000
F00000
F00000
F00000
F00000
F00000
F00000
F00000
F00000
FFFFF8
FFFFF8
FFFFF8
FFFFF8
ENDCHAR
STARTCHAR 00CB
ENCODING 203
SWIDTH 500 0
DWIDTH 25 0
BBX 21 41 2 0
BITMAP
070700
0F8F80
0F8FC0
0F8F80
078780
000000
000000
000000
000000
FFFFF8
FFFFF8
FFFFF8
F00000
F00000
F00000
F00000
F00000
F00000
F00000
F00000
F00000
F00000
F00000
FFFFC0
FFFFC0
FFFFC0
FFFFC0
F00000
F00000
F00000
F00000
F00000
F00000
F00000
F00000
F00000
F00000
FFFFF8
FFFFF8
FFFFF8
FFFFF8
ENDCHAR
STARTCHAR 00CC
ENCODING 204
SWIDTH 300 0
DWIDTH 15 0
BBX 11 42 2 0
BITMAP
F800
7800
3C00
1C00
0E00
0600
0300
0000
0000
0000
FFE0
FFE0
FFE0
0E00
0E00
0E00
0E00
0E00
0E00
0E00
0E00
0E00
0E00
0E00
0E00
0E00
0E00
0E00
0E00
0E00
0E00
0E00
0E00
0E00
0E00
0E00
0E00
0E00
FFE0
FFE0
FFE0
FFE0
ENDCHAR
STARTCHAR 00CD
ENCODING 205
SWIDTH 300 0
DWIDTH 15 0
BBX 11 42 2 0
BITMAP
03E0
03C0
0780
0700
0E00
0C00
1800
0000
0000
0000
FFE0
FFE0
FFE0
0E00
0E00
0E00
0E00
0E00
0E00
0E00
0E00
0E00
0E00
0E00
0E00
0E00
0E00
0E00
0E00
0E00
0E00
0E00
0E00
0E00
0E00
0E00
0E00
0E00
FFE0
FFE0
FFE0
FFE0
ENDCHAR
STARTCHAR 00CE
ENCODING 206
SWIDTH 300 0
DWIDTH 15 0
BBX 11 42 2 0
BITMAP
1F00
3F80
3B80
71C0
60C0
C060
8020
0000
0000
0000
FFE0
FFE0
FFE0
0E00
0E00
0E00
0E00
0E00
0E00
0E00
0E00
0E00
0E00
0E00
0E00
0E00
0E00
0E00
0E00
0E00
0E00
0E00
0E00
0E00
0E00
0E00
0E00
0E00
FFE0
FFE0
FFE0
FFE0
ENDCHAR
STARTCHAR 00CF
ENCODING 207
SWIDTH 300 0
DWIDTH 15 0
BBX 13 41 1 0
BITMAP
7070
F8F8
F8F8
F8F8
F078
0000
0000
0000
0000
7FF0
7FF0
7FF0
0700
0700
0700
0700
0700
0700
0700
0700
0700
0700
0700
0700
0700
0700
0700
0700
0700
0700
0700
0700
0700
0700
0700
0700
0700
7FF0
7FF0
7FF0
7FF0
ENDCHAR
STARTCHAR 00D0
ENCODING 208
SWIDTH 620 0
DWIDTH 31 0
BBX 27 32 2 0
BITMAP
FFFFC000
FFFFF000
FFFFF800
0F03FC00
0F003E00
0F000F00
0F000780
0F000380
0F0003C0
0F0001C0
0F0001E0
0F0000E0
0F0000E0
0F0000E0
FFFE00E0
FFFE00E0
FFFE00E0
FFFE00E0
0F0000E0
0F0000E0
0F0000E0
0F0001C0
0F0001C0
0F0003C0
0F000780
0F000780
0F001F00
0F003E00
FFFFFC00
FFFFF800
FFFFF000
FFFF8000
ENDCHAR
STARTCHAR 00D1
ENCODING 209
SWIDTH 600 0
DWIDTH 30 0
BBX 26 41 2 0
BITMAP
03F00C00
03FC1C00
07FE1800
060FF800
0603F000
06006000
00000000
00000000
00000000
F80003C0
F80003C0
FC0003C0
FE0003C0
FE0003C0
FF0003C0
FF8003C0
F7C003C0
F3C003C0
F3E003C0
F1F003C0
F0F003C0
F07803C0
F07C03C0
F03C03C0
F01E03C0
F01F03C0
F00F83C0
F00783C0
F007C3C0
F003E3C0
F001E3C0
F000F3C0
F000FBC0
F0007BC0
F0003FC0
F0003FC0
F0001FC0
F0000FC0
F0000FC0
F00007C0
F00003C0
ENDCHAR
STARTCHAR 00D2
ENCODING 210
SWIDTH 620 0
DWIDTH 31 0
BBX 27 42 2 0
BITMAP
00780000
003C0000
001C0000
000E0000
00060000
00030000
00010000
00000000
00000000
000F0000
007FE000
01FFF800
03FFFC00
07E07E00
0F801F00
1F000F00
1E000780
3C000780
3C0003C0
780003C0
780001E0
780001E0
700001E0
700001E0
F00000E0
F00000E0
F00000E0
F00000E0
700001E0
700001E0
780001E0
780001E0
780003C0
3C0003C0
3E000780
1E000F80
1F001F00
0F803E00
07F0FE00
03FFFC00
01FFF000
007FE000
ENDCHAR
STARTCHAR 00D3
ENCODING 211
SWIDTH 620 0
DWIDTH 31 0
BBX 27 42 2 0
BITMAP
0001E000
0003C000
00038000
00070000
000E0000
000C0000
00180000
00000000
00000000
000F0000
007FE000
01FFF800
03FFFC00
07E07E00
0F801F00
1F000F00
1E000780
3C000780
3C0003C0
780003C0
780001E0
780001E0
700001E0
700001E0
F00000E0
F00000E0
F00000E0
F00000E0
700001E0
700001E0
780001E0
780001E0
780003C0
3C0003C0
3E000780
1E000F80
1F001F00
0F803E00
07F0FE00
03FFFC00
01FFF000
007FE000
ENDCHAR
STARTCHAR 00D4
ENCODING 212
SWIDTH 620 0
DWIDTH 31 0
BBX 27 42 2 0
BITMAP
001F8000
001F8000
003FC000
0039C000
0070E000
00606000
00C03000
00000000
00000000
000F0000
007FE000
01FFF800
03FFFC00
07E07E00
0F801F00
1F000F00
1E000780
3C000780
3C0003C0
780003C0
780001E0
780001E0
700001E0
700001E0
F00000E0
F00000E0
F00000E0
F00000E0
700001E0
700001E0
780001E0
780001E0
780003C0
3C0003C0
3E000780
1E000F80
1F001F00
0F803E00
07F0FE00
03FFFC00
01FFF000
007FE000
ENDCHAR
STARTCHAR 00D5
ENCODING 213
SWIDTH 620 0
DWIDTH 31 0
BBX 27 41 2 0
BITMAP
01F80C00
03FC0C00
03BF1C00
0307FC00
0703F800
06006000
00000000
00000000
000F0000
007FE000
01FFF800
03FFFC00
07E07E00
0F801F00
1F000F00
1E000780
3C000780
3C0003C0
780003C0
780001E0
780001E0
700001E0
700001E0
F00000E0
F00000E0
F00000E0
F00000E0
700001E0
700001E0
780001E0
780001E0
780003C0
3C0003C0
3E000780
1E000F80
1F001F00
0F803E00
07F0FE00
03FFFC00
01FFF000
007FE000
ENDCHAR
STARTCHAR 00D6
ENCODING 214
SWIDTH 620 0
DWIDTH 31 0
BBX 27 41 2 0
BITMAP
00E0F000
01F0F000
01F1F800
01F1F800
00F0F000
00000000
00000000
00000000
000F0000
007FE000
01FFF800
03FFFC00
07E07E00
0F801F00
1F000F00
1E000780
3C000780
3C0003C0
780003C0
780001E0
780001E0
700001E0
700001E0
F00000E0
F00000E0
F00000E0
F00000E0
700001E0
700001E0
780001E0
780001E0
780003C0
3C0003C0
3E000780
1E000F80
1F001F00
0F803E00
07F0FE00
03FFFC00
01FFF000
007FE000
ENDCHAR
STARTCHAR 00D7
ENCODING 215
SWIDTH 520 0
DWIDTH 26 0
BBX 18 18 4 7
BITMAP
300180
7803C0
FC07C0
7E0F80
3F1F00
1FBE00
0FFC00
07F800
03F000
03F800
07FC00
0FFE00
1F3F00
3E1F80
7C0FC0
7807C0
300380
000100
ENDCHAR
STARTCHAR 00D8
ENCODING 216
SWIDTH 620 0
DWIDTH 31 0
BBX 27 36 2 -2
BITMAP
000000C0
000F01E0
007FE3E0
01FFFBC0
03FFFFC0
07E07F80
0F801F00
1F001F00
1E003F80
3C007F80
3C007BC0
7800FBC0
7801F1E0
7801E1E0
7003E1E0
7007C1E0
F00780E0
F00F00E0
F01F00E0
F03E00E0
703C01E0
707C01E0
78F801E0
78F001E0
79E003C0
3FE003C0
3FC00780
1F800F80
0F801F00
1FC03E00
1FF0FE00
3FFFFC00
7DFFF000
787FE000
70000000
30000000
ENDCHAR
STARTCHAR 00D9
ENCODING 217
SWIDTH 580 0
DWIDTH 29 0
BBX 25 42 2 0
BITMAP
01F00000
00F00000
00780000
001C0000
000C0000
00060000
00020000
00000000
00000000
00000000
F0000780
F0000780
F0000780
F0000780
F0000780
F0000780
F0000780
F0000780
F0000780
F0000780
F0000780
F0000780
F0000780
F0000780
F0000780
F0000780
F0000780
F0000780
F0000780
F0000780
F0000780
F0000780
70000780
78000700
78000F00
3C001F00
3E003E00
1F007C00
0FC1FC00
07FFF800
03FFE000
00FFC000
ENDCHAR
STARTCHAR 00DA
ENCODING 218
SWIDTH 580 0
DWIDTH 29 0
BBX 25 42 2 0
BITMAP
0007C000
00078000
000F0000
000E0000
001C0000
00180000
00300000
00000000
00000000
00000000
F0000780
F0000780
F0000780
F0000780
F0000780
F0000780
F0000780
F0000780
F0000780
F0000780
F0000780
F0000780
F0000780
F0000780
F0000780
F0000780
F0000780
F0000780
F0000780
F0000780
F0000780
F0000780
70000780
78000700
78000F00
3C001F00
3E003E00
1F007C00
0FC1FC00
07FFF800
03FFE000
00FFC000
ENDCHAR
STARTCHAR 00DB
ENCODING 219
SWIDTH 580 0
DWIDTH 29 0
BBX 25 42 2 0
BITMAP
003E0000
007F0000
00770000
00E38000
00C18000
0180C000
01004000
00000000
00000000
00000000
F0000780
F0000780
F0000780
F0000780
F0000780
F0000780
F0000780
F0000780
F0000780
F0000780
F0000780
F0000780
F0000780
F0000780
F0000780
F0000780
F0000780
F0000780
F0000780
F0000780
F0000780
F0000780
70000780
78000700
78000F00
3C001F00
3E003E00
1F007C00
0FC1FC00
07FFF800
03FFE000
00FFC000
ENDCHAR
STARTCHAR 00DC
ENCODING 220
SWIDTH 580 0
DWIDTH 29 0
BBX 25 41 2 0
BITMAP
01C1C000
03E3E000
03E3E000
03E3E000
01C1E000
00000000
00000000
00000000
00000000
F0000780
F0000780
F0000780
F0000780
F0000780
F0000780
F0000780
F0000780
F0000780
F0000780
F0000780
F0000780
F0000780
F0000780
F0000780
F0000780
F0000780
F0000780
F0000780
F0000780
F0000780
F0000780
70000780
78000700
78000F00
3C001F00
3E003E00
1F007C00
0FC1FC00
07FFF800
03FFE000
00FFC000
ENDCHAR
STARTCHAR 00DD
ENCODING 221
SWIDTH 620 0
DWIDTH 31 0
BBX 26 42 3 0
BITMAP
0003C000
00078000
00070000
000E0000
000C0000
00180000
00100000
00000000
00000000
00000000
F00007C0
78000780
7C000F80
3E001F00
1E001E00
1F003C00
0F807C00
07807800
03C0F000
03E1F000
01E3E000
00F3C000
00FFC000
007F8000
003F0000
003E0000
001E0000
001E0000
001E0000
001E0000
001E0000
001E0000
001E0000
001E0000
001E0000
001E0000
001E0000
001E0000
001E0000
001E0000
001E0000
001E0000
ENDCHAR
STARTCHAR 00DE
ENCODING 222
SWIDTH 480 0
DWIDTH 24 0
BBX 20 32 2 0
BITMAP
F00000
F00000
F00000
F00000
F00000
F00000
F00000
FFF000
FFFE00
FFFF80
FFFFC0
F007E0
F001E0
F001E0
F000F0
F000F0
F000F0
F000F0
F001E0
F003E0
F00FC0
FFFFC0
FFFF80
FFFE00
F00000
F00000
F00000
F00000
F00000
F00000
F00000
F00000
ENDCHAR
STARTCHAR 00DF
ENCODING 223
SWIDTH 480 0
DWIDTH 24 0
BBX 20 44 2 -11
BITMAP
01E000
0FFC00
1FFE00
3FFF00
3E1F80
780780
780780
7003C0
F003C0
F003C0
F003C0
F003C0
F00780
F00F80
F03F00
F03F00
F03F80
F03FC0
F007C0
F001E0
F001E0
F000F0
F000F0
F000F0
F000F0
F000F0
F000F0
F001E0
F003E0
F10FC0
F1FF80
F3FF00
F3FE00
F00000
F00000
F00000
F00000
F00000
F00000
F00000
F00000
F00000
300000
100000
ENDCHAR
STARTCHAR 00E0
ENCODING 224
SWIDTH 400 0
DWIDTH 20 0
BBX 16 32 2 0
BITMAP
1F00
0F00
0780
0380
01C0
00C0
0060
0000
0000
01C0
0FF8
1FFC
1FFE
0C1E
000F
000F
000F
000F
03CF
0FFF
1FFF
3FFF
7C0F
780F
F00F
F00F
700F
781F
7E3F
3FFF
1FFF
0FFF
ENDCHAR
STARTCHAR 00E1
ENCODING 225
SWIDTH 400 0
DWIDTH 20 0
BBX 16 32 2 0
BITMAP
0078
00F0
00E0
01C0
0180
0300
0200
0000
0000
01C0
0FF8
1FFC
1FFE
0C1E
000F
000F
000F
000F
03CF
0FFF
1FFF
3FFF
7C0F
780F
F00F
F00F
700F
781F
7E3F
3FFF
1FFF
0FFF
ENDCHAR
STARTCHAR 00E2
ENCODING 226
SWIDTH 400 0
DWIDTH 20 0
BBX 16 32 2 0
BITMAP
07E0
07E0
0F70
0E30
1C18
1808
3004
0000
0000
01C0
0FF8
1FFC
1FFE
0C1E
000F
000F
000F
000F
03CF
0FFF
1FFF
3FFF
7C0F
780F
F00F
F00F
700F
781F
7E3F
3FFF
1FFF
0FFF
ENDCHAR
STARTCHAR 00E3
ENCODING 227
SWIDTH 400 0
DWIDTH 20 0
BBX 17 32 2 0
BITMAP
080000
3F0180
7FC180
73F380
E0FF00
E03F00
000000
000000
000000
01C000
0FF800
1FFC00
1FFE00
0C1E00
000F00
000F00
000F00
000F00
03CF00
0FFF00
1FFF00
3FFF00
7C0F00
780F00
F00F00
F00F00
700F00
781F00
7E3F00
3FFF00
1FFF00
0FFF00
ENDCHAR
STARTCHAR 00E4
ENCODING 228
SWIDTH 400 0
DWIDTH 20 0
BBX 16 31 2 0
BITMAP
3C3C
7E3E
7E3E
3C3E
3C1C
0000
0000
0000
01C0
0FF8
1FFC
1FFE
0C1E
000F
000F
000F
000F
03CF
0FFF
1FFF
3FFF
7C0F
780F
F00F
F00F
700F
781F
7E3F
3FFF
1FFF
0FFF
ENDCHAR
STARTCHAR 00E5
ENCODING 229
SWIDTH 400 0
DWIDTH 20 0
BBX 16 33 2 0
BITMAP
01C0
03F0
07F8
0638
0E18
0638
07F0
03F0
00C0
0000
01C0
0FF8
1FFC
1FFE
0C1E
000F
000F
000F
000F
03CF
0FFF
1FFF
3FFF
7C0F
780F
F00F
F00F
700F
781F
7E3F
3FFF
1FFF
0FFF
ENDCHAR
STARTCHAR 00E6
ENCODING 230
SWIDTH 720 0
DWIDTH 36 0
BBX 32 23 2 0
BITMAP
01C01F80
0FF87FE0
1FFCFFF0
1FFFFFF8
0C1FE07C
000FC03C
000F801E
000F801E
000F000E
03CFFFFF
0FFFFFFF
1FFFFFFF
3FFF0000
7C0F0000
780F0000
F00F8010
F00F8018
700FC03C
781FE07C
7C3FF0F8
3FFDFFF0
1FF8FFE0
0FF03FC0
ENDCHAR
STARTCHAR 00E7
ENCODING 231
SWIDTH 460 0
DWIDTH 23 0
BBX 19 33 2 -10
BITMAP
01F800
07FE00
0FFF00
1FFF80
1F07C0
3C03C0
7C01C0
780180
780000
700000
F00000
F00000
F00000
700000
700000
780000
780180
3C03E0
3E03C0
1F8FC0
0FFF80
07FF00
03FC00
006000
00F000
00FC00
00FE00
000E00
000600
000600
021E00
03FC00
03F800
ENDCHAR
STARTCHAR 00E8
ENCODING 232
SWIDTH 480 0
DWIDTH 24 0
BBX 20 32 2 0
BITMAP
07C000
03C000
01E000
00E000
007000
003000
001800
000000
000000
01F800
07FE00
0FFF00
1FFF80
1F07C0
3C03C0
7C01E0
7801E0
7800F0
7FFFF0
FFFFF0
FFFFF0
F00000
700000
700000
780000
780180
3C03E0
3E03C0
1F8FC0
0FFF80
07FF00
03FC00
ENDCHAR
STARTCHAR 00E9
ENCODING 233
SWIDTH 480 0
DWIDTH 24 0
BBX 20 32 2 0
BITMAP
001E00
003C00
003800
007000
006000
00C000
008000
000000
000000
01F800
07FE00
0FFF00
1FFF80
1F07C0
3C03C0
7C01E0
7801E0
7800F0
7FFFF0
FFFFF0
FFFFF0
F00000
700000
700000
780000
780180
3C03E0
3E03C0
1F8FC0
0FFF80
07FF00
03FC00
ENDCHAR
STARTCHAR 00EA
ENCODING 234
SWIDTH 480 0
DWIDTH 24 0
BBX 20 32 2 0
BITMAP
01F800
01F800
03DC00
038E00
070600
060300
0C0100
000000
000000
01F800
07FE00
0FFF00
1FFF80
1F07C0
3C03C0
7C01E0
7801E0
7800F0
7FFFF0
FFFFF0
FFFFF0
F00000
700000
700000
780000
780180
3C03E0
3E03C0
1F8FC0
0FFF80
07FF00
03FC00
ENDCHAR
STARTCHAR 00EB
ENCODING 235
SWIDTH 480 0
DWIDTH 24 0
BBX 20 31 2 0
BITMAP
0F0F00
0F8F80
1F8F80
0F8F80
0F0700
000000
000000
000000
01F800
07FE00
0FFF00
1FFF80
1F07C0
3C03C0
7C01E0
7801E0
7800F0
7FFFF0
FFFFF0
FFFFF0
F00000
700000
700000
780000
780180
3C03E0
3E03C0
1F8FC0
0FFF80
07FF00
03FC00
ENDCHAR
STARTCHAR 00EC
ENCODING 236
SWIDTH 160 0
DWIDTH 8 0
BBX 8 32 -1 0
BITMAP
F8
78
3C
1C
0E
06
03
00
00
00
1E
1E
1E
1E
1E
1E
1E
1E
1E
1E
1E
1E
1E
1E
1E
1E
1E
1E
1E
1E
1E
1E
ENDCHAR
STARTCHAR 00ED
ENCODING 237
SWIDTH 160 0
DWIDTH 8 0
BBX 7 32 2 0
BITMAP
1E
3C
38
70
60
C0
80
00
00
00
F0
F0
F0
F0
F0
F0
F0
F0
F0
F0
F0
F0
F0
F0
F0
F0
F0
F0
F0
F0
F0
F0
ENDCHAR
STARTCHAR 00EE
ENCODING 238
SWIDTH 160 0
DWIDTH 8 0
BBX 12 32 -2 0
BITMAP
0F80
1FC0
3DC0
38E0
7060
6030
C010
0000
0000
0000
0F00
0F00
0F00
0F00
0F00
0F00
0F00
0F00
0F00
0F00
0F00
0F00
0F00
0F00
0F00
0F00
0F00
0F00
0F00
0F00
0F00
0F00
ENDCHAR
STARTCHAR 00EF
ENCODING 239
SWIDTH 160 0
DWIDTH 8 0
BBX 14 31 -3 0
BITMAP
7838
7C7C
FC7C
7C7C
7838
0000
0000
0000
0000
0780
0780
0780
0780
0780
0780
0780
0780
0780
0780
0780
0780
0780
0780
0780
0780
0780
0780
0780
0780
0780
0780
ENDCHAR
STARTCHAR 00F0
ENCODING 240
SWIDTH 500 0
DWIDTH 25 0
BBX 22 33 2 0
BITMAP
007800
07FE38
07FFF8
03FFFC
0007F0
001FE0
003FE0
003FE0
0018F0
0010F0
01F870
07FE78
0FFF78
1FFFF8
1F07F8
3C03F8
7C01F8
7801F8
7800F8
7000F8
F000F8
F000F8
F000F0
7000F0
7000F0
7800F0
7801E0
3C03E0
3E03C0
1F8FC0
0FFF80
07FF00
03FE00
ENDCHAR
STARTCHAR 00F1
ENCODING 241
SWIDTH 480 0
DWIDTH 24 0
BBX 20 32 2 0
BITMAP
020000
1F8060
3FE0E0
39F9C0
307FC0
301F80
000000
000000
000000
00FC00
F3FF00
F7FF80
FFFFC0
FF03C0
FE01E0
FC01E0
F800E0
F800F0
F000F0
F000F0
F000F0
F000F0
F000F0
F000F0
F000F0
F000F0
F000F0
F000F0
F000F0
F000F0
F000F0
F000F0
ENDCHAR
STARTCHAR 00F2
ENCODING 242
SWIDTH 480 0
DWIDTH 24 0
BBX 20 32 2 0
BITMAP
07C000
03C000
01E000
00E000
007000
003000
001800
000000
000000
01F800
07FE00
0FFF00
1FFF80
1F07C0
3C03C0
7C01E0
7801E0
7800F0
7000F0
F000F0
F000F0
F000F0
7000F0
7000F0
7800E0
7801E0
3C03E0
3E03C0
1F8FC0
0FFF80
07FF00
03FC00
ENDCHAR
STARTCHAR 00F3
ENCODING 243
SWIDTH 480 0
DWIDTH 24 0
BBX 20 32 2 0
BITMAP
001E00
003C00
003800
007000
006000
00C000
008000
000000
000000
01F800
07FE00
0FFF00
1FFF80
1F07C0
3C03C0
7C01E0
7801E0
7800F0
7000F0
F000F0
F000F0
F000F0
7000F0
7000F0
7800E0
7801E0
3C03E0
3E03C0
1F8FC0
0FFF80
07FF00
03FC00
ENDCHAR
STARTCHAR 00F4
ENCODING 244
SWIDTH 480 0
DWIDTH 24 0
BBX 20 32 2 0
BITMAP
01F800
01F800
03DC00
038E00
070600
060300
0C0100
000000
000000
01F800
07FE00
0FFF00
1FFF80
1F07C0
3C03C0
7C01E0
7801E0
7800F0
7000F0
F000F0
F000F0
F000F0
7000F0
7000F0
7800E0
7801E0
3C03E0
3E03C0
1F8FC0
0FFF80
07FF00
03FC00
ENDCHAR
STARTCHAR 00F5
ENCODING 245
SWIDTH 480 0
DWIDTH 24 0
BBX 20 32 2 0
BITMAP
020000
1F8060
3FE0E0
39F9C0
307FC0
301F80
000000
000000
000000
01F800
07FE00
0FFF00
1FFF80
1F07C0
3C03C0
7C01E0
7801E0
7800F0
7000F0
F000F0
F000F0
F000F0
7000F0
7000F0
7800E0
7801E0
3C03E0
3E03C0
1F8FC0
0FFF80
07FF00
03FC00
ENDCHAR
STARTCHAR 00F6
ENCODING 246
SWIDTH 480 0
DWIDTH 24 0
BBX 20 31 2 0
BITMAP
0F0F00
0F8F80
1F8F80
0F8F80
0F0700
000000
000000
000000
01F800
07FE00
0FFF00
1FFF80
1F07C0
3C03C0
7C01E0
7801E0
7800F0
7000F0
F000F0
F000F0
F000F0
7000F0
7000F0
7800E0
7801E0
3C03E0
3E03C0
1F8FC0
0FFF80
07FF00
03FC00
ENDCHAR
STARTCHAR 00F7
ENCODING 247
SWIDTH 520 0
DWIDTH 26 0
BBX 22 20 2 6
BITMAP
003800
007C00
007C00
007C00
003C00
000000
000000
000000
FFFFFC
FFFFFC
FFFFFC
FFFFFC
000000
000000
000000
003C00
007C00
007C00
007C00
003800
ENDCHAR
STARTCHAR 00F8
ENCODING 248
SWIDTH 480 0
DWIDTH 24 0
BBX 21 28 2 -3
BITMAP
000060
000078
01F8F0
07FFF0
0FFFE0
1FFFC0
1F07C0
3C0FC0
7C0FE0
781FE0
783EF0
703CF0
F078F0
F0F8F0
F1F0F0
71E0F0
73E0F0
7FC0E0
7F81E0
3F03E0
3F03C0
1F0FC0
3FFF80
7FFF00
FBFC00
F00000
F00000
200000
ENDCHAR
STARTCHAR 00F9
ENCODING 249
SWIDTH 480 0
DWIDTH 24 0
BBX 20 32 2 0
BITMAP
07C000
03C000
01E000
00E000
007000
003000
001800
000000
000000
000000
F000F0
F000F0
F000F0
F000F0
F000F0
F000F0
F000F0
F000F0
F000F0
F000F0
F000F0
F000F0
F000F0
7000F0
7801F0
7801F0
7803F0
3C07F0
3F1FF0
1FFFF0
0FFEF0
07F8F0
ENDCHAR
STARTCHAR 00FA
ENCODING 250
SWIDTH 480 0
DWIDTH 24 0
BBX 20 32 2 0
BITMAP
001E00
003C00
003800
007000
006000
00C000
008000
000000
000000
000000
F000F0
F000F0
F000F0
F000F0
F000F0
F000F0
F000F0
F000F0
F000F0
F000F0
F000F0
F000F0
F000F0
7000F0
7801F0
7801F0
7803F0
3C07F0
3F1FF0
1FFFF0
0FFEF0
07F8F0
ENDCHAR
STARTCHAR 00FB
ENCODING 251
SWIDTH 480 0
DWIDTH 24 0
BBX 20 32 2 0
BITMAP
01F800
01F800
03DC00
038E00
070600
060300
0C0100
000000
000000
000000
F000F0
F000F0
F000F0
F000F0
F000F0
F000F0
F000F0
F000F0
F000F0
F000F0
F000F0
F000F0
F000F0
7000F0
7801F0
7801F0
7803F0
3C07F0
3F1FF0
1FFFF0
0FFEF0
07F8F0
ENDCHAR
STARTCHAR 00FC
ENCODING 252
SWIDTH 480 0
DWIDTH 24 0
BBX 20 31 2 0
BITMAP
0F0F00
0F8F80
1F8F80
0F8F80
0F0700
000000
000000
000000
000000
F000F0
F000F0
F000F0
F000F0
F000F0
F000F0
F000F0
F000F0
F000F0
F000F0
F000F0
F000F0
F000F0
7000F0
7801F0
7801F0
7803F0
3C07F0
3F1FF0
1FFFF0
0FFEF0
07F8F0
ENDCHAR
STARTCHAR 00FD
ENCODING 253
SWIDTH 500 0
DWIDTH 25 0
BBX 19 42 3 -10
BITMAP
003E00
003C00
007000
006000
00C000
008000
010000
000000
000000
000000
F001E0
F001E0
7001E0
7803C0
7803C0
3C03C0
3C0780
3C0780
1E0F00
1E0F00
1E0F00
0F1E00
0F1E00
071E00
07BC00
07BC00
03FC00
03F800
03F800
01F000
01F000
01F000
01E000
01E000
01E000
03C000
03C000
07C000
3F8000
7F0000
7F0000
7C0000
ENDCHAR
STARTCHAR 00FE
ENCODING 254
SWIDTH 480 0
DWIDTH 24 0
BBX 20 43 2 -11
BITMAP
F00000
F00000
F00000
F00000
F00000
F00000
F00000
F00000
F00000
F1F800
F7FE00
FFFF00
FFFF80
FF07C0
FC03C0
FC01E0
F801E0
F800F0
F000F0
F000F0
F000F0
F000F0
F000F0
F000F0
F800E0
F801E0
FC03E0
FE03C0
FF8FC0
FFFF80
F7FF00
F3FC00
F00000
F00000
F00000
F00000
F00000
F00000
F00000
F00000
F00000
300000
100000
ENDCHAR
STARTCHAR 00FF
ENCODING 255
SWIDTH 500 0
DWIDTH 25 0
BBX 19 41 3 -10
BITMAP
0F0F00
1F1F80
1F1F80
1F0F80
0E0F00
000000
000000
000000
000000
F001E0
F001E0
7001E0
7803C0
7803C0
3C03C0
3C0780
3C0780
1E0F00
1E0F00
1E0F00
0F1E00
0F1E00
071E00
07BC00
07BC00
03FC00
03F800
03F800
01F000
01F000
01F000
01E000
01E000
01E000
03C000
03C000
07C000
3F8000
7F0000
7F0000
7C0000
ENDCHAR
STARTCHAR 0100
ENCODING 256
SWIDTH 640 0
DWIDTH 32 0
BBX 27 40 3 0
BITMAP
01FFE000
01FFE000
01FFE000
01FFE000
00000000
00000000
00000000
00000000
001E0000
001F0000
003F0000
003F0000
007F8000
007F8000
007BC000
00F3C000
00F3C000
00F1E000
01E1E000
01E1E000
01C0F000
03C0F000
03C07000
07807800
07FFF800
07FFFC00
0FFFFC00
0FFFFC00
0F001E00
1E001E00
1E001E00
1C000F00
3C000F00
3C000700
78000780
78000780
780003C0
F00003C0
F00003C0
F00001E0
ENDCHAR
STARTCHAR 0101
ENCODING 257
SWIDTH 400 0
DWIDTH 20 0
BBX 16 30 2 0
BITMAP
1FFE
1FFE
1FFE
1FFE
0000
0000
0000
01C0
0FF8
1FFC
1FFE
0C1E
000F
000F
000F
000F
03CF
0FFF
1FFF
3FFF
7C0F
780F
F00F
F00F
700F
781F
7E3F
3FFF
1FFF
0FFF
ENDCHAR
STARTCHAR 0102
ENCODING 258
SWIDTH 640 0
DWIDTH 32 0
BBX 27 42 3 0
BITMAP
03807000
03807000
01C0F000
01E1E000
00FFC000
007F8000
001E0000
00000000
00000000
00000000
001E0000
001F0000
003F0000
003F0000
007F8000
007F8000
007BC000
00F3C000
00F3C000
00F1E000
01E1E000
01E1E000
01C0F000
03C0F000
03C07000
07807800
07FFF800
07FFFC00
0FFFFC00
0FFFFC00
0F001E00
1E001E00
1E001E00
1C000F00
3C000F00
3C000700
78000780
78000780
780003C0
F00003C0
F00003C0
F00001E0
ENDCHAR
STARTCHAR 0103
ENCODING 259
SWIDTH 400 0
DWIDTH 20 0
BBX 16 32 2 0
BITMAP
700E
780E
381C
3E7C
1FF8
0FF0
0180
0000
0000
01C0
0FF8
1FFC
1FFE
0C1E
000F
000F
000F
000F
03CF
0FFF
1FFF
3FFF
7C0F
780F
F00F
F00F
700F
781F
7E3F
3FFF
1FFF
0FFF
ENDCHAR
STARTCHAR 0104
ENCODING 260
SWIDTH 640 0
DWIDTH 32 0
BBX 31 41 3 -9
BITMAP
001E0000
001F0000
003F0000
003F0000
007F8000
007F8000
007BC000
00F3C000
00F3C000
00F1E000
01E1E000
01E1E000
01C0F000
03C0F000
03C07000
07807800
07FFF800
07FFFC00
0FFFFC00
0FFFFC00
0F001E00
1E001E00
1E001E00
1C000F00
3C000F00
3C000700
78000780
78000780
780003C0
F00003C0
F00003C0
F00001E0
00000300
00000700
00000700
00000700
00000780
000007C0
000003FA
000001FE
000000F8
ENDCHAR
STARTCHAR 0105
ENCODING 261
SWIDTH 400 0
DWIDTH 20 0
BBX 21 32 2 -9
BITMAP
01C000
0FF800
1FFC00
1FFE00
0C1E00
000F00
000F00
000F00
000F00
03CF00
0FFF00
1FFF00
3FFF00
7C0F00
780F00
F00F00
F00F00
700F00
781F00
7E3F00
3FFF00
1FFF00
0FFF00
000C00
001C00
001C00
001C00
001E00
001F00
000FE8
0007F8
0003E0
ENDCHAR
STARTCHAR 0106
ENCODING 262
SWIDTH 580 0
DWIDTH 29 0
BBX 25 42 2 0
BITMAP
0007C000
00078000
000F0000
000E0000
001C0000
00180000
00300000
00000000
00000000
000F0000
007FE000
01FFF800
03FFFC00
07E07E00
0F801F00
1F000F00
1E000780
3C000700
3C000000
78000000
78000000
78000000
70000000
70000000
F0000000
F0000000
F0000000
F0000000
70000000
70000000
78000000
78000000
78000000
3C000200
3E000700
1E000F80
1F001F00
0F803E00
07F0FE00
03FFFC00
01FFF000
007FE000
ENDCHAR
STARTCHAR 0107
ENCODING 263
SWIDTH 460 0
DWIDTH 23 0
BBX 19 32 2 0
BITMAP
003E00
003C00
007800
007000
00E000
008000
010000
000000
000000
01F800
07FE00
0FFF00
1FFF80
1F07C0
3C03C0
7C01C0
780180
780000
700000
F00000
F00000
F00000
700000
700000
780000
780180
3C03E0
3E03C0
1F8FC0
0FFF80
07FF00
03FC00
ENDCHAR
STARTCHAR 0108
ENCODING 264
SWIDTH 580 0
DWIDTH 29 0
BBX 25 42 2 0
BITMAP
003E0000
003F0000
007F0000
00738000
00E1C000
00C0C000
01806000
00000000
00000000
000F0000
007FE000
01FFF800
03FFFC00
07E07E00
0F801F00
1F000F00
1E000780
3C000700
3C000000
78000000
78000000
78000000
70000000
70000000
F0000000
F0000000
F0000000
F0000000
70000000
70000000
78000000
78000000
78000000
3C000200
3E000700
1E000F80
1F001F00
0F803E00
07F0FE00
03FFFC00
01FFF000
007FE000
ENDCHAR
STARTCHAR 0109
ENCODING 265
SWIDTH 460 0
DWIDTH 23 0
BBX 19 32 2 0
BITMAP
01F000
03F800
03B800
071C00
060C00
0C0600
080200
000000
000000
01F800
07FE00
0FFF00
1FFF80
1F07C0
3C03C0
7C01C0
780180
780000
700000
F00000
F00000
F00000
700000
700000
780000
780180
3C03E0
3E03C0
1F8FC0
0FFF80
07FF00
03FC00
ENDCHAR
STARTCHAR 010A
ENCODING 266
SWIDTH 580 0
DWIDTH 29 0
BBX 25 41 2 0
BITMAP
001C0000
003E0000
003E0000
003E0000
001E0000
00000000
00000000
00000000
000F0000
007FE000
01FFF800
03FFFC00
07E07E00
0F801F00
1F000F00
1E000780
3C000700
3C000000
78000000
78000000
78000000
70000000
70000000
F0000000
F0000000
F0000000
F0000000
70000000
70000000
78000000
78000000
78000000
3C000200
3E000700
1E000F80
1F001F00
0F803E00
07F0FE00
03FFFC00
01FFF000
007FE000
ENDCHAR
STARTCHAR 010B
ENCODING 267
SWIDTH 460 0
DWIDTH 23 0
BBX 19 31 2 0
BITMAP
00F000
01F000
01F000
01F000
00E000
000000
000000
000000
01F800
07FE00
0FFF00
1FFF80
1F07C0
3C03C0
7C01C0
780180
780000
700000
F00000
F00000
F00000
700000
700000
780000
780180
3C03E0
3E03C0
1F8FC0
0FFF80
07FF00
03FC00
ENDCHAR
STARTCHAR 010C
ENCODING 268
SWIDTH 580 0
DWIDTH 29 0
BBX 25 42 2 0
BITMAP
01006000
0180C000
00C1C000
00E38000
00778000
007F0000
003F0000
00000000
00000000
000F0000
007FE000
01FFF800
03FFFC00
07E07E00
0F801F00
1F000F00
1E000780
3C000700
3C000000
78000000
78000000
78000000
70000000
70000000
F0000000
F0000000
F0000000
F0000000
70000000
70000000
78000000
78000000
78000000
3C000200
3E000700
1E000F80
1F001F00
0F803E00
07F0FE00
03FFFC00
01FFF000
007FE000
ENDCHAR
STARTCHAR 010D
ENCODING 269
SWIDTH 460 0
DWIDTH 23 0
BBX 19 32 2 0
BITMAP
080200
0C0600
060C00
071C00
03B800
03F800
01F000
000000
000000
01F800
07FE00
0FFF00
1FFF80
1F07C0
3C03C0
7C01C0
780180
780000
700000
F00000
F00000
F00000
700000
700000
780000
780180
3C03E0
3E03C0
1F8FC0
0FFF80
07FF00
03FC00
ENDCHAR
STARTCHAR 010E
ENCODING 270
SWIDTH 620 0
DWIDTH 31 0
BBX 27 42 2 0
BITMAP
00803000
00C06000
0060E000
0031C000
003BC000
001F8000
001F8000
00000000
00000000
00000000
FFFFC000
FFFFF000
FFFFF800
0F03FC00
0F007E00
0F001F00
0F000F80
0F000780
0F0003C0
0F0003C0
0F0001E0
0F0001E0
0F0001E0
0F0001E0
0F0000E0
0F0000E0
0F0000E0
0F0000E0
0F0001E0
0F0001E0
0F0001E0
0F0001C0
0F0003C0
0F0007C0
0F000780
0F000F80
0F001F00
0F007E00
FFFFFC00
FFFFF800
FFFFF000
FFFF8000
ENDCHAR
STARTCHAR 010F
ENCODING 271
SWIDTH 640 0
DWIDTH 32 0
BBX 29 33 2 0
BITMAP
00000080
0000F3E0
0000F3F0
0000F3F0
0000F3F0
0000F0F8
0000F030
0000F030
0000F030
0000F060
01F8F040
07FEF180
0FFFF700
1FFFF000
1F07F000
3C03F000
7C01F000
7801F000
7800F000
7000F000
F000F000
F000F000
F000F000
7000F000
7000F000
7800F000
7801F000
3C03F000
3E03F000
1F8FF000
0FFFF000
07FFF000
03FCF000
ENDCHAR
STARTCHAR 0110
ENCODING 272
SWIDTH 620 0
DWIDTH 31 0
BBX 27 32 2 0
BITMAP
FFFFC000
FFFFF000
FFFFF800
0F03FC00
0F003E00
0F000F00
0F000780
0F000380
0F0003C0
0F0001C0
0F0001E0
0F0000E0
0F0000E0
0F0000E0
FFFE00E0
FFFE00E0
FFFE00E0
FFFE00E0
0F0000E0
0F0000E0
0F0000E0
0F0001C0
0F0001C0
0F0003C0
0F000780
0F000780
0F001F00
0F003E00
FFFFFC00
FFFFF800
FFFFF000
FFFF8000
ENDCHAR
STARTCHAR 0111
ENCODING 273
SWIDTH 480 0
DWIDTH 24 0
BBX 24 32 2 0
BITMAP
0000F0
0000F0
0000F0
001FFF
001FFF
001FFF
001FFF
0000F0
0000F0
01F8F0
07FEF0
0FFFF0
1FFFF0
1F07F0
3C03F0
7C01F0
7801F0
7800F0
7000F0
F000F0
F000F0
F000F0
7000F0
7000F0
7800F0
7801F0
3C03F0
3E03F0
1F8FF0
0FFFF0
07FFF0
03FCF0
ENDCHAR
STARTCHAR 0112
ENCODING 274
SWIDTH 500 0
DWIDTH 25 0
BBX 21 40 2 0
BITMAP
07FF80
07FF80
07FF80
07FF80
000000
000000
000000
000000
FFFFF8
FFFFF8
FFFFF8
F00000
F00000
F00000
F00000
F00000
F00000
F00000
F00000
F00000
F00000
F00000
FFFFC0
FFFFC0
FFFFC0
FFFFC0
F00000
F00000
F00000
F00000
F00000
F00000
F00000
F00000
F00000
F00000
FFFFF8
FFFFF8
FFFFF8
FFFFF8
ENDCHAR
STARTCHAR 0113
ENCODING 275
SWIDTH 480 0
DWIDTH 24 0
BBX 20 30 2 0
BITMAP
0FFF00
0FFF00
0FFF00
0FFF00
000000
000000
000000
01F800
07FE00
0FFF00
1FFF80
1F07C0
3C03C0
7C01E0
7801E0
7800F0
7FFFF0
FFFFF0
FFFFF0
F00000
700000
700000
780000
780180
3C03E0
3E03C0
1F8FC0
0FFF80
07FF00
03FC00
ENDCHAR
STARTCHAR 0114
ENCODING 276
SWIDTH 500 0
DWIDTH 25 0
BBX 21 42 2 0
BITMAP
0E01C0
0E0380
0F0380
078780
03FF00
01FE00
007800
000000
000000
000000
FFFFF8
FFFFF8
FFFFF8
F00000
F00000
F00000
F00000
F00000
F00000
F00000
F00000
F00000
F00000
F00000
FFFFC0
FFFFC0
FFFFC0
FFFFC0
F00000
F00000
F00000
F00000
F00000
F00000
F00000
F00000
F00000
F00000
FFFFF8
FFFFF8
FFFFF8
FFFFF8
ENDCHAR
STARTCHAR 0115
ENCODING 277
SWIDTH 480 0
DWIDTH 24 0
BBX 20 32 2 0
BITMAP
1C0380
0E0380
0E0780
0F9F00
07FE00
03FC00
007000
000000
000000
01F800
07FE00
0FFF00
1FFF80
1F07C0
3C03C0
7C01E0
7801E0
7800F0
7FFFF0
FFFFF0
FFFFF0
F00000
700000
700000
780000
780180
3C03E0
3E03C0
1F8FC0
0FFF80
07FF00
03FC00
ENDCHAR
STARTCHAR 0116
ENCODING 278
SWIDTH 500 0
DWIDTH 25 0
BBX 21 41 2 0
BITMAP
007000
00F800
00F800
00F800
007800
000000
000000
000000
000000
FFFFF8
FFFFF8
FFFFF8
F00000
F00000
F00000
F00000
F00000
F00000
F00000
F00000
F00000
F00000
F00000
FFFFC0
FFFFC0
FFFFC0
FFFFC0
F00000
F00000
F00000
F00000
F00000
F00000
F00000
F00000
F00000
F00000
FFFFF8
FFFFF8
FFFFF8
FFFFF8
ENDCHAR
STARTCHAR 0117
ENCODING 279
SWIDTH 480 0
DWIDTH 24 0
BBX 20 31 2 0
BITMAP
00F000
00F800
00F800
00F800
00F000
000000
000000
000000
01F800
07FE00
0FFF00
1FFF80
1F07C0
3C03C0
7C01E0
7801E0
7800F0
7FFFF0
FFFFF0
FFFFF0
F00000
700000
700000
780000
780180
3C03E0
3E03C0
1F8FC0
0FFF80
07FF00
03FC00
ENDCHAR
STARTCHAR 0118
ENCODING 280
SWIDTH 500 0
DWIDTH 25 0
BBX 23 41 2 -9
BITMAP
FFFFF8
FFFFF8
FFFFF8
F00000
F00000
F00000
F00000
F00000
F00000
F00000
F00000
F00000
F00000
F00000
FFFFC0
FFFFC0
FFFFC0
FFFFC0
F00000
F00000
F00000
F00000
F00000
F00000
F00000
F00000
F00000
F00000
FFFFF8
FFFFF8
FFFFF8
FFFFF8
000200
000600
000600
000700
000700
000780
0003F2
0001FC
0000F8
ENDCHAR
STARTCHAR 0119
ENCODING 281
SWIDTH 480 0
DWIDTH 24 0
BBX 20 32 2 -9
BITMAP
01F800
07FE00
0FFF00
1FFF80
1F07C0
3C03C0
7C01E0
7801E0
7800F0
7FFFF0
FFFFF0
FFFFF0
F00000
700000
700000
780000
780180
3C03E0
3E03C0
1F8FC0
0FFF80
07FF00
03FC00
006000
006000
006000
007000
007000
007800
003F20
003FC0
000F80
ENDCHAR
STARTCHAR 011A
ENCODING 282
SWIDTH 500 0
DWIDTH 25 0
BBX 21 42 2 0
BITMAP
040180
060300
030700
038E00
01DE00
01FC00
00FC00
000000
000000
000000
FFFFF8
FFFFF8
FFFFF8
F00000
F00000
F00000
F00000
F00000
F00000
F00000
F00000
F00000
F00000
F00000
FFFFC0
FFFFC0
FFFFC0
FFFFC0
F00000
F00000
F00000
F00000
F00000
F00000
F00000
F00000
F00000
F00000
FFFFF8
FFFFF8
FFFFF8
FFFFF8
ENDCHAR
STARTCHAR 011B
ENCODING 283
SWIDTH 480 0
DWIDTH 24 0
BBX 20 32 2 0
BITMAP
0C0100
060300
070600
039C00
03FC00
01F800
00F800
000000
000000
01F800
07FE00
0FFF00
1FFF80
1F07C0
3C03C0
7C01E0
7801E0
7800F0
7FFFF0
FFFFF0
FFFFF0
F00000
700000
700000
780000
780180
3C03E0
3E03C0
1F8FC0
0FFF80
07FF00
03FC00
ENDCHAR
STARTCHAR 011C
ENCODING 284
SWIDTH 580 0
DWIDTH 29 0
BBX 25 42 2 0
BITMAP
003E0000
003F0000
007F0000
00738000
00E1C000
00C0C000
01806000
00000000
00000000
000F0000
007FE000
01FFF800
03FFFC00
07E07E00
0F801F00
1F000F00
1E000780
3C000700
3C000000
78000000
78000000
78000000
70000000
70000000
F0000000
F007FF80
F007FF80
F007FF80
7007FF80
70000780
78000780
78000780
78000780
3C000780
3E000780
1E000F80
1F001F00
0F803E00
07F0FE00
03FFFC00
01FFF000
007FE000
ENDCHAR
STARTCHAR 011D
ENCODING 285
SWIDTH 500 0
DWIDTH 25 0
BBX 23 42 2 -10
BITMAP
01F800
01F800
03FC00
038C00
070600
060200
0C0100
000000
000000
01F808
07FF1E
1FFFBE
3FFFFC
3E03F8
7801F0
7800F0
7000F0
F000F0
F000F0
7800F0
7801E0
7C03E0
3FFFC0
3FFF80
3FFF00
7BFC00
780000
780000
3F0000
3FFC00
0FFF80
01FFE0
0007E0
0001F0
0000F0
F000F0
7800F0
7C01E0
3F9FE0
3FFFC0
0FFF80
03FE00
ENDCHAR
STARTCHAR 011E
ENCODING 286
SWIDTH 580 0
DWIDTH 29 0
BBX 25 42 2 0
BITMAP
03807000
0380E000
03C0E000
01E1E000
00FFC000
007F8000
001E0000
00000000
00000000
000F0000
007FE000
01FFF800
03FFFC00
07E07E00
0F801F00
1F000F00
1E000780
3C000700
3C000000
78000000
78000000
78000000
70000000
70000000
F0000000
F007FF80
F007FF80
F007FF80
7007FF80
70000780
78000780
78000780
78000780
3C000780
3E000780
1E000F80
1F001F00
0F803E00
07F0FE00
03FFFC00
01FFF000
007FE000
ENDCHAR
STARTCHAR 011F
ENCODING 287
SWIDTH 500 0
DWIDTH 25 0
BBX 23 42 2 -10
BITMAP
1C0380
1C0380
0E0700
0F9F00
07FE00
03FC00
006000
000000
000000
01F808
07FF1E
1FFFBE
3FFFFC
3E03F8
7801F0
7800F0
7000F0
F000F0
F000F0
7800F0
7801E0
7C03E0
3FFFC0
3FFF80
3FFF00
7BFC00
780000
780000
3F0000
3FFC00
0FFF80
01FFE0
0007E0
0001F0
0000F0
F000F0
7800F0
7C01E0
3F9FE0
3FFFC0
0FFF80
03FE00
ENDCHAR
STARTCHAR 0120
ENCODING 288
SWIDTH 580 0
DWIDTH 29 0
BBX 25 41 2 0
BITMAP
001C0000
003E0000
003E0000
003E0000
001E0000
00000000
00000000
00000000
000F0000
007FE000
01FFF800
03FFFC00
07E07E00
0F801F00
1F000F00
1E000780
3C000700
3C000000
78000000
78000000
78000000
70000000
70000000
F0000000
F007FF80
F007FF80
F007FF80
7007FF80
70000780
78000780
78000780
78000780
3C000780
3E000780
1E000F80
1F001F00
0F803E00
07F0FE00
03FFFC00
01FFF000
007FE000
ENDCHAR
STARTCHAR 0121
ENCODING 289
SWIDTH 500 0
DWIDTH 25 0
BBX 23 41 2 -10
BITMAP
00F000
00F800
01F800
00F800
00F000
000000
000000
000000
01F808
07FF1E
1FFFBE
3FFFFC
3E03F8
7801F0
7800F0
7000F0
F000F0
F000F0
7800F0
7801E0
7C03E0
3FFFC0
3FFF80
3FFF00
7BFC00
780000
780000
3F0000
3FFC00
0FFF80
01FFE0
0007E0
0001F0
0000F0
F000F0
7800F0
7C01E0
3F9FE0
3FFFC0
0FFF80
03FE00
ENDCHAR
STARTCHAR 0122
ENCODING 290
SWIDTH 580 0
DWIDTH 29 0
BBX 25 43 2 -10
BITMAP
000F0000
007FE000
01FFF800
03FFFC00
07E07E00
0F801F00
1F000F00
1E000780
3C000700
3C000000
78000000
78000000
78000000
70000000
70000000
F0000000
F007FF80
F007FF80
F007FF80
7007FF80
70000780
78000780
78000780
78000780
3C000780
3E000780
1E000F80
0F001F00
0F803E00
07F0FE00
03FFFC00
01FFF000
007FE000
000E0000
000E0000
001F8000
001FC000
0000E000
0000E000
0000E000
0023C000
007F8000
007F0000
ENDCHAR
STARTCHAR 0123
ENCODING 291
SWIDTH 500 0
DWIDTH 25 0
BBX 23 45 2 -10
BITMAP
00FE00
01FE00
03C600
070000
070000
070000
03E800
01F800
007000
007000
007000
000000
01F808
07FF1E
1FFFBE
3FFFFC
3E03F8
7801F0
7800F0
7000F0
F000F0
F000F0
7800F0
7801E0
7C03E0
3FFFC0
3FFF80
3FFF00
7BFC00
780000
780000
3F0000
3FFC00
0FFF80
01FFE0
0007E0
0001F0
0000F0
F000F0
7800F0
7C01E0
3F9FE0
3FFFC0
0FFF80
03FE00
ENDCHAR
STARTCHAR 0124
ENCODING 292
SWIDTH 500 0
DWIDTH 25 0
BBX 21 42 2 0
BITMAP
00F800
00FC00
01FC00
03CE00
038600
060300
040100
000000
000000
000000
F00078
F00078
F00078
F00078
F00078
F00078
F00078
F00078
F00078
F00078
F00078
F00078
F00078
F00078
FFFFF8
FFFFF8
FFFFF8
FFFFF8
F00078
F00078
F00078
F00078
F00078
F00078
F00078
F00078
F00078
F00078
F00078
F00078
F00078
F00078
ENDCHAR
STARTCHAR 0125
ENCODING 293
SWIDTH 480 0
DWIDTH 24 0
BBX 20 42 2 0
BITMAP
00F800
01F800
01FC00
039C00
030E00
060600
040300
080100
000000
000000
F00000
F00000
F00000
F00000
F00000
F00000
F00000
F00000
F00000
F0FC00
F3FF00
F7FF80
FFFFC0
FF03C0
FE01E0
FC01E0
F800E0
F800F0
F000F0
F000F0
F000F0
F000F0
F000F0
F000F0
F000F0
F000F0
F000F0
F000F0
F000F0
F000F0
F000F0
F000F0
ENDCHAR
STARTCHAR 0126
ENCODING 294
SWIDTH 640 0
DWIDTH 32 0
BBX 28 32 2 0
BITMAP
0F000780
0F000780
0F000780
0F000780
0F000780
FFFFFFF0
FFFFFFF0
FFFFFFF0
0F000780
0F000780
0F000780
0F000780
0F000780
0F000780
0FFFFF80
0FFFFF80
0FFFFF80
0FFFFF80
0F000780
0F000780
0F000780
0F000780
0F000780
0F000780
0F000780
0F000780
0F000780
0F000780
0F000780
0F000780
0F000780
0F000780
ENDCHAR
STARTCHAR 0127
ENCODING 295
SWIDTH 560 0
DWIDTH 28 0
BBX 24 32 2 0
BITMAP
0F0000
0F0000
0F0000
FFFFF8
FFFFF8
FFFFF8
FFFFF8
0F0000
0F0000
0F0F80
0F7FE0
0FFFF0
0FFFF8
0FF07C
0FC03C
0F801E
0F801E
0F001E
0F000E
0F000F
0F000F
0F000F
0F000F
0F000F
0F000F
0F000F
0F000F
0F000F
0F000F
0F000F
0F000F
0F000F
ENDCHAR
STARTCHAR 0128
ENCODING 296
SWIDTH 300 0
DWIDTH 15 0
BBX 17 41 -1 0
BITMAP
3F0180
7F8180
7FE380
60FF80
E07F00
E00C00
000000
000000
000000
1FFC00
1FFC00
1FFC00
01E000
01E000
01E000
01E000
01E000
01E000
01E000
01E000
01E000
01E000
01E000
01E000
01E000
01E000
01E000
01E000
01E000
01E000
01E000
01E000
01E000
01E000
01E000
01E000
01E000
1FFC00
1FFC00
1FFC00
1FFC00
ENDCHAR
STARTCHAR 0129
ENCODING 297
SWIDTH 160 0
DWIDTH 8 0
BBX 17 32 -4 0
BITMAP
080000
7E0180
7F8380
E7E700
C1FF00
C07E00
000000
000000
000000
000000
03C000
03C000
03C000
03C000
03C000
03C000
03C000
03C000
03C000
03C000
03C000
03C000
03C000
03C000
03C000
03C000
03C000
03C000
03C000
03C000
03C000
03C000
ENDCHAR
STARTCHAR 012A
ENCODING 298
SWIDTH 300 0
DWIDTH 15 0
BBX 12 40 2 0
BITMAP
FFF0
FFF0
FFF0
FFF0
0000
0000
0000
0000
FFE0
FFE0
FFE0
0F00
0F00
0F00
0F00
0F00
0F00
0F00
0F00
0F00
0F00
0F00
0F00
0F00
0F00
0F00
0F00
0F00
0F00
0F00
0F00
0F00
0F00
0F00
0F00
0F00
FFE0
FFE0
FFE0
FFE0
ENDCHAR
STARTCHAR 012B
ENCODING 299
SWIDTH 160 0
DWIDTH 8 0
BBX 12 30 -2 0
BITMAP
FFF0
FFF0
FFF0
FFF0
0000
0000
0000
0000
0F00
0F00
0F00
0F00
0F00
0F00
0F00
0F00
0F00
0F00
0F00
0F00
0F00
0F00
0F00
0F00
0F00
0F00
0F00
0F00
0F00
0F00
ENDCHAR
STARTCHAR 012C
ENCODING 300
SWIDTH 300 0
DWIDTH 15 0
BBX 14 42 1 0
BITMAP
E01C
E01C
7038
7878
3FF0
1FE0
0780
0000
0000
0000
7FF0
7FF0
7FF0
0780
0780
0780
0780
0780
0780
0780
0780
0780
0780
0780
0780
0780
0780
0780
0780
0780
0780
0780
0780
0780
0780
0780
0780
0780
7FF0
7FF0
7FF0
7FF0
ENDCHAR
STARTCHAR 012D
ENCODING 301
SWIDTH 160 0
DWIDTH 8 0
BBX 14 32 -3 0
BITMAP
E01C
701C
703C
3CF8
3FF0
0FE0
0380
0000
0000
0000
0780
0780
0780
0780
0780
0780
0780
0780
0780
0780
0780
0780
0780
0780
0780
0780
0780
0780
0780
0780
0780
0780
ENDCHAR
STARTCHAR 012E
ENCODING 302
SWIDTH 300 0
DWIDTH 15 0
BBX 15 41 2 -9
BITMAP
FFE0
FFE0
FFE0
0F00
0F00
0F00
0F00
0F00
0F00
0F00
0F00
0F00
0F00
0F00
0F00
0F00
0F00
0F00
0F00
0F00
0F00
0F00
0F00
0F00
0F00
0F00
0F00
0F00
FFE0
FFE0
FFE0
FFE0
0600
0600
0600
0E00
0700
0780
07F6
03FC
00F0
ENDCHAR
STARTCHAR 012F
ENCODING 303
SWIDTH 160 0
DWIDTH 8 0
BBX 11 40 2 -9
BITMAP
F000
F800
F800
F800
7000
0000
0000
0000
0000
F000
F000
F000
F000
F000
F000
F000
F000
F000
F000
F000
F000
F000
F000
F000
F000
F000
F000
F000
F000
F000
F000
6000
6000
E000
E000
7000
7800
7F60
3FC0
0F00
ENDCHAR
STARTCHAR 0130
ENCODING 304
SWIDTH 300 0
DWIDTH 15 0
BBX 11 41 2 0
BITMAP
0F00
1F00
1F80
1F00
0F00
0000
0000
0000
0000
FFE0
FFE0
FFE0
0F00
0F00
0F00
0F00
0F00
0F00
0F00
0F00
0F00
0F00
0F00
0F00
0F00
0F00
0F00
0F00
0F00
0F00
0F00
0F00
0F00
0F00
0F00
0F00
0F00
FFE0
FFE0
FFE0
FFE0
ENDCHAR
STARTCHAR 0131
ENCODING 305
SWIDTH 160 0
DWIDTH 8 0
BBX 4 22 2 0
BITMAP
F0
F0
F0
F0
F0
F0
F0
F0
F0
F0
F0
F0
F0
F0
F0
F0
F0
F0
F0
F0
F0
F0
ENDCHAR
STARTCHAR 0132
ENCODING 306
SWIDTH 620 0
DWIDTH 31 0
BBX 27 32 2 0
BITMAP
FFE000E0
FFE000E0
FFE000E0
0F0000E0
0F0000E0
0F0000E0
0F0000E0
0F0000E0
0F0000E0
0F0000E0
0F0000E0
0F0000E0
0F0000E0
0F0000E0
0F0000E0
0F0000E0
0F0000E0
0F0000E0
0F0000E0
0F0000E0
0F0000E0
0F0000E0
0F0000E0
0F0000E0
0F0000E0
0F0000E0
0F0380E0
0F03C1E0
FFE3E3E0
FFE1FFC0
FFE0FF80
FFE07F00
ENDCHAR
STARTCHAR 0133
ENCODING 307
SWIDTH 340 0
DWIDTH 17 0
BBX 14 41 2 -10
BITMAP
F078
F8F8
F8FC
F8F8
7078
0000
0000
0000
0000
F078
F078
F078
F078
F078
F078
F078
F078
F078
F078
F078
F078
F078
F078
F078
F078
F078
F078
F078
F078
F078
F078
0078
0078
0078
0078
0078
00F0
1BF0
3FE0
7FC0
1F80
ENDCHAR
STARTCHAR 0134
ENCODING 308
SWIDTH 360 0
DWIDTH 18 0
BBX 18 42 2 0
BITMAP
003E00
007E00
00FF00
00E700
01C380
018180
0300C0
000000
000000
000000
003C00
003C00
003C00
003C00
003C00
003C00
003C00
003C00
003C00
003C00
003C00
003C00
003C00
003C00
003C00
003C00
003C00
003C00
003C00
003C00
003C00
003C00
003C00
003C00
003C00
003C00
F03C00
783C00
7C7C00
3FF800
3FF000
0FE000
ENDCHAR
STARTCHAR 0135
ENCODING 309
SWIDTH 160 0
DWIDTH 8 0
BBX 15 42 -5 -10
BITMAP
03F0
03F0
07B8
0718
0E0C
0C06
1802
0000
0000
0000
01E0
01E0
01E0
01E0
01E0
01E0
01E0
01E0
01E0
01E0
01E0
01E0
01E0
01E0
01E0
01E0
01E0
01E0
01E0
01E0
01E0
01E0
01E0
01E0
01E0
01E0
01E0
01E0
37C0
7FC0
FF80
7E00
ENDCHAR
STARTCHAR 0136
ENCODING 310
SWIDTH 540 0
DWIDTH 27 0
BBX 22 42 2 -10
BITMAP
F001F0
F003E0
F003C0
F007C0
F00F80
F00F00
F01E00
F03E00
F03C00
F07800
F0F800
F1F000
F1E000
F3E000
F7C000
F7E000
FFF000
FFF000
FE7800
FC7C00
FC3E00
F81E00
F01F00
F00F80
F00780
F003C0
F003E0
F001E0
F000F0
F000F8
F0007C
F0003C
00E000
00F000
00F800
01FC00
000E00
000600
000E00
021E00
03FC00
03F000
ENDCHAR
STARTCHAR 0137
ENCODING 311
SWIDTH 420 0
DWIDTH 21 0
BBX 17 42 2 -10
BITMAP
F00000
F00000
F00000
F00000
F00000
F00000
F00000
F00000
F00000
F00000
F03E00
F07C00
F07800
F0F000
F1F000
F3E000
F3C000
F7C000
FF8000
FF8000
FF8000
FFC000
FFE000
F9F000
F8F000
F0F800
F07C00
F03C00
F01E00
F01F00
F00F00
F00780
018000
038000
03E000
07F000
003800
001800
003800
087800
0FF000
0FC000
ENDCHAR
STARTCHAR 0138
ENCODING 312
SWIDTH 420 0
DWIDTH 21 0
BBX 17 22 2 0
BITMAP
F03E00
F07C00
F07800
F0F000
F1F000
F3E000
F3C000
F7C000
FF8000
FF8000
FF8000
FFC000
FFE000
F9F000
F8F000
F0F800
F07C00
F03C00
F01E00
F01F00
F00F00
F00780
ENDCHAR
STARTCHAR 0139
ENCODING 313
SWIDTH 500 0
DWIDTH 25 0
BBX 21 42 2 0
BITMAP
001F00
001E00
003C00
003800
007000
006000
00C000
000000
000000
000000
F00000
F00000
F00000
F00000
F00000
F00000
F00000
F00000
F00000
F00000
F00000
F00000
F00000
F00000
F00000
F00000
F00000
F00000
F00000
F00000
F00000
F00000
F00000
F00000
F00000
F00000
F00000
F00000
FFFFF8
FFFFF8
FFFFF8
FFFFF8
ENDCHAR
STARTCHAR 013A
ENCODING 314
SWIDTH 240 0
DWIDTH 12 0
BBX 8 42 2 0
BITMAP
0F
1E
1C
38
70
60
C0
80
00
00
F0
F0
F0
F0
F0
F0
F0
F0
F0
F0
F0
F0
F0
F0
F0
F0
F0
F0
F0
F0
F0
F0
F0
F0
F0
F0
F0
F0
FF
7F
7F
3F
ENDCHAR
STARTCHAR 013B
ENCODING 315
SWIDTH 500 0
DWIDTH 25 0
BBX 21 42 2 -10
BITMAP
F00000
F00000
F00000
F00000
F00000
F00000
F00000
F00000
F00000
F00000
F00000
F00000
F00000
F00000
F00000
F00000
F00000
F00000
F00000
F00000
F00000
F00000
F00000
F00000
F00000
F00000
F00000
F00000
FFFFF8
FFFFF8
FFFFF8
FFFFF8
007000
007800
007C00
00FE00
000700
000300
000700
010F00
01FE00
01F800
ENDCHAR
STARTCHAR 013C
ENCODING 316
SWIDTH 240 0
DWIDTH 12 0
BBX 9 42 2 -10
BITMAP
F000
F000
F000
F000
F000
F000
F000
F000
F000
F000
F000
F000
F000
F000
F000
F000
F000
F000
F000
F000
F000
F000
F000
F000
F000
F000
F000
F000
FF00
7F00
7F00
3F00
1800
3C00
3F00
3F80
0380
0180
0180
8780
FF00
FE00
ENDCHAR
STARTCHAR 013D
ENCODING 317
SWIDTH 500 0
DWIDTH 25 0
BBX 21 33 2 0
BITMAP
002000
F0F800
F0FC00
F0FC00
F0FC00
F06C00
F00C00
F00C00
F00C00
F01800
F03000
F06000
F1C000
F00000
F00000
F00000
F00000
F00000
F00000
F00000
F00000
F00000
F00000
F00000
F00000
F00000
F00000
F00000
F00000
FFFFF8
FFFFF8
FFFFF8
FFFFF8
ENDCHAR
STARTCHAR 013E
ENCODING 318
SWIDTH 240 0
DWIDTH 12 0
BBX 13 33 2 0
BITMAP
00C0
F1F0
F3F0
F3F8
F1F8
F0D8
F018
F018
F010
F030
F060
F0C0
F300
F000
F000
F000
F000
F000
F000
F000
F000
F000
F000
F000
F000
F000
F000
F000
F000
FF00
7F00
7F00
3F00
ENDCHAR
STARTCHAR 013F
ENCODING 319
SWIDTH 500 0
DWIDTH 25 0
BBX 21 32 2 0
BITMAP
F00000
F00000
F00000
F00000
F00000
F00000
F00000
F00000
F00000
F00000
F00000
F00000
F00000
F01800
F07C00
F07C00
F07C00
F03C00
F01000
F00000
F00000
F00000
F00000
F00000
F00000
F00000
F00000
F00000
FFFFF8
FFFFF8
FFFFF8
FFFFF8
ENDCHAR
STARTCHAR 0140
ENCODING 320
SWIDTH 340 0
DWIDTH 17 0
BBX 13 32 2 0
BITMAP
F000
F000
F000
F000
F000
F000
F000
F000
F000
F000
F000
F000
F000
F070
F0F8
F0F8
F0F8
F0F8
F020
F000
F000
F000
F000
F000
F000
F000
F000
F000
FF00
7F00
7F00
3F00
ENDCHAR
STARTCHAR 0141
ENCODING 321
SWIDTH 600 0
DWIDTH 30 0
BBX 26 32 2 0
BITMAP
07800000
07800000
07800000
07800000
07800000
07800000
07800000
07800000
07800000
07800000
07800000
07800000
079C0000
07FC0000
07FC0000
1FFC0000
FFE00000
FF800000
FF800000
E7800000
07800000
07800000
07800000
07800000
07800000
07800000
07800000
07800000
07FFFFC0
07FFFFC0
07FFFFC0
07FFFFC0
ENDCHAR
STARTCHAR 0142
ENCODING 322
SWIDTH 360 0
DWIDTH 18 0
BBX 14 32 2 0
BITMAP
0780
0780
0780
0780
0780
0780
0780
0780
0780
0780
0780
0780
079C
07FC
07FC
1FFC
FFE0
FF80
FF80
E780
0780
0780
0780
0780
0780
0780
0780
0780
07F8
07F8
03F8
01F8
ENDCHAR
STARTCHAR 0143
ENCODING 323
SWIDTH 600 0
DWIDTH 30 0
BBX 26 42 2 0
BITMAP
0003C000
00078000
00070000
000E0000
000C0000
00180000
00100000
00000000
00000000
00000000
F80003C0
F80003C0
FC0003C0
FE0003C0
FE0003C0
FF0003C0
FF8003C0
F7C003C0
F3C003C0
F3E003C0
F1F003C0
F0F003C0
F07803C0
F07C03C0
F03C03C0
F01E03C0
F01F03C0
F00F83C0
F00783C0
F007C3C0
F003E3C0
F001E3C0
F000F3C0
F000FBC0
F0007BC0
F0003FC0
F0003FC0
F0001FC0
F0000FC0
F0000FC0
F00007C0
F00003C0
ENDCHAR
STARTCHAR 0144
ENCODING 324
SWIDTH 480 0
DWIDTH 24 0
BBX 20 32 2 0
BITMAP
001E00
003C00
003800
007000
006000
00C000
008000
000000
000000
00FC00
F3FF00
F7FF80
FFFFC0
FF03C0
FE01E0
FC01E0
F800E0
F800F0
F000F0
F000F0
F000F0
F000F0
F000F0
F000F0
F000F0
F000F0
F000F0
F000F0
F000F0
F000F0
F000F0
F000F0
ENDCHAR
STARTCHAR 0145
ENCODING 325
SWIDTH 600 0
DWIDTH 30 0
BBX 26 42 2 -10
BITMAP
F80003C0
F80003C0
FC0003C0
FE0003C0
FE0003C0
FF0003C0
FF8003C0
F7C003C0
F3C003C0
F3E003C0
F1F003C0
F0F003C0
F07803C0
F07C03C0
F03C03C0
F01E03C0
F01F03C0
F00F83C0
F00783C0
F007C3C0
F003E3C0
F001E3C0
F000F3C0
F000FBC0
F0007BC0
F0003FC0
F0003FC0
F0001FC0
F0000FC0
F0000FC0
F00007C0
F00003C0
001C0000
001C0000
001F0000
003F8000
0001C000
0000C000
0001C000
0043C000
007F8000
007E0000
ENDCHAR
STARTCHAR 0146
ENCODING 326
SWIDTH 480 0
DWIDTH 24 0
BBX 20 33 2 -10
BITMAP
00FC00
F3FF00
F7FF80
FFFFC0
FF03C0
FE01E0
FC01E0
F800E0
F800F0
F000F0
F000F0
F000F0
F000F0
F000F0
F000F0
F000F0
F000F0
F000F0
F000F0
F000F0
F000F0
F000F0
F000F0
006000
00F000
00FC00
00FE00
000E00
000600
000600
021E00
03FC00
03F800
ENDCHAR
STARTCHAR 0147
ENCODING 327
SWIDTH 600 0
DWIDTH 30 0
BBX 26 42 2 0
BITMAP
01802000
00C06000
00E0C000
0071C000
007B8000
003F0000
003F0000
00000000
00000000
00000000
F80003C0
F80003C0
FC0003C0
FE0003C0
FE0003C0
FF0003C0
FF8003C0
F7C003C0
F3C003C0
F3E003C0
F1F003C0
F0F003C0
F07803C0
F07C03C0
F03C03C0
F01E03C0
F01F03C0
F00F83C0
F00783C0
F007C3C0
F003E3C0
F001E3C0
F000F3C0
F000FBC0
F0007BC0
F0003FC0
F0003FC0
F0001FC0
F0000FC0
F0000FC0
F00007C0
F00003C0
ENDCHAR
STARTCHAR 0148
ENCODING 328
SWIDTH 480 0
DWIDTH 24 0
BBX 20 32 2 0
BITMAP
0C0100
060300
070600
039C00
03FC00
01F800
00F800
000000
000000
00FC00
F3FF00
F7FF80
FFFFC0
FF03C0
FE01E0
FC01E0
F800E0
F800F0
F000F0
F000F0
F000F0
F000F0
F000F0
F000F0
F000F0
F000F0
F000F0
F000F0
F000F0
F000F0
F000F0
F000F0
ENDCHAR
STARTCHAR 0149
ENCODING 329
SWIDTH 580 0
DWIDTH 29 0
BBX 25 33 2 0
BITMAP
20000000
78000000
FC000000
FE000000
7E000000
36000000
06000000
06000000
0C000000
0C000000
1807E000
379FF800
C7BFFC00
07FFFE00
07F81E00
07F00F00
07E00F00
07C00700
07C00780
07800780
07800780
07800780
07800780
07800780
07800780
07800780
07800780
07800780
07800780
07800780
07800780
07800780
07800780
ENDCHAR
STARTCHAR 014A
ENCODING 330
SWIDTH 560 0
DWIDTH 28 0
BBX 24 33 2 0
BITMAP
001E00
F0FFC0
F1FFE0
F7FFF0
FFC0F8
FF807C
FF003C
FE001E
FC001E
FC001E
F8000E
F8000E
F8000F
F0000F
F0000F
F0000F
F0000F
F0000F
F0000F
F0000F
F0000F
F0000F
F0000F
F0000F
F0000F
F0000F
F0000F
F0000F
F0001E
F0023E
F007FC
F007FC
F007F0
ENDCHAR
STARTCHAR 014B
ENCODING 331
SWIDTH 480 0
DWIDTH 24 0
BBX 20 33 2 -10
BITMAP
00FC00
F3FF00
F7FF80
FFFFC0
FF03C0
FE01E0
FC01E0
F800E0
F800F0
F000F0
F000F0
F000F0
F000F0
F000F0
F000F0
F000F0
F000F0
F000F0
F000F0
F000F0
F000F0
F000F0
F000F0
0000F0
0000F0
0000F0
0000F0
0000F0
0000F0
001BE0
003FE0
007FC0
003F00
ENDCHAR
STARTCHAR 014C
ENCODING 332
SWIDTH 620 0
DWIDTH 31 0
BBX 27 40 2 0
BITMAP
00FFF000
00FFF000
00FFF000
00FFF000
00000000
00000000
00000000
000F0000
007FE000
01FFF800
03FFFC00
07E07E00
0F801F00
1F000F00
1E000780
3C000780
3C0003C0
780003C0
780001E0
780001E0
700001E0
700001E0
F00000E0
F00000E0
F00000E0
F00000E0
700001E0
700001E0
780001E0
780001E0
780003C0
3C0003C0
3E000780
1E000F80
1F001F00
0F803E00
07F0FE00
03FFFC00
01FFF000
007FE000
ENDCHAR
STARTCHAR 014D
ENCODING 333
SWIDTH 480 0
DWIDTH 24 0
BBX 20 30 2 0
BITMAP
0FFF00
0FFF00
0FFF00
0FFF00
000000
000000
000000
01F800
07FE00
0FFF00
1FFF80
1F07C0
3C03C0
7C01E0
7801E0
7800F0
7000F0
F000F0
F000F0
F000F0
7000F0
7000F0
7800E0
7801E0
3C03E0
3E03C0
1F8FC0
0FFF80
07FF00
03FC00
ENDCHAR
STARTCHAR 014E
ENCODING 334
SWIDTH 620 0
DWIDTH 31 0
BBX 27 42 2 0
BITMAP
01C03800
01C03800
01E07000
00F0F000
007FE000
003FC000
000F0000
00000000
00000000
000F0000
007FE000
01FFF800
03FFFC00
07E07E00
0F801F00
1F000F00
1E000780
3C000780
3C0003C0
780003C0
780001E0
780001E0
700001E0
700001E0
F00000E0
F00000E0
F00000E0
F00000E0
700001E0
700001E0
780001E0
780001E0
780003C0
3C0003C0
3E000780
1E000F80
1F001F00
0F803E00
07F0FE00
03FFFC00
01FFF000
007FE000
ENDCHAR
STARTCHAR 014F
ENCODING 335
SWIDTH 480 0
DWIDTH 24 0
BBX 20 32 2 0
BITMAP
1C0380
0E0380
0E0780
0F9F00
07FE00
03FC00
007000
000000
000000
01F800
07FE00
0FFF00
1FFF80
1F07C0
3C03C0
7C01E0
7801E0
7800F0
7000F0
F000F0
F000F0
F000F0
7000F0
7000F0
7800E0
7801E0
3C03E0
3E03C0
1F8FC0
0FFF80
07FF00
03FC00
ENDCHAR
STARTCHAR 0150
ENCODING 336
SWIDTH 620 0
DWIDTH 31 0
BBX 27 42 2 0
BITMAP
000F1F00
001E1E00
001C3C00
00383800
00307000
00606000
0040C000
00000000
00000000
000F0000
007FE000
01FFF800
03FFFC00
07E07E00
0F801F00
1F000F00
1E000780
3C000780
3C0003C0
780003C0
780001E0
780001E0
700001E0
700001E0
F00000E0
F00000E0
F00000E0
F00000E0
700001E0
700001E0
780001E0
780001E0
780003C0
3C0003C0
3E000780
1E000F80
1F001F00
0F803E00
07F0FE00
03FFFC00
01FFF000
007FE000
ENDCHAR
STARTCHAR 0151
ENCODING 337
SWIDTH 480 0
DWIDTH 24 0
BBX 20 32 2 0
BITMAP
00F9F0
00E1E0
01C3C0
018380
030700
020600
040C00
000000
000000
01F800
07FE00
0FFF00
1FFF80
1F07C0
3C03C0
7C01E0
7801E0
7800F0
7000F0
F000F0
F000F0
F000F0
7000F0
7000F0
7800E0
7801E0
3C03E0
3E03C0
1F8FC0
0FFF80
07FF00
03FC00
ENDCHAR
STARTCHAR 0152
ENCODING 338
SWIDTH 960 0
DWIDTH 48 0
BBX 44 33 2 0
BITMAP
000F00000000
007FE0FFFFF0
01FFF8FFFFF0
03FFFCFFFFF0
07E07EE00000
0F801FE00000
1F000FE00000
1E0007E00000
3C0007E00000
3C0003E00000
780003E00000
780001E00000
780001E00000
700001E00000
700001E00000
F00000FFFF80
F00000FFFF80
F00000FFFF80
F00000FFFF80
700001E00000
700001E00000
780001E00000
780001E00000
780003E00000
3C0003E00000
3E0007E00000
1E000FE00000
1F001FE00000
0F803EE00000
07F0FEFFFFF0
03FFFCFFFFF0
01FFF0FFFFF0
007FE0FFFFF0
ENDCHAR
STARTCHAR 0153
ENCODING 339
SWIDTH 800 0
DWIDTH 40 0
BBX 36 23 2 0
BITMAP
01F801F800
07FE07FE00
0FFF0FFF00
1FFF9FFF80
1F07FE07C0
3C03FC03C0
7C01F801E0
7801F801E0
7800F000E0
7000FFFFF0
F000FFFFF0
F000FFFFF0
F000F00000
7000F00000
7000F00000
7800F80100
7801F80180
3C03FC03E0
3E03FE07C0
1F8FDF0F80
0FFF8FFF80
07FF07FF00
03FC03FC00
ENDCHAR
STARTCHAR 0154
ENCODING 340
SWIDTH 520 0
DWIDTH 26 0
BBX 22 42 2 0
BITMAP
001E00
003C00
003800
007000
006000
00C000
008000
000000
000000
000000
FFFC00
FFFF00
FFFF80
F03FC0
F003E0
F001E0
F001E0
F000F0
F000F0
F000F0
F000F0
F001E0
F001E0
F007C0
FFFFC0
FFFF80
FFFE00
FFFC00
F03E00
F01E00
F00F00
F00F00
F00780
F007C0
F003C0
F003E0
F001E0
F000F0
F000F0
F00078
F0007C
F0003C
ENDCHAR
STARTCHAR 0155
ENCODING 341
SWIDTH 340 0
DWIDTH 17 0
BBX 13 32 2 0
BITMAP
01F0
01C0
0380
0300
0600
0400
0800
0000
0000
00F8
F3F0
F7F0
FFF0
FF00
FE00
FC00
F800
F800
F000
F000
F000
F000
F000
F000
F000
F000
F000
F000
F000
F000
F000
F000
ENDCHAR
STARTCHAR 0156
ENCODING 342
SWIDTH 480 0
DWIDTH 24 0
BBX 22 42 2 -10
BITMAP
FFFC00
FFFF00
FFFF80
F03FC0
F003E0
F001E0
F001E0
F000F0
F000F0
F000F0
F000F0
F001E0
F001E0
F007C0
FFFFC0
FFFF80
FFFE00
FFFC00
F03E00
F01E00
F00F00
F00F00
F00780
F007C0
F003C0
F003E0
F001E0
F000F0
F000F0
F00078
F0007C
F0003C
006000
00F000
00FC00
00FE00
000E00
000600
000600
021E00
03FC00
03F800
ENDCHAR
STARTCHAR 0157
ENCODING 343
SWIDTH 340 0
DWIDTH 17 0
BBX 15 33 0 -10
BITMAP
003E
3CFC
3DFC
3FFC
3FC0
3F80
3F00
3E00
3E00
3C00
3C00
3C00
3C00
3C00
3C00
3C00
3C00
3C00
3C00
3C00
3C00
3C00
3C00
1800
3C00
3F00
3F80
0380
0180
0180
C780
FF00
FE00
ENDCHAR
STARTCHAR 0158
ENCODING 344
SWIDTH 520 0
DWIDTH 26 0
BBX 22 42 2 0
BITMAP
0C0100
060300
070600
038E00
03DC00
01FC00
01F800
000000
000000
000000
FFFC00
FFFF00
FFFF80
F03FC0
F003E0
F001E0
F001E0
F000F0
F000F0
F000F0
F000F0
F001E0
F001E0
F007C0
FFFFC0
FFFF80
FFFE00
FFFC00
F03E00
F01E00
F00F00
F00F00
F00780
F007C0
F003C0
F003E0
F001E0
F000F0
F000F0
F00078
F0007C
F0003C
ENDCHAR
STARTCHAR 0159
ENCODING 345
SWIDTH 340 0
DWIDTH 17 0
BBX 13 32 2 0
BITMAP
4010
6030
3060
38E0
1DC0
1FC0
0F80
0000
0000
00F8
F3F0
F7F0
FFF0
FF00
FE00
FC00
F800
F800
F000
F000
F000
F000
F000
F000
F000
F000
F000
F000
F000
F000
F000
F000
ENDCHAR
STARTCHAR 015A
ENCODING 346
SWIDTH 480 0
DWIDTH 24 0
BBX 20 42 2 0
BITMAP
001E00
003C00
003800
007000
006000
00C000
008000
000000
000000
00F000
03FE00
0FFF00
1FFF80
1F0FC0
3E03C0
3C03C0
3C01E0
3801E0
380000
3C0000
3C0000
3E0000
1F8000
0FE000
07F800
01FE00
007F00
001FC0
0007C0
0003E0
0001F0
0000F0
0000F0
F000F0
7000F0
7800F0
7801E0
3C03E0
3F8FC0
1FFF80
0FFF00
03FE00
ENDCHAR
STARTCHAR 015B
ENCODING 347
SWIDTH 380 0
DWIDTH 19 0
BBX 15 32 2 0
BITMAP
00F8
00F0
01E0
01C0
0380
0300
0600
0000
0000
07C0
1FF0
3FF8
3FFC
7C3C
781C
7800
7800
3E00
3F80
1FE0
07F8
00FC
007C
001E
001E
F01E
701E
781E
7C7C
3FFC
1FF8
0FE0
ENDCHAR
STARTCHAR 015C
ENCODING 348
SWIDTH 480 0
DWIDTH 24 0
BBX 20 42 2 0
BITMAP
00F800
01F800
01FC00
039C00
070E00
060600
0C0300
000000
000000
00F000
03FE00
0FFF00
1FFF80
1F0FC0
3E03C0
3C03C0
3C01E0
3801E0
380000
3C0000
3C0000
3E0000
1F8000
0FE000
07F800
01FE00
007F00
001FC0
0007C0
0003E0
0001F0
0000F0
0000F0
F000F0
7000F0
7800F0
7801E0
3C03E0
3F8FC0
1FFF80
0FFF00
03FE00
ENDCHAR
STARTCHAR 015D
ENCODING 349
SWIDTH 380 0
DWIDTH 19 0
BBX 15 32 2 0
BITMAP
07E0
0FE0
0EF0
1C70
1838
3018
200C
0000
0000
07C0
1FF0
3FF8
3FFC
7C3C
781C
7800
7800
3E00
3F80
1FE0
07F8
00FC
007C
001E
001E
F01E
701E
781E
7C7C
3FFC
1FF8
0FE0
ENDCHAR
STARTCHAR 015E
ENCODING 350
SWIDTH 480 0
DWIDTH 24 0
BBX 20 43 2 -10
BITMAP
00F000
03FE00
0FFF00
1FFF80
1F0FC0
3E03C0
3C03C0
3C01E0
3801E0
380000
3C0000
3C0000
3E0000
1F8000
0FE000
07F800
01FE00
007F00
001FC0
0007C0
0003E0
0001F0
0000F0
0000F0
F000F0
7000F0
7800F0
7801E0
3C03E0
3F8FC0
1FFF80
0FFF00
03FE00
00E000
00F000
00F800
01FC00
000E00
000600
000E00
021E00
03FC00
03F000
ENDCHAR
STARTCHAR 015F
ENCODING 351
SWIDTH 380 0
DWIDTH 19 0
BBX 15 33 2 -10
BITMAP
0180
0FF0
1FF8
3FFC
7C3C
781C
7800
7800
7E00
3F80
1FE0
07F8
01FC
007C
001E
001E
F01E
701E
781E
7C7C
3FFC
1FF8
0FE0
0380
0380
07E0
07F0
0030
0038
0038
08F0
1FE0
1FC0
ENDCHAR
STARTCHAR 0160
ENCODING 352
SWIDTH 480 0
DWIDTH 24 0
BBX 20 42 2 0
BITMAP
0C0100
060300
070600
038E00
03DC00
01FC00
01F800
000000
000000
00F000
03FE00
0FFF00
1FFF80
1F0FC0
3E03C0
3C03C0
3C01E0
3801E0
380000
3C0000
3C0000
3E0000
1F8000
0FE000
07F800
01FE00
007F00
001FC0
0007C0
0003E0
0001F0
0000F0
0000F0
F000F0
7000F0
7800F0
7801E0
3C03E0
3F8FC0
1FFF80
0FFF00
03FE00
ENDCHAR
STARTCHAR 0161
ENCODING 353
SWIDTH 380 0
DWIDTH 19 0
BBX 15 32 2 0
BITMAP
200C
3018
1838
0C70
0EE0
07E0
07C0
0000
0000
07C0
1FF0
3FF8
3FFC
7C3C
781C
7800
7800
3E00
3F80
1FE0
07F8
00FC
007C
001E
001E
F01E
701E
781E
7C7C
3FFC
1FF8
0FE0
ENDCHAR
STARTCHAR 0162
ENCODING 354
SWIDTH 500 0
DWIDTH 25 0
BBX 21 42 2 -10
BITMAP
FFFFF8
FFFFF8
FFFFF8
007800
007800
007800
007800
007800
007800
007800
007800
007800
007800
007800
007800
007800
007800
007800
007800
007800
007800
007800
007800
007800
007800
007800
007800
007800
007800
007800
007800
007800
007000
007000
00FC00
00FE00
000700
000700
000700
010E00
03FE00
03F800
ENDCHAR
STARTCHAR 0163
ENCODING 355
SWIDTH 340 0
DWIDTH 17 0
BBX 13 37 2 -10
BITMAP
0780
0780
0780
0780
0780
FFF8
FFF8
FFF8
0780
0780
0780
0780
0780
0780
0780
0780
0780
0780
0780
0780
0780
0780
0780
07F0
07F0
07F0
03F0
0380
0380
07E0
07F0
0030
0038
0038
08F0
1FE0
1FC0
ENDCHAR
STARTCHAR 0164
ENCODING 356
SWIDTH 500 0
DWIDTH 25 0
BBX 21 42 2 0
BITMAP
040180
060300
030700
038E00
01DE00
01FC00
00FC00
000000
000000
000000
FFFFF8
FFFFF8
FFFFF8
007800
007800
007800
007800
007800
007800
007800
007800
007800
007800
007800
007800
007800
007800
007800
007800
007800
007800
007800
007800
007800
007800
007800
007800
007800
007800
007800
007800
007800
ENDCHAR
STARTCHAR 0165
ENCODING 357
SWIDTH 480 0
DWIDTH 24 0
BBX 20 33 2 0
BITMAP
000080
0003E0
0003F0
0003F0
0083F0
0181B0
078030
078030
078030
078060
0780C0
FFF980
FFFF00
FFF800
078000
078000
078000
078000
078000
078000
078000
078000
078000
078000
078000
078000
078000
078000
078000
07F000
07F000
07F000
03F000
ENDCHAR
STARTCHAR 0166
ENCODING 358
SWIDTH 500 0
DWIDTH 25 0
BBX 21 32 2 0
BITMAP
FFFFF8
FFFFF8
FFFFF8
007800
007800
007800
007800
007800
007800
007800
007800
007800
007800
007800
3FFFE0
3FFFE0
3FFFE0
3FFFE0
007800
007800
007800
007800
007800
007800
007800
007800
007800
007800
007800
007800
007800
007800
ENDCHAR
STARTCHAR 0167
ENCODING 359
SWIDTH 340 0
DWIDTH 17 0
BBX 13 27 2 0
BITMAP
0780
0780
0780
0780
0780
FFF8
FFF8
FFF8
0780
0780
0780
0780
0780
0780
7FF8
7FF8
7FF8
7FF8
0780
0780
0780
0780
0780
07F0
07F0
07F0
03F0
ENDCHAR
STARTCHAR 0168
ENCODING 360
SWIDTH 580 0
DWIDTH 29 0
BBX 25 41 2 0
BITMAP
03E01800
07F81800
077E3800
0E1FF000
0C07F000
0C00C000
00000000
00000000
00000000
F0000780
F0000780
F0000780
F0000780
F0000780
F0000780
F0000780
F0000780
F0000780
F0000780
F0000780
F0000780
F0000780
F0000780
F0000780
F0000780
F0000780
F0000780
F0000780
F0000780
F0000780
F0000780
70000780
78000700
78000F00
3C001F00
3E003E00
1F007C00
0FC1FC00
07FFF800
03FFE000
00FFC000
ENDCHAR
STARTCHAR 0169
ENCODING 361
SWIDTH 480 0
DWIDTH 24 0
BBX 20 32 2 0
BITMAP
020000
1F8060
3FE0E0
39F9C0
307FC0
301F80
000000
000000
000000
000000
F000F0
F000F0
F000F0
F000F0
F000F0
F000F0
F000F0
F000F0
F000F0
F000F0
F000F0
F000F0
F000F0
7000F0
7801F0
7801F0
7803F0
3C07F0
3F1FF0
1FFFF0
0FFEF0
07F8F0
ENDCHAR
STARTCHAR 016A
ENCODING 362
SWIDTH 580 0
DWIDTH 29 0
BBX 25 40 2 0
BITMAP
01FFE000
01FFE000
01FFE000
01FFE000
00000000
00000000
00000000
00000000
F0000780
F0000780
F0000780
F0000780
F0000780
F0000780
F0000780
F0000780
F0000780
F0000780
F0000780
F0000780
F0000780
F0000780
F0000780
F0000780
F0000780
F0000780
F0000780
F0000780
F0000780
F0000780
70000780
78000700
78000F00
3C001F00
3E003E00
1F007C00
0FC1FC00
07FFF800
03FFE000
00FFC000
ENDCHAR
STARTCHAR 016B
ENCODING 363
SWIDTH 480 0
DWIDTH 24 0
BBX 20 30 2 0
BITMAP
0FFF00
0FFF00
0FFF00
0FFF00
000000
000000
000000
000000
F000F0
F000F0
F000F0
F000F0
F000F0
F000F0
F000F0
F000F0
F000F0
F000F0
F000F0
F000F0
F000F0
7000F0
7801F0
7801F0
7803F0
3C07F0
3F1FF0
1FFFF0
0FFEF0
07F8F0
ENDCHAR
STARTCHAR 016C
ENCODING 364
SWIDTH 580 0
DWIDTH 29 0
BBX 25 42 2 0
BITMAP
03806000
0380E000
03C0E000
01E1E000
01FFC000
007F8000
001E0000
00000000
00000000
00000000
F0000780
F0000780
F0000780
F0000780
F0000780
F0000780
F0000780
F0000780
F0000780
F0000780
F0000780
F0000780
F0000780
F0000780
F0000780
F0000780
F0000780
F0000780
F0000780
F0000780
F0000780
F0000780
70000780
78000700
78000F00
3C001F00
3E003E00
1F007C00
0FC1FC00
07FFF800
03FFE000
00FFC000
ENDCHAR
STARTCHAR 016D
ENCODING 365
SWIDTH 480 0
DWIDTH 24 0
BBX 20 32 2 0
BITMAP
1C0380
0E0380
0E0780
0F9F00
07FE00
03FC00
007000
000000
000000
000000
F000F0
F000F0
F000F0
F000F0
F000F0
F000F0
F000F0
F000F0
F000F0
F000F0
F000F0
F000F0
F000F0
7000F0
7801F0
7801F0
7803F0
3C07F0
3F1FF0
1FFFF0
0FFEF0
07F8F0
ENDCHAR
STARTCHAR 016E
ENCODING 366
SWIDTH 580 0
DWIDTH 29 0
BBX 25 43 2 0
BITMAP
00080000
003F0000
007F0000
00638000
00E38000
00E38000
007F8000
007F0000
001E0000
00000000
00000000
F0000780
F0000780
F0000780
F0000780
F0000780
F0000780
F0000780
F0000780
F0000780
F0000780
F0000780
F0000780
F0000780
F0000780
F0000780
F0000780
F0000780
F0000780
F0000780
F0000780
F0000780
F0000780
70000780
78000700
78000F00
3C001F00
3E003E00
1F007C00
0FC1FC00
07FFF800
03FFE000
00FFC000
ENDCHAR
STARTCHAR 016F
ENCODING 367
SWIDTH 480 0
DWIDTH 24 0
BBX 20 33 2 0
BITMAP
007000
01F800
03FC00
038C00
030C00
038C00
03FC00
01F800
006000
000000
000000
F000F0
F000F0
F000F0
F000F0
F000F0
F000F0
F000F0
F000F0
F000F0
F000F0
F000F0
F000F0
F000F0
7000F0
7801F0
7801F0
7803F0
3C07F0
3F1FF0
1FFFF0
0FFEF0
07F8F0
ENDCHAR
STARTCHAR 0170
ENCODING 368
SWIDTH 580 0
DWIDTH 29 0
BBX 25 42 2 0
BITMAP
001E3E00
003C3C00
00387000
0070E000
0060C000
00C18000
00810000
00000000
00000000
00000000
F0000780
F0000780
F0000780
F0000780
F0000780
F0000780
F0000780
F0000780
F0000780
F0000780
F0000780
F0000780
F0000780
F0000780
F0000780
F0000780
F0000780
F0000780
F0000780
F0000780
F0000780
F0000780
70000780
78000700
78000F00
3C001F00
3E003E00
1F007C00
0FC1FC00
07FFF800
03FFE000
00FFC000
ENDCHAR
STARTCHAR 0171
ENCODING 369
SWIDTH 480 0
DWIDTH 24 0
BBX 20 32 2 0
BITMAP
00F9F0
00E1E0
01C3C0
018380
030700
020600
040C00
000000
000000
000000
F000F0
F000F0
F000F0
F000F0
F000F0
F000F0
F000F0
F000F0
F000F0
F000F0
F000F0
F000F0
F000F0
7000F0
7801F0
7801F0
7803F0
3C07F0
3F1FF0
1FFFF0
0FFEF0
07F8F0
ENDCHAR
STARTCHAR 0172
ENCODING 370
SWIDTH 580 0
DWIDTH 29 0
BBX 25 41 2 -9
BITMAP
F0000780
F0000780
F0000780
F0000780
F0000780
F0000780
F0000780
F0000780
F0000780
F0000780
F0000780
F0000780
F0000780
F0000780
F0000780
F0000780
F0000780
F0000780
F0000780
F0000780
F0000780
F0000780
70000780
78000700
78000F00
3C001F00
3E003E00
1F007E00
0FC1FC00
07FFF800
03FFE000
00FFC000
000C0000
001C0000
001C0000
001C0000
001E0000
000F0000
000FE800
0007F800
0003E000
ENDCHAR
STARTCHAR 0173
ENCODING 371
SWIDTH 480 0
DWIDTH 24 0
BBX 25 31 2 -9
BITMAP
F000F000
F000F000
F000F000
F000F000
F000F000
F000F000
F000F000
F000F000
F000F000
F000F000
F000F000
F000F000
F000F000
7000F000
7801F000
7801F000
7803F000
3C07F000
3F1FF000
1FFFF000
0FFEF000
07F8F000
00018000
00018000
00038000
00038000
0003C000
0001E000
0001FD80
0000FF00
00007C00
ENDCHAR
STARTCHAR 0174
ENCODING 372
SWIDTH 860 0
DWIDTH 43 0
BBX 38 42 3 0
BITMAP
0000F80000
0001FC0000
0001DC0000
00038E0000
0003060000
0006030000
0004010000
0000000000
0000000000
0000000000
E00078003C
F000F80038
F000F80078
F000FC0078
7001FC0078
7801FC00F0
7801FC00F0
3801DE00F0
3C03DE00E0
3C03DE01E0
3C03CE01E0
1C038F01E0
1E078F01C0
1E078F03C0
1E078703C0
0E0F0783C0
0F0F078380
0F0F078780
0F0F03C780
079E03C780
079E03CF00
079E01CF00
039C01EF00
03FC01EE00
03FC01FE00
03FC00FE00
01F800FE00
01F800FC00
01F800FC00
01F8007C00
00F0007C00
00F0007800
ENDCHAR
STARTCHAR 0175
ENCODING 373
SWIDTH 640 0
DWIDTH 32 0
BBX 27 32 3 0
BITMAP
001F0000
003F8000
003B8000
0071C000
0060C000
00C06000
00802000
00000000
00000000
00000000
F01F01E0
F01F01E0
F01F01E0
F03F03C0
783F83C0
783F83C0
783F83C0
387B8780
3C7BC780
3C7BC780
3C73C700
1CF1EF00
1EF1EF00
1EF1EF00
1FE0EE00
0FE0FE00
0FE0FE00
0FE0FE00
07C07C00
07C07C00
07C07C00
07807800
ENDCHAR
STARTCHAR 0176
ENCODING 374
SWIDTH 620 0
DWIDTH 31 0
BBX 26 42 3 0
BITMAP
003F0000
003F0000
007F8000
00738000
00E1C000
00C0C000
01806000
00000000
00000000
00000000
F00007C0
78000780
7C000F80
3E001F00
1E001E00
1F003C00
0F807C00
07807800
03C0F000
03E1F000
01E3E000
00F3C000
00FFC000
007F8000
003F0000
003E0000
001E0000
001E0000
001E0000
001E0000
001E0000
001E0000
001E0000
001E0000
001E0000
001E0000
001E0000
001E0000
001E0000
001E0000
001E0000
001E0000
ENDCHAR
STARTCHAR 0177
ENCODING 375
SWIDTH 500 0
DWIDTH 25 0
BBX 19 42 3 -10
BITMAP
01F000
03F800
03B800
071C00
060C00
0C0600
080200
000000
000000
000000
F001E0
F001E0
7001E0
7803C0
7803C0
3C03C0
3C0780
3C0780
1E0F00
1E0F00
1E0F00
0F1E00
0F1E00
071E00
07BC00
07BC00
03FC00
03F800
03F800
01F000
01F000
01F000
01E000
01E000
01E000
03C000
03C000
07C000
3F8000
7F0000
7F0000
7C0000
ENDCHAR
STARTCHAR 0178
ENCODING 376
SWIDTH 620 0
DWIDTH 31 0
BBX 26 41 3 0
BITMAP
01C0E000
03E1F000
03E3F000
03E1F000
01E1E000
00000000
00000000
00000000
00000000
F00007C0
78000780
7C000F80
3E001F00
1E001E00
1F003C00
0F807C00
07807800
03C0F000
03E1F000
01E3E000
00F3C000
00FFC000
007F8000
003F0000
003E0000
001E0000
001E0000
001E0000
001E0000
001E0000
001E0000
001E0000
001E0000
001E0000
001E0000
001E0000
001E0000
001E0000
001E0000
001E0000
001E0000
ENDCHAR
STARTCHAR 0179
ENCODING 377
SWIDTH 520 0
DWIDTH 26 0
BBX 22 42 2 0
BITMAP
000F80
000F00
001E00
001C00
003800
003000
004000
000000
000000
000000
FFFFFC
FFFFFC
FFFFFC
00003C
00007C
0000F8
0000F0
0001F0
0003E0
0003C0
000780
000F80
000F00
001E00
003E00
007C00
007800
00F800
01F000
01E000
03C000
07C000
078000
0F0000
1F0000
3E0000
3C0000
7C0000
FFFFFC
FFFFFC
FFFFFC
FFFFFC
ENDCHAR
STARTCHAR 017A
ENCODING 378
SWIDTH 400 0
DWIDTH 20 0
BBX 16 32 2 0
BITMAP
0078
00F0
00E0
01C0
0380
0300
0600
0000
0000
0000
FFFF
FFFF
FFFF
001E
003E
007C
0078
00F8
01F0
01E0
03C0
07C0
0780
0F00
1F00
3E00
3C00
7C00
FFFF
FFFF
FFFF
FFFF
ENDCHAR
STARTCHAR 017B
ENCODING 379
SWIDTH 520 0
DWIDTH 26 0
BBX 22 41 2 0
BITMAP
003800
007C00
007C00
007C00
007800
000000
000000
000000
000000
FFFFFC
FFFFFC
FFFFFC
00003C
00007C
0000F8
0000F0
0001F0
0003E0
0003C0
000780
000F80
000F00
001E00
003E00
007C00
007800
00F800
01F000
01E000
03C000
07C000
078000
0F0000
1F0000
3E0000
3C0000
7C0000
FFFFFC
FFFFFC
FFFFFC
FFFFFC
ENDCHAR
STARTCHAR 017C
ENCODING 380
SWIDTH 400 0
DWIDTH 20 0
BBX 16 31 2 0
BITMAP
03C0
07E0
07E0
03C0
03C0
0000
0000
0000
0000
FFFF
FFFF
FFFF
001E
003E
007C
0078
00F8
01F0
01E0
03C0
07C0
0780
0F00
1F00
3E00
3C00
7C00
FFFF
FFFF
FFFF
FFFF
ENDCHAR
STARTCHAR 017D
ENCODING 381
SWIDTH 520 0
DWIDTH 26 0
BBX 22 42 2 0
BITMAP
020080
030180
018300
01C700
00EE00
00FE00
007C00
000000
000000
000000
FFFFFC
FFFFFC
FFFFFC
00003C
00007C
0000F8
0000F0
0001F0
0003E0
0003C0
000780
000F80
000F00
001E00
003E00
007C00
007800
00F800
01F000
01E000
03C000
07C000
078000
0F0000
1F0000
3E0000
3C0000
7C0000
FFFFFC
FFFFFC
FFFFFC
FFFFFC
ENDCHAR
STARTCHAR 017E
ENCODING 382
SWIDTH 400 0
DWIDTH 20 0
BBX 16 32 2 0
BITMAP
300C
1818
1C38
0E70
0FF0
07E0
07E0
0000
0000
0000
FFFF
FFFF
FFFF
001E
003E
007C
0078
00F8
01F0
01E0
03C0
07C0
0780
0F00
1F00
3E00
3C00
7C00
FFFF
FFFF
FFFF
FFFF
ENDCHAR
STARTCHAR 017F
ENCODING 383
SWIDTH 160 0
DWIDTH 8 0
BBX 11 44 2 -11
BITMAP
0380
1FE0
3FE0
7FC0
7C00
7800
F000
F000
F000
F000
F000
F000
F000
F000
F000
F000
F000
F000
F000
F000
F000
F000
F000
F000
F000
F000
F000
F000
F000
F000
F000
F000
F000
F000
F000
F000
F000
F000
F000
F000
F000
F000
3000
1000
ENDCHAR
STARTCHAR 0180
ENCODING 384
SWIDTH 480 0
DWIDTH 24 0
BBX 23 32 -1 0
BITMAP
1E0000
1E0000
1E0000
FFF000
FFF000
FFF000
FFF000
1E0000
1E0000
1E3F00
1EFFC0
1FFFE0
1FFFF0
1FE0F8
1F8078
1F803C
1F003C
1F001E
1E001E
1E001E
1E001E
1E001E
1E001E
1E001E
1F001C
1F003C
1F807C
1FC078
1FF1F8
1FFFF0
1EFFE0
1E7F80
ENDCHAR
STARTCHAR 0181
ENCODING 385
SWIDTH 700 0
DWIDTH 35 0
BBX 31 32 2 0
BITMAP
0FFFFF00
1FFFFFC0
3FFFFFE0
7E3C07F0
783C00F8
703C0078
F03C0038
F03C0038
783C003C
703C0038
203C0078
003C00F8
003C01F0
003FFFF0
003FFFE0
003FFFF0
003FFFF8
003C00F8
003C007C
003C003C
003C001E
003C001E
003C001E
003C001E
003C001E
003C003C
003C007C
003C00F8
003FFFF8
003FFFF0
003FFFC0
003FFF00
ENDCHAR
STARTCHAR 0182
ENCODING 386
SWIDTH 500 0
DWIDTH 25 0
BBX 21 32 2 0
BITMAP
FFFFC0
FFFFC0
FFFFC0
F00000
F00000
F00000
F00000
F00000
F00000
F00000
F00000
F00000
F00000
FFFE00
FFFF80
FFFFC0
FFFFE0
F003F0
F000F0
F000F0
F00078
F00078
F00078
F00078
F00078
F000F0
F000F0
F003E0
FFFFE0
FFFFC0
FFFF80
FFFC00
ENDCHAR
STARTCHAR 0183
ENCODING 387
SWIDTH 480 0
DWIDTH 24 0
BBX 20 32 2 0
BITMAP
FFFFC0
FFFFC0
FFFFC0
F00000
F00000
F00000
F00000
F00000
F00000
F1F800
F7FE00
FFFF00
FFFF80
FF07C0
FC03C0
FC01E0
F801E0
F800F0
F000F0
F000F0
F000F0
F000F0
F000F0
F000F0
F800E0
F801E0
FC03E0
FE03C0
FF8FC0
FFFF80
F7FF00
F3FC00
ENDCHAR
STARTCHAR 0184
ENCODING 388
SWIDTH 680 0
DWIDTH 34 0
BBX 29 32 3 0
BITMAP
01F00000
03F00000
07F00000
0FF00000
1FF00000
3FF00000
7EF00000
FCF00000
F8F00000
70F00000
20F00000
00F00000
00F00000
00FFFC00
00FFFF00
00FFFF80
00FFFFC0
00F003E0
00F001F0
00F000F0
00F00070
00F00078
00F00078
00F00078
00F00070
00F000F0
00F001F0
00F003E0
00FFFFC0
00FFFF80
00FFFF00
00FFFC00
ENDCHAR
STARTCHAR 0185
ENCODING 389
SWIDTH 500 0
DWIDTH 25 0
BBX 20 22 3 0
BITMAP
078000
0F8000
1F8000
3F8000
7F8000
FB8000
F38000
638000
03FF00
03FFC0
03FFE0
03FFE0
0380F0
0380F0
038070
038070
0380F0
0381F0
03FFE0
03FFE0
03FFC0
03FF00
ENDCHAR
STARTCHAR 0186
ENCODING 390
SWIDTH 580 0
DWIDTH 29 0
BBX 24 33 3 0
BITMAP
007800
03FF00
0FFF80
1FFFE0
3F03F0
7C01F8
F80078
F0007C
60003C
20001E
00001E
00000E
00000F
00000F
00000F
00000F
00000F
00000F
00000F
00000F
00000F
00000F
00000E
00001E
20001E
E0003C
F0007C
F800F8
7C01F0
3F87E0
1FFFC0
0FFF80
03FE00
ENDCHAR
STARTCHAR 0187
ENCODING 391
SWIDTH 580 0
DWIDTH 29 0
BBX 32 41 2 0
BITMAP
00000018
0000007F
000001FF
000001FF
000003E2
000003C0
00000380
00000780
000F0780
007FE780
01FFFF80
03FFFF80
07E07F80
0F801F80
1F000F80
1E000780
3C000700
3C000000
78000000
78000000
78000000
70000000
70000000
F0000000
F0000000
F0000000
F0000000
70000000
70000000
78000000
78000000
78000000
3C000200
3E000700
1E000F80
1F001F00
0F803E00
07F0FE00
03FFFC00
01FFF000
007FE000
ENDCHAR
STARTCHAR 0188
ENCODING 392
SWIDTH 460 0
DWIDTH 23 0
BBX 26 32 2 0
BITMAP
00001F80
00007FC0
0000FFC0
0000FF80
0001F000
0001E000
0001E000
0001E000
0001E000
01F9E000
07FFE000
0FFFE000
1FFFE000
1F07E000
3C03E000
7C01C000
78018000
78000000
70000000
F0000000
F0000000
F0000000
70000000
70000000
78000000
78018000
3C03E000
3E03C000
1F8FC000
0FFF8000
07FF0000
03FC0000
ENDCHAR
STARTCHAR 0189
ENCODING 393
SWIDTH 620 0
DWIDTH 31 0
BBX 27 32 2 0
BITMAP
FFFFC000
FFFFF000
FFFFF800
0F03FC00
0F003E00
0F000F00
0F000780
0F000380
0F0003C0
0F0001C0
0F0001E0
0F0000E0
0F0000E0
0F0000E0
FFFE00E0
FFFE00E0
FFFE00E0
FFFE00E0
0F0000E0
0F0000E0
0F0000E0
0F0001C0
0F0001C0
0F0003C0
0F000780
0F000780
0F001F00
0F003E00
FFFFFC00
FFFFF800
FFFFF000
FFFF8000
ENDCHAR
STARTCHAR 018A
ENCODING 394
SWIDTH 740 0
DWIDTH 37 0
BBX 33 32 2 0
BITMAP
0FFFFF0000
1FFFFFC000
3FFFFFE000
7E3C0FF800
783C00F800
703C007C00
F03C003E00
F03C001E00
783C000F00
703C000F00
203C000780
003C000780
003C000780
003C000380
003C000380
003C000380
003C000380
003C000380
003C000780
003C000780
003C000780
003C000780
003C000F00
003C000F00
003C001E00
003C003E00
003C007C00
003C01F800
01FFFFF000
01FFFFE000
01FFFFC000
01FFFF0000
ENDCHAR
STARTCHAR 018B
ENCODING 395
SWIDTH 500 0
DWIDTH 25 0
BBX 21 32 2 0
BITMAP
0FFFF8
0FFFF8
0FFFF8
000078
000078
000078
000078
000078
000078
000078
000078
000078
000078
01FFF8
07FFF8
0FFFF8
1FFFF8
3E0078
7C0078
780078
700078
F00078
F00078
F00078
780078
780078
7C0078
3E0078
1FFFF8
0FFFF8
07FFF8
01FFF8
ENDCHAR
STARTCHAR 018C
ENCODING 396
SWIDTH 480 0
DWIDTH 24 0
BBX 20 32 2 0
BITMAP
1FFFF0
1FFFF0
1FFFF0
0000F0
0000F0
0000F0
0000F0
0000F0
0000F0
01F8F0
07FEF0
0FFFF0
1FFFF0
1F07F0
3C03F0
7C01F0
7801F0
7800F0
7000F0
F000F0
F000F0
F000F0
7000F0
7000F0
7800F0
7801F0
3C03F0
3E03F0
1F8FF0
0FFFF0
07FFF0
03FCF0
ENDCHAR
STARTCHAR 018D
ENCODING 397
SWIDTH 480 0
DWIDTH 24 0
BBX 20 33 2 -10
BITMAP
01F800
07FE00
0FFF00
1FFF80
1F07C0
3C03C0
7C01E0
7801E0
7800F0
7000F0
F000F0
F000F0
F000F0
7000F0
7800F0
7C00E0
3C01E0
3E03E0
1F03C0
0FCFC0
07FF80
03FF00
01FC00
00F800
007C00
003C00
001C00
781C00
783C00
3FFC00
3FF800
1FF000
07E000
ENDCHAR
STARTCHAR 018E
ENCODING 398
SWIDTH 500 0
DWIDTH 25 0
BBX 21 32 2 0
BITMAP
FFFFF8
FFFFF8
FFFFF8
000078
000078
000078
000078
000078
000078
000078
000078
000078
000078
000078
1FFFF8
1FFFF8
1FFFF8
1FFFF8
000078
000078
000078
000078
000078
000078
000078
000078
000078
000078
FFFFF8
FFFFF8
FFFFF8
FFFFF8
ENDCHAR
STARTCHAR 018F
ENCODING 399
SWIDTH 620 0
DWIDTH 31 0
BBX 27 33 2 0
BITMAP
000F0000
007FE000
01FFF800
03FFFC00
07E07E00
0F801F00
07000F00
00000780
00000780
000003C0
000003C0
000001E0
000001E0
000001E0
000001E0
FFFFFFE0
FFFFFFE0
FFFFFFE0
FFFFFFE0
700001E0
700001E0
780001E0
780001E0
780003C0
3C0003C0
3E000780
1E000F80
1F001F00
0F803E00
07F0FE00
03FFFC00
01FFF000
007FE000
ENDCHAR
STARTCHAR 0190
ENCODING 400
SWIDTH 480 0
DWIDTH 24 0
BBX 22 33 1 0
BITMAP
007800
03FF00
07FFC0
0FFFE0
1F03F0
3E00F0
3C0078
380078
780078
780000
380000
3C0000
3E0000
1F8000
0FFC00
07FC00
0FFC00
1FFC00
3E0000
7C0000
780000
F00000
F00000
F00000
F0003C
F0003C
78003C
780078
3E00F8
3F87F0
1FFFE0
0FFFC0
03FF00
ENDCHAR
STARTCHAR 0191
ENCODING 401
SWIDTH 500 0
DWIDTH 25 0
BBX 28 42 -5 -10
BITMAP
01FFFFF0
01FFFFF0
01FFFFF0
01E00000
01E00000
01E00000
01E00000
01E00000
01E00000
01E00000
01E00000
01E00000
01E00000
01E00000
01FFFF80
01FFFF80
01FFFF80
01FFFF80
01E00000
01E00000
01E00000
01E00000
01E00000
01E00000
01E00000
01E00000
01E00000
01E00000
01E00000
01E00000
01E00000
01E00000
01E00000
01E00000
01E00000
01E00000
01E00000
01E00000
37C00000
7FC00000
FF800000
7E000000
ENDCHAR
STARTCHAR 0192
ENCODING 402
SWIDTH 320 0
DWIDTH 16 0
BBX 19 43 -1 -10
BITMAP
000700
001FE0
003FE0
007FC0
00F880
00F000
00F000
00F000
00F000
00F000
00F000
00F000
1FFF00
1FFF00
1FFF00
1FFF00
00F000
00F000
00F000
00F000
00F000
00F000
00F000
00F000
00F000
00F000
00F000
00F000
00F000
00F000
00F000
00F000
00F000
00F000
00F000
00F000
00F000
00E000
01E000
37E000
7FC000
FF8000
7F0000
ENDCHAR
STARTCHAR 0193
ENCODING 403
SWIDTH 580 0
DWIDTH 29 0
BBX 32 41 2 0
BITMAP
00000018
0000007F
000001FF
000001FF
000003E2
000003C0
00000380
00000780
000F0780
007FE780
01FFFF80
03FFFF80
07E07F80
0F801F80
1F000F80
1E000780
3C000700
3C000000
78000000
78000000
78000000
70000000
70000000
F0000000
F007FF80
F007FF80
F007FF80
7007FF80
70000780
78000780
78000780
78000780
3C000780
3E000780
1E000F80
1F001F00
0F803E00
07F0FE00
03FFFC00
01FFF000
007FE000
ENDCHAR
STARTCHAR 0194
ENCODING 404
SWIDTH 640 0
DWIDTH 32 0
BBX 27 42 3 -10
BITMAP
F00001E0
F00003C0
F00003C0
78000380
78000780
38000780
3C000F00
3C000F00
1E000F00
1E001E00
1E001E00
0F001E00
0F003C00
0F003C00
07803800
07807800
03807800
03C0F000
03C0F000
01E0F000
01E1E000
01E1E000
00F1E000
00F3C000
00F3C000
007B8000
007F8000
003F8000
003F0000
003F0000
001F0000
001E0000
003F0000
003F0000
007F8000
007F8000
007B8000
0073C000
007F8000
007F8000
003F8000
001F0000
ENDCHAR
STARTCHAR 0195
ENCODING 405
SWIDTH 700 0
DWIDTH 35 0
BBX 31 32 2 0
BITMAP
F0000000
F0000000
F0000000
F0000000
F0000000
F0000000
F0000000
F0000000
F0000000
F0FC0000
F3FF001E
F7FF801E
FFFFC01E
FF03C01E
FE01E01E
FC01E01E
F800E01E
F800F01E
F000F01E
F000F01E
F000F01E
F000F01E
F000F01E
F000F01E
F000F01E
F000F01E
F000F01E
F000783E
F0007C7C
F0003FFC
F0001FF8
F0000FE0
ENDCHAR
STARTCHAR 0196
ENCODING 406
SWIDTH 360 0
DWIDTH 18 0
BBX 14 32 2 0
BITMAP
F000
F000
F000
F000
F000
F000
F000
F000
F000
F000
F000
F000
F000
F000
F000
F000
F000
F000
F000
F000
F000
F000
F000
F000
F000
F000
F03C
783C
7C7C
3FF8
3FF0
0FE0
ENDCHAR
STARTCHAR 0197
ENCODING 407
SWIDTH 300 0
DWIDTH 15 0
BBX 11 32 2 0
BITMAP
FFE0
FFE0
FFE0
0F00
0F00
0F00
0F00
0F00
0F00
0F00
0F00
0F00
0F00
0F00
FFE0
FFE0
FFE0
FFE0
0F00
0F00
0F00
0F00
0F00
0F00
0F00
0F00
0F00
0F00
FFE0
FFE0
FFE0
FFE0
ENDCHAR
STARTCHAR 0198
ENCODING 408
SWIDTH 540 0
DWIDTH 27 0
BBX 22 41 2 0
BITMAP
030000
0FE000
3FE000
3FE000
7C4000
780000
F00000
F00000
F00000
F001F0
F003E0
F003C0
F007C0
F00F80
F00F00
F01E00
F03E00
F03C00
F07800
F0F800
F1F000
F1E000
F3E000
F7C000
F7E000
FFF000
FFF000
FE7800
FC7C00
FC3E00
F81E00
F01F00
F00F80
F00780
F003C0
F003E0
F001E0
F000F0
F000F8
F0007C
F0003C
ENDCHAR
STARTCHAR 0199
ENCODING 409
SWIDTH 420 0
DWIDTH 21 0
BBX 17 41 2 0
BITMAP
030000
0FE000
3FE000
3FE000
7C4000
780000
F00000
F00000
F00000
F00000
F00000
F00000
F00000
F00000
F00000
F00000
F00000
F00000
F00000
F03E00
F07C00
F07800
F0F000
F1F000
F3E000
F3C000
F7C000
FF8000
FF8000
FF8000
FFC000
FFE000
F9F000
F8F000
F0F800
F07C00
F03C00
F01E00
F01F00
F00F00
F00780
ENDCHAR
STARTCHAR 019A
ENCODING 410
SWIDTH 300 0
DWIDTH 15 0
BBX 11 32 2 0
BITMAP
0F00
0F00
0F00
0F00
0F00
0F00
0F00
0F00
0F00
0F00
0F00
0F00
0F00
0F00
FFE0
FFE0
FFE0
FFE0
0F00
0F00
0F00
0F00
0F00
0F00
0F00
0F00
0F00
0F00
0FE0
0FE0
07E0
07E0
ENDCHAR
STARTCHAR 019B
ENCODING 411
SWIDTH 500 0
DWIDTH 25 0
BBX 20 33 3 0
BITMAP
780000
7E0000
7F0000
3F8E00
07BE00
03FE00
0FFE00
7FF000
7FE000
7FE000
30E000
01F000
01F000
01F800
03F800
03F800
07BC00
07BC00
07BC00
0F1E00
0F1E00
0F0F00
1E0F00
1E0F00
1C0780
3C0780
3C0780
7803C0
7803C0
7803C0
F001E0
F001E0
F000F0
ENDCHAR
STARTCHAR 019C
ENCODING 412
SWIDTH 600 0
DWIDTH 30 0
BBX 26 32 2 0
BITMAP
F01E03C0
F01E03C0
F01E03C0
F01E03C0
F01E03C0
F01E03C0
F01E03C0
F01E03C0
F01E03C0
F01E03C0
F01E03C0
F01E03C0
F01E03C0
F01E03C0
F01E03C0
F01E03C0
F01E03C0
F01E03C0
F01E03C0
F01E03C0
F01E03C0
F01E03C0
F01E03C0
701E03C0
701E03C0
703E07C0
783F07C0
787F0FC0
3CFF9FC0
3FF7FFC0
1FE3FFC0
0FC1FBC0
ENDCHAR
STARTCHAR 019D
ENCODING 413
SWIDTH 600 0
DWIDTH 30 0
BBX 33 42 -5 -10
BITMAP
01F0000780
01F0000780
01F8000780
01FC000780
01FC000780
01FE000780
01FF000780
01EF800780
01E7800780
01E7C00780
01E3E00780
01E1E00780
01E0F00780
01E0F80780
01E0780780
01E03C0780
01E03E0780
01E01F0780
01E00F0780
01E00F8780
01E007C780
01E003C780
01E001E780
01E001F780
01E000F780
01E0007F80
01E0007F80
01E0003F80
01E0001F80
01E0001F80
01E0000F80
01E0000780
01E0000000
01E0000000
01E0000000
01E0000000
01E0000000
01E0000000
37C0000000
7FC0000000
FF80000000
7E00000000
ENDCHAR
STARTCHAR 019E
ENCODING 414
SWIDTH 480 0
DWIDTH 24 0
BBX 20 34 2 -11
BITMAP
00FC00
F3FF00
F7FF80
FFFFC0
FF03C0
FE01E0
FC01E0
F800E0
F800F0
F000F0
F000F0
F000F0
F000F0
F000F0
F000F0
F000F0
F000F0
F000F0
F000F0
F000F0
F000F0
F000F0
F000F0
0000F0
0000F0
0000F0
0000F0
0000F0
0000F0
0000F0
0000F0
0000F0
000030
000010
ENDCHAR
STARTCHAR 019F
ENCODING 415
SWIDTH 620 0
DWIDTH 31 0
BBX 27 33 2 0
BITMAP
000F0000
007FE000
01FFF800
03FFFC00
07E07E00
0F801F00
1F000F00
1E000780
3C000780
3C0003C0
780003C0
780001E0
780001E0
700001E0
700001E0
FFFFFFE0
FFFFFFE0
FFFFFFE0
FFFFFFE0
700001E0
700001E0
780001E0
780001E0
780003C0
3C0003C0
3E000780
1E000F80
1F001F00
0F803E00
07F0FE00
03FFFC00
01FFF000
007FE000
ENDCHAR
STARTCHAR 01A0
ENCODING 416
SWIDTH 700 0
DWIDTH 35 0
BBX 33 33 2 0
BITMAP
000F000C00
007FE01F00
01FFF81F80
03FFFC1F80
07E07E1F80
0F801F0580
1F000F0180
1E00078180
3C00078180
3C0003C300
780003C600
780001EC00
780001F800
700001E000
700001E000
F00000E000
F00000E000
F00000E000
F00000E000
700001E000
700001E000
780001E000
780001E000
780003C000
3C0003C000
3E00078000
1E000F8000
1F001F0000
0F803E0000
07F0FE0000
03FFFC0000
01FFF00000
007FE00000
ENDCHAR
STARTCHAR 01A1
ENCODING 417
SWIDTH 520 0
DWIDTH 26 0
BBX 25 28 2 0
BITMAP
00001C00
00003F00
00003F00
00003F80
00001F80
01F80180
07FE0180
0FFF0180
1FFF8300
1F07C200
3C03C600
7C01F800
7801F000
7800F000
7000F000
F000F000
F000F000
F000F000
7000F000
7000F000
7800E000
7801E000
3C03E000
3E03C000
1F8FC000
0FFF8000
07FF0000
03FC0000
ENDCHAR
STARTCHAR 01A2
ENCODING 418
SWIDTH 700 0
DWIDTH 35 0
BBX 31 43 2 -10
BITMAP
000E0000
007FEFFE
01FFFFFE
03FFFFFE
07E07F1E
0F801F1E
1F000F1E
1E000F1E
3C000F1E
3C000F1E
78000F1E
78000F1E
78000F1E
70000F1E
70000F1E
F0000F1E
F0000F1E
F0000F1E
F0000F1E
70000F1E
70000F1E
78000F1E
78000F1E
78000F1E
3C000F1E
3E000F1E
1E000F1E
1F001F1E
0F803E1E
07F0FE1E
03FFF81E
01FFF01E
007FE01E
0000001E
0000001E
0000001E
0000001E
0000001E
0000001E
0000001E
0000001E
0000001E
0000001E
ENDCHAR
STARTCHAR 01A3
ENCODING 419
SWIDTH 560 0
DWIDTH 28 0
BBX 24 34 2 -11
BITMAP
01F800
07FFFF
0FFFFF
1FFFFF
1F070F
3C070F
7C070F
78070F
78070F
70070F
F0070F
F0070F
F0070F
70070F
70070F
78070F
78070F
3C070F
3E070F
1F8F0F
0FFF0F
07FF0F
03FC0F
00000F
00000F
00000F
00000F
00000F
00000F
00000F
00000F
00000F
000007
000001
ENDCHAR
STARTCHAR 01A4
ENCODING 420
SWIDTH 660 0
DWIDTH 33 0
BBX 29 32 2 0
BITMAP
0FFFFF00
1FFFFF80
3FFFFFE0
7E3C0FF0
783C01F0
703C00F8
F03C0078
F03C0038
783C0038
703C0038
203C0038
003C0078
003C00F8
003C01F0
003FFFE0
003FFFE0
003FFF80
003FFE00
003C0000
003C0000
003C0000
003C0000
003C0000
003C0000
003C0000
003C0000
003C0000
003C0000
003C0000
003C0000
003C0000
003C0000
ENDCHAR
STARTCHAR 01A5
ENCODING 421
SWIDTH 480 0
DWIDTH 24 0
BBX 20 44 2 -11
BITMAP
038000
1FE000
3FE000
7FC000
7C0000
780000
F00000
F00000
F00000
F00000
F1F800
F7FE00
FFFF00
FFFF80
FF07C0
FC03C0
FC01E0
F801E0
F800F0
F000F0
F000F0
F000F0
F000F0
F000F0
F000F0
F800E0
F801E0
FC03E0
FE03C0
FF8FC0
FFFF80
F7FF00
F3FC00
F00000
F00000
F00000
F00000
F00000
F00000
F00000
F00000
F00000
300000
100000
ENDCHAR
STARTCHAR 01A6
ENCODING 422
SWIDTH 480 0
DWIDTH 24 0
BBX 20 39 2 -7
BITMAP
F00000
F00000
F00000
F00000
F00000
F00000
F00000
FFFC00
FFFF00
FFFF80
FFFFC0
F003E0
F001E0
F000E0
F000F0
F000F0
F000F0
F000F0
F001E0
F003E0
FFFFC0
FFFF80
FFFF00
FFFE00
F00E00
F00F00
F00700
F00780
F00780
F003C0
F003C0
F001C0
0001E0
0001E0
0001E0
0000E0
0000F0
0000F0
0000F0
ENDCHAR
STARTCHAR 01A7
ENCODING 423
SWIDTH 480 0
DWIDTH 24 0
BBX 20 33 2 0
BITMAP
00F000
03FE00
0FFF00
0FFF80
1F0FC0
3E03C0
3C01C0
3C01E0
3801E0
0001E0
0001E0
0003C0
0007C0
001F80
003F00
01FE00
07FC00
0FF000
1FC000
3F0000
7C0000
780000
780000
F00000
F000F0
F000F0
7800F0
7801E0
7C03E0
3F0FC0
1FFF80
0FFF00
03FE00
ENDCHAR
STARTCHAR 01A8
ENCODING 424
SWIDTH 380 0
DWIDTH 19 0
BBX 15 23 2 0
BITMAP
0180
0FF0
1FF8
3FFC
7C3C
781C
001C
003C
007C
01F8
07F0
1FE0
3F00
7C00
7800
F000
F01E
701E
781E
7C7C
3FFC
1FF8
0FE0
ENDCHAR
STARTCHAR 01A9
ENCODING 425
SWIDTH 500 0
DWIDTH 25 0
BBX 21 32 2 0
BITMAP
FFFFF8
FFFFF8
FFFFF8
F80000
7C0000
3C0000
1E0000
1F0000
0F0000
078000
07C000
03E000
01E000
01F000
00F800
007800
007800
00F800
01F000
01E000
03C000
07C000
078000
0F0000
1F0000
3E0000
3C0000
7C0000
FFFFF8
FFFFF8
FFFFF8
FFFFF8
ENDCHAR
STARTCHAR 01AA
ENCODING 426
SWIDTH 360 0
DWIDTH 18 0
BBX 22 43 2 -10
BITMAP
038000
1FE000
3FF000
7FF800
7C7C00
783C00
F03C00
F03C00
703C00
787C00
7FFC00
3FFC00
1FFC00
07FC00
003C00
003C00
003C00
003C00
003C00
003C00
003C00
003C00
003C00
003C00
003C00
003C00
003C00
003C00
003C00
003C00
003C00
003C00
003C00
003C00
003C00
003C00
003C00
001C00
001E00
001FB0
000FF8
0007FC
0003F0
ENDCHAR
STARTCHAR 01AB
ENCODING 427
SWIDTH 340 0
DWIDTH 17 0
BBX 13 39 2 -10
BITMAP
0080
0180
0780
0780
0780
0780
0780
FFF8
FFF8
FFF8
0780
0780
0780
0780
0780
0780
0780
0780
0780
0780
0780
0780
0780
0780
0780
07F0
07F0
07F0
03F0
00F0
00F0
00F0
00F0
00F0
00F0
1BE0
3FE0
7FC0
3F00
ENDCHAR
STARTCHAR 01AC
ENCODING 428
SWIDTH 580 0
DWIDTH 29 0
BBX 25 32 2 0
BITMAP
0FFFFF80
1FFFFF80
3FFFFF80
7E070000
78070000
70070000
F0070000
F0070000
78070000
70070000
20070000
00070000
00070000
00070000
00070000
00070000
00070000
00070000
00070000
00070000
00070000
00070000
00070000
00070000
00070000
00070000
00070000
00070000
00070000
00070000
00070000
00070000
ENDCHAR
STARTCHAR 01AD
ENCODING 429
SWIDTH 340 0
DWIDTH 17 0
BBX 16 33 2 0
BITMAP
0038
00FF
01FF
03FE
07C4
0780
0780
0780
0780
0780
0780
FFF8
FFF8
FFF8
0780
0780
0780
0780
0780
0780
0780
0780
0780
0780
0780
0780
0780
0780
0780
07F0
07F0
07F0
03F0
ENDCHAR
STARTCHAR 01AE
ENCODING 430
SWIDTH 500 0
DWIDTH 25 0
BBX 21 42 2 -10
BITMAP
FFFFF8
FFFFF8
FFFFF8
007800
007800
007800
007800
007800
007800
007800
007800
007800
007800
007800
007800
007800
007800
007800
007800
007800
007800
007800
007800
007800
007800
007800
007800
007800
007800
007800
007800
007800
007800
007800
007800
007800
007800
007800
003EC0
003FE0
001FF0
0007E0
ENDCHAR
STARTCHAR 01AF
ENCODING 431
SWIDTH 680 0
DWIDTH 34 0
BBX 32 33 2 0
BITMAP
00000018
F00007BE
F00007FF
F00007FF
F00007BF
F000078B
F0000783
F0000783
F0000782
F0000786
F000078C
F0000798
F00007E0
F0000780
F0000780
F0000780
F0000780
F0000780
F0000780
F0000780
F0000780
F0000780
F0000780
70000780
78000700
78000F00
3C001F00
3E003E00
1F007C00
0FC1FC00
07FFF800
03FFE000
00FFC000
ENDCHAR
STARTCHAR 01B0
ENCODING 432
SWIDTH 560 0
DWIDTH 28 0
BBX 27 28 2 0
BITMAP
00000700
00000FC0
00000FC0
00000FE0
000007E0
00000060
F000F060
F000F040
F000F0C0
F000F080
F000F180
F000F600
F000FC00
F000F000
F000F000
F000F000
F000F000
F000F000
F000F000
7000F000
7801F000
7801F000
7803F000
3C07F000
3F1FF000
1FFFF000
0FFEF000
07F8F000
ENDCHAR
STARTCHAR 01B1
ENCODING 433
SWIDTH 620 0
DWIDTH 31 0
BBX 27 32 2 0
BITMAP
FFE07FE0
FFE07FE0
FFE07FE0
07E07E00
0F801F00
1F000F00
1E000780
3C000780
3C0003C0
780003C0
780001E0
780001E0
700001E0
700001E0
F00000E0
F00000E0
F00000E0
F00000E0
700001E0
700001E0
780001E0
780001E0
780003C0
3C0003C0
3E000780
1E000F80
1F001F00
0F803E00
07F0FE00
03FFFC00
01FFF000
007FE000
ENDCHAR
STARTCHAR 01B2
ENCODING 434
SWIDTH 580 0
DWIDTH 29 0
BBX 24 33 3 0
BITMAP
0000C0
F001F8
F001FC
F000FE
78001F
78000F
38000F
3C000F
3C000F
1E000F
1E001E
1E001E
0F001E
0F003C
0F003C
078038
078078
038078
03C0F0
03C0F0
01E0F0
01E1E0
01E1E0
00F1E0
00F3C0
00F3C0
007B80
007F80
003F80
003F00
003F00
001F00
001E00
ENDCHAR
STARTCHAR 01B3
ENCODING 435
SWIDTH 620 0
DWIDTH 31 0
BBX 32 33 3 0
BITMAP
000000F0
F00003FC
780007FE
7C000FFF
3E001F0F
1E001E07
1F003C00
0F807C00
07807800
03C0F000
03E1F000
01E3E000
00F3C000
00FFC000
007F8000
003F0000
003E0000
001E0000
001E0000
001E0000
001E0000
001E0000
001E0000
001E0000
001E0000
001E0000
001E0000
001E0000
001E0000
001E0000
001E0000
001E0000
001E0000
ENDCHAR
STARTCHAR 01B4
ENCODING 436
SWIDTH 620 0
DWIDTH 31 0
BBX 27 33 3 -10
BITMAP
00003E00
F0007F80
F001FFC0
7001FFE0
7803E180
7803C000
3C038000
3C078000
3C078000
1E0F0000
1E0F0000
1E0F0000
0F1E0000
0F1E0000
071E0000
07BC0000
07BC0000
03FC0000
03F80000
03F80000
01F00000
01F00000
01F00000
01E00000
01E00000
01E00000
03C00000
03C00000
07C00000
3F800000
7F000000
7F000000
7C000000
ENDCHAR
STARTCHAR 01B5
ENCODING 437
SWIDTH 520 0
DWIDTH 26 0
BBX 22 32 2 0
BITMAP
FFFFFC
FFFFFC
FFFFFC
00003C
00007C
0000F8
0000F0
0001F0
0003E0
0003C0
000780
000F80
000F00
001E00
1FFFF0
1FFFF0
1FFFF0
1FFFF0
01F000
01E000
03C000
07C000
078000
0F0000
1F0000
3E0000
3C0000
7C0000
FFFFFC
FFFFFC
FFFFFC
FFFFFC
ENDCHAR
STARTCHAR 01B6
ENCODING 438
SWIDTH 400 0
DWIDTH 20 0
BBX 16 22 2 0
BITMAP
FFFF
FFFF
FFFF
001E
003E
007C
0078
00F8
01F0
3FFC
3FFC
3FFC
3FFC
0F00
1F00
3E00
3C00
7C00
FFFF
FFFF
FFFF
FFFF
ENDCHAR
STARTCHAR 01B7
ENCODING 439
SWIDTH 520 0
DWIDTH 26 0
BBX 22 32 2 0
BITMAP
FFFFFC
FFFFFC
FFFFFC
00003C
00007C
0000F8
0000F0
0001F0
0003E0
0003C0
000780
000F80
000F00
001FC0
003FE0
0003F0
0000F8
000078
00003C
00003C
00001C
00001C
00001C
30001C
78003C
78003C
7C0078
3E00F8
1F83F0
0FFFE0
07FFC0
01FF00
ENDCHAR
STARTCHAR 01B8
ENCODING 440
SWIDTH 520 0
DWIDTH 26 0
BBX 22 32 2 0
BITMAP
FFFFFC
FFFFFC
FFFFFC
F80000
7C0000
3C0000
1E0000
1F0000
0F8000
078000
07C000
03E000
01E000
07F000
0FF800
1F8000
3E0000
7C0000
780000
780000
700000
F00000
F00000
700010
78003C
78003C
7C0078
3E00F8
1F83F0
0FFFE0
07FFC0
01FF00
ENDCHAR
STARTCHAR 01B9
ENCODING 441
SWIDTH 420 0
DWIDTH 21 0
BBX 18 32 2 -10
BITMAP
FFFFC0
FFFFC0
FFFFC0
780000
7C0000
3E0000
1E0000
1F0000
0F8000
078000
03C000
03E000
0FE000
1FF000
3F0000
3C0000
7C0000
780000
780000
700000
F00000
F00000
F00000
700000
780000
780000
3C0200
3E0700
1F9F80
0FFF80
07FE00
01FC00
ENDCHAR
STARTCHAR 01BA
ENCODING 442
SWIDTH 380 0
DWIDTH 19 0
BBX 16 32 2 -10
BITMAP
FFFF
FFFF
FFFF
001E
003E
007C
0078
00F8
01F0
01E0
03F0
07F8
07FC
003C
001E
001E
003E
007C
01F8
0FF0
1FC0
3F00
7C00
7800
7000
700E
781E
781E
3FFC
3FFC
1FF8
07E0
ENDCHAR
STARTCHAR 01BB
ENCODING 443
SWIDTH 420 0
DWIDTH 21 0
BBX 18 33 2 0
BITMAP
01E000
07F800
1FFE00
3FFF00
3E1F00
780780
780780
700380
F003C0
0003C0
000380
000780
000780
000F00
001F00
FFFFC0
FFFFC0
FFFFC0
FFFFC0
03E000
0FC000
0F0000
1E0000
3E0000
3C0000
780000
780000
700000
F00000
FFFFC0
FFFFC0
FFFFC0
FFFFC0
ENDCHAR
STARTCHAR 01BC
ENCODING 444
SWIDTH 460 0
DWIDTH 23 0
BBX 19 32 2 0
BITMAP
FFFF80
FFFF80
FFFF80
3C0000
3C0000
3C0000
3C0000
380000
380000
7BF000
7FFC00
7FFE00
7FFF00
7C0F80
780780
7003C0
1003C0
0001C0
0001E0
0001E0
0001E0
0001E0
0001E0
0001E0
1003C0
3003C0
F807C0
7C0F80
3E1F00
3FFF00
0FFE00
07F800
ENDCHAR
STARTCHAR 01BD
ENCODING 445
SWIDTH 380 0
DWIDTH 19 0
BBX 15 22 2 0
BITMAP
FFFC
FFFC
FFFC
1C00
3C00
3D80
3FE0
3FF8
3FF8
3C7C
781C
001E
001E
000E
100E
701E
781E
783C
3E7C
1FF8
1FF8
07E0
ENDCHAR
STARTCHAR 01BE
ENCODING 446
SWIDTH 460 0
DWIDTH 23 0
BBX 19 29 2 0
BITMAP
008000
018000
078000
078000
078000
078000
078000
FFF800
FFF800
FFF800
078000
078000
078000
078000
07C000
03F000
01FE00
007F80
001FC0
0007C0
0003E0
0001E0
0F01E0
0F01E0
0783E0
07C7C0
03FF80
01FF80
00FE00
ENDCHAR
STARTCHAR 01BF
ENCODING 447
SWIDTH 420 0
DWIDTH 21 0
BBX 18 34 2 -11
BITMAP
03F000
FFFC00
FFFE00
FFFF00
FC0F80
F80780
F80780
F00380
F003C0
F003C0
F00380
F00780
F00780
F00F00
F01F00
F03E00
F07C00
F0F800
F3F000
F7E000
FF8000
FF0000
FE0000
FC0000
FC0000
F80000
F80000
F00000
F00000
F00000
F00000
F00000
300000
100000
ENDCHAR
STARTCHAR 01C0
ENCODING 448
SWIDTH 160 0
DWIDTH 8 0
BBX 4 43 2 -11
BITMAP
F0
F0
F0
F0
F0
F0
F0
F0
F0
F0
F0
F0
F0
F0
F0
F0
F0
F0
F0
F0
F0
F0
F0
F0
F0
F0
F0
F0
F0
F0
F0
F0
F0
F0
F0
F0
F0
F0
F0
F0
F0
30
10
ENDCHAR
STARTCHAR 01C1
ENCODING 449
SWIDTH 300 0
DWIDTH 15 0
BBX 11 43 2 -11
BITMAP
F0E0
F0E0
F0E0
F0E0
F0E0
F0E0
F0E0
F0E0
F0E0
F0E0
F0E0
F0E0
F0E0
F0E0
F0E0
F0E0
F0E0
F0E0
F0E0
F0E0
F0E0
F0E0
F0E0
F0E0
F0E0
F0E0
F0E0
F0E0
F0E0
F0E0
F0E0
F0E0
F0E0
F0E0
F0E0
F0E0
F0E0
F0E0
F0E0
F0E0
F0E0
3060
1000
ENDCHAR
STARTCHAR 01C2
ENCODING 450
SWIDTH 420 0
DWIDTH 21 0
BBX 18 32 2 0
BITMAP
01E000
01E000
01E000
01E000
01E000
01E000
01E000
01E000
01E000
01E000
FFFFC0
FFFFC0
FFFFC0
01E000
01E000
01E000
01E000
01E000
FFFFC0
FFFFC0
FFFFC0
FFFFC0
01E000
01E000
01E000
01E000
01E000
01E000
01E000
01E000
01E000
01E000
ENDCHAR
STARTCHAR 01C3
ENCODING 451
SWIDTH 160 0
DWIDTH 8 0
BBX 5 32 2 0
BITMAP
F0
F0
F0
F0
F0
F0
F0
F0
F0
F0
F0
F0
F0
F0
F0
F0
F0
F0
F0
F0
F0
F0
00
00
00
00
00
70
F8
F8
F8
F0
ENDCHAR
STARTCHAR 01C4
ENCODING 452
SWIDTH 1160 0
DWIDTH 58 0
BBX 54 42 2 0
BITMAP
00000000060080
00000000030180
00000000038300
0000000001C700
0000000001EE00
0000000000FC00
0000000000FC00
00000000000000
00000000000000
00000000000000
FFFFC000FFFFFC
FFFFF000FFFFFC
FFFFF800FFFFFC
0F03FC0000003C
0F007E00000078
0F001F000000F8
0F000F800001F0
0F0007800001E0
0F0003C00003E0
0F0003C00007C0
0F0001E0000780
0F0001E0000F00
0F0001E0001F00
0F0001E0001E00
0F0000E0003C00
0F0000E0007C00
0F0000E000F800
0F0000E000F000
0F0001E001F000
0F0001E003E000
0F0001E003C000
0F0001C0078000
0F0003C00F8000
0F0007C00F0000
0F0007801E0000
0F000F803E0000
0F001F007C0000
0F007E00780000
FFFFFC00FFFFFC
FFFFF800FFFFFC
FFFFF000FFFFFC
FFFF8000FFFFFC
ENDCHAR
STARTCHAR 01C5
ENCODING 453
SWIDTH 1020 0
DWIDTH 51 0
BBX 47 32 2 0
BITMAP
FFFFC000200C
FFFFF0003018
FFFFF8001838
0F03FC000C70
0F007E000EE0
0F001F0007E0
0F000F8007C0
0F0007800000
0F0003C00000
0F0003C00000
0F0001E0FFFE
0F0001E0FFFE
0F0001E0FFFE
0F0001E0001E
0F0000E0003C
0F0000E0007C
0F0000E000F8
0F0000E000F0
0F0001E001F0
0F0001E003E0
0F0001E003C0
0F0001C00780
0F0003C00F80
0F0007C00F00
0F0007801E00
0F000F803E00
0F001F007C00
0F007E007800
FFFFFC00FFFE
FFFFF800FFFE
FFFFF000FFFE
FFFF8000FFFE
ENDCHAR
STARTCHAR 01C6
ENCODING 454
SWIDTH 880 0
DWIDTH 44 0
BBX 40 32 2 0
BITMAP
0000F01004
0000F0180C
0000F00C18
0000F00E38
0000F00770
0000F007F0
0000F003E0
0000F00000
0000F00000
01F8F00000
07FEF07FFF
0FFFF07FFF
1FFFF07FFF
1F07F0001F
3C03F0001E
7C01F0003C
7801F0007C
7800F000F8
7000F000F0
F000F001F0
F000F003E0
F000F003C0
7000F00780
7000F00F80
7800F00F00
7801F01E00
3C03F03E00
3E03F07C00
1F8FF07FFF
0FFFF07FFF
07FFF07FFF
03FCF07FFF
ENDCHAR
STARTCHAR 01C7
ENCODING 455
SWIDTH 860 0
DWIDTH 43 0
BBX 40 32 2 0
BITMAP
F00000000F
F00000000F
F00000000F
F00000000F
F00000000F
F00000000F
F00000000F
F00000000F
F00000000F
F00000000F
F00000000F
F00000000F
F00000000F
F00000000F
F00000000F
F00000000F
F00000000F
F00000000F
F00000000F
F00000000F
F00000000F
F00000000F
F00000000F
F00000000F
F00000000F
F00000000F
F000003C0E
F000003C1E
FFFFF83E3E
FFFFF81FFC
FFFFF80FF8
FFFFF807F0
ENDCHAR
STARTCHAR 01C8
ENCODING 456
SWIDTH 700 0
DWIDTH 35 0
BBX 31 42 2 -10
BITMAP
F0000000
F000003C
F000003E
F000007E
F000003E
F000003C
F0000000
F0000000
F0000000
F0000000
F000003C
F000003C
F000003C
F000003C
F000003C
F000003C
F000003C
F000003C
F000003C
F000003C
F000003C
F000003C
F000003C
F000003C
F000003C
F000003C
F000003C
F000003C
FFFFF83C
FFFFF83C
FFFFF83C
FFFFF83C
0000003C
0000003C
0000003C
0000003C
0000003C
0000003C
000006F8
00000FF8
00001FF0
00000FC0
ENDCHAR
STARTCHAR 01C9
ENCODING 457
SWIDTH 420 0
DWIDTH 21 0
BBX 17 42 2 -10
BITMAP
F00000
F00700
F00F80
F00F80
F00F80
F00700
F00000
F00000
F00000
F00000
F00700
F00700
F00700
F00700
F00700
F00700
F00700
F00700
F00700
F00700
F00700
F00700
F00700
F00700
F00700
F00700
F00700
F00700
FF0700
7F0700
7F0700
3F0700
000700
000700
000700
000700
000F00
000F00
01BF00
03FE00
07FC00
03F800
ENDCHAR
STARTCHAR 01CA
ENCODING 458
SWIDTH 960 0
DWIDTH 48 0
BBX 44 32 2 0
BITMAP
F80003C00070
F80003C00070
FC0003C00070
FE0003C00070
FE0003C00070
FF0003C00070
FF8003C00070
F7C003C00070
F3C003C00070
F3E003C00070
F1F003C00070
F0F003C00070
F07803C00070
F07C03C00070
F03C03C00070
F01E03C00070
F01F03C00070
F00F83C00070
F00783C00070
F007C3C00070
F003E3C00070
F001E3C00070
F000F3C00070
F000FBC00070
F0007BC00070
F0003FC00070
F0003FC1E070
F0001FC1E0F0
F0000FC1F1F0
F0000FC0FFE0
F00007C07FC0
F00003C03F80
ENDCHAR
STARTCHAR 01CB
ENCODING 459
SWIDTH 800 0
DWIDTH 40 0
BBX 36 42 2 -10
BITMAP
F80003C000
F80003C1E0
FC0003C1F0
FE0003C1F0
FE0003C1F0
FF0003C0E0
FF8003C000
F7C003C000
F3C003C000
F3E003C000
F1F003C1E0
F0F003C1E0
F07803C1E0
F07C03C1E0
F03C03C1E0
F01E03C1E0
F01F03C1E0
F00F83C1E0
F00783C1E0
F007C3C1E0
F003E3C1E0
F001E3C1E0
F000F3C1E0
F000FBC1E0
F0007BC1E0
F0003FC1E0
F0003FC1E0
F0001FC1E0
F0000FC1E0
F0000FC1E0
F00007C1E0
F00003C1E0
00000001E0
00000001E0
00000001E0
00000001E0
00000001E0
00000001E0
00000037C0
0000007FC0
000000FF80
0000007E00
ENDCHAR
STARTCHAR 01CC
ENCODING 460
SWIDTH 680 0
DWIDTH 34 0
BBX 30 41 2 -10
BITMAP
00000078
000000F8
000000FC
000000F8
00000078
00000000
00000000
00000000
00FC0000
F3FF0078
F7FF8078
FFFFC078
FF03C078
FE01E078
FC01E078
F800E078
F800F078
F000F078
F000F078
F000F078
F000F078
F000F078
F000F078
F000F078
F000F078
F000F078
F000F078
F000F078
F000F078
F000F078
F000F078
00000078
00000078
00000078
00000078
00000078
000000F0
00001BF0
00003FE0
00007FE0
00001F80
ENDCHAR
STARTCHAR 01CD
ENCODING 461
SWIDTH 640 0
DWIDTH 32 0
BBX 27 42 3 0
BITMAP
01802000
00C06000
00E0C000
0071C000
007B8000
003F0000
003F0000
00000000
00000000
00000000
001E0000
001F0000
003F0000
003F0000
007F8000
007F8000
007BC000
00F3C000
00F3C000
00F1E000
01E1E000
01E1E000
01C0F000
03C0F000
03C07000
07807800
07FFF800
07FFFC00
0FFFFC00
0FFFFC00
0F001E00
1E001E00
1E001E00
1C000F00
3C000F00
3C000700
78000780
78000780
780003C0
F00003C0
F00003C0
F00001E0
ENDCHAR
STARTCHAR 01CE
ENCODING 462
SWIDTH 400 0
DWIDTH 20 0
BBX 16 32 2 0
BITMAP
300C
1818
1C38
0E70
0FF0
07E0
07E0
0000
0000
01C0
0FF8
1FFC
1FFE
0C1E
000F
000F
000F
000F
03CF
0FFF
1FFF
3FFF
7C0F
780F
F00F
F00F
700F
781F
7E3F
3FFF
1FFF
0FFF
ENDCHAR
STARTCHAR 01CF
ENCODING 463
SWIDTH 300 0
DWIDTH 15 0
BBX 12 42 2 0
BITMAP
8010
4060
60E0
31C0
3BC0
1F80
1F80
0000
0000
0000
FFE0
FFE0
FFE0
0F00
0F00
0F00
0F00
0F00
0F00
0F00
0F00
0F00
0F00
0F00
0F00
0F00
0F00
0F00
0F00
0F00
0F00
0F00
0F00
0F00
0F00
0F00
0F00
0F00
FFE0
FFE0
FFE0
FFE0
ENDCHAR
STARTCHAR 01D0
ENCODING 464
SWIDTH 160 0
DWIDTH 8 0
BBX 12 32 -2 0
BITMAP
C010
6030
3060
38E0
1DC0
1F80
0F80
0000
0000
0000
0F00
0F00
0F00
0F00
0F00
0F00
0F00
0F00
0F00
0F00
0F00
0F00
0F00
0F00
0F00
0F00
0F00
0F00
0F00
0F00
0F00
0F00
ENDCHAR
STARTCHAR 01D1
ENCODING 465
SWIDTH 620 0
DWIDTH 31 0
BBX 27 42 2 0
BITMAP
00803000
00C06000
0060E000
0031C000
003BC000
001F8000
001F8000
00000000
00000000
000F0000
007FE000
01FFF800
03FFFC00
07E07E00
0F801F00
1F000F00
1E000780
3C000780
3C0003C0
780003C0
780001E0
780001E0
700001E0
700001E0
F00000E0
F00000E0
F00000E0
F00000E0
700001E0
700001E0
780001E0
780001E0
780003C0
3C0003C0
3E000780
1E000F80
1F001F00
0F803E00
07F0FE00
03FFFC00
01FFF000
007FE000
ENDCHAR
STARTCHAR 01D2
ENCODING 466
SWIDTH 480 0
DWIDTH 24 0
BBX 20 32 2 0
BITMAP
0C0100
060300
070600
039C00
03FC00
01F800
00F800
000000
000000
01F800
07FE00
0FFF00
1FFF80
1F07C0
3C03C0
7C01E0
7801E0
7800F0
7000F0
F000F0
F000F0
F000F0
7000F0
7000F0
7800E0
7801E0
3C03E0
3E03C0
1F8FC0
0FFF80
07FF00
03FC00
ENDCHAR
STARTCHAR 01D3
ENCODING 467
SWIDTH 580 0
DWIDTH 29 0
BBX 25 42 2 0
BITMAP
01006000
0180C000
00C1C000
00E38000
00770000
007F0000
003E0000
00000000
00000000
00000000
F0000780
F0000780
F0000780
F0000780
F0000780
F0000780
F0000780
F0000780
F0000780
F0000780
F0000780
F0000780
F0000780
F0000780
F0000780
F0000780
F0000780
F0000780
F0000780
F0000780
F0000780
F0000780
70000780
78000700
78000F00
3C001F00
3E003E00
1F007C00
0FC1FC00
07FFF800
03FFE000
00FFC000
ENDCHAR
STARTCHAR 01D4
ENCODING 468
SWIDTH 480 0
DWIDTH 24 0
BBX 20 32 2 0
BITMAP
0C0100
060300
070600
039C00
03FC00
01F800
00F800
000000
000000
000000
F000F0
F000F0
F000F0
F000F0
F000F0
F000F0
F000F0
F000F0
F000F0
F000F0
F000F0
F000F0
F000F0
7000F0
7801F0
7801F0
7803F0
3C07F0
3F1FF0
1FFFF0
0FFEF0
07F8F0
ENDCHAR
STARTCHAR 01D5
ENCODING 469
SWIDTH 580 0
DWIDTH 29 0
BBX 25 42 2 0
BITMAP
01FFE000
01FFE000
01FFE000
01FFE000
01C1C000
03E3E000
03E3E000
03E3E000
03E1E000
00800000
F0000780
F0000780
F0000780
F0000780
F0000780
F0000780
F0000780
F0000780
F0000780
F0000780
F0000780
F0000780
F0000780
F0000780
F0000780
F0000780
F0000780
F0000780
F0000780
F0000780
F0000780
F0000780
70000780
78000700
78000F00
3C001F00
3E003E00
1F007C00
0FC1FC00
07FFF800
03FFE000
00FFC000
ENDCHAR
STARTCHAR 01D6
ENCODING 470
SWIDTH 480 0
DWIDTH 24 0
BBX 20 38 2 0
BITMAP
0FFF00
0FFF00
0FFF00
0FFF00
000000
000000
000000
0F0F00
0F8F80
1F8F80
0F8F80
0F0700
000000
000000
000000
000000
F000F0
F000F0
F000F0
F000F0
F000F0
F000F0
F000F0
F000F0
F000F0
F000F0
F000F0
F000F0
F000F0
7000F0
7801F0
7801F0
7803F0
3C07F0
3F1FF0
1FFFF0
0FFEF0
07F8F0
ENDCHAR
STARTCHAR 01D7
ENCODING 471
SWIDTH 580 0
DWIDTH 29 0
BBX 25 42 2 0
BITMAP
0001C000
00038000
00070000
00060000
000C0000
00EBC000
01F3C000
01E3C000
00E18000
00000000
F0000780
F0000780
F0000780
F0000780
F0000780
F0000780
F0000780
F0000780
F0000780
F0000780
F0000780
F0000780
F0000780
F0000780
F0000780
F0000780
F0000780
F0000780
F0000780
F0000780
F0000780
F0000780
70000780
78000700
78000F00
3C001F00
3E003E00
1F007C00
0FC1FC00
07FFF800
03FFE000
00FFC000
ENDCHAR
STARTCHAR 01D8
ENCODING 472
SWIDTH 480 0
DWIDTH 24 0
BBX 20 40 2 0
BITMAP
001E00
003C00
003800
007000
006000
00C000
008000
000000
000000
0F0F00
0F8F80
1F8F80
0F8F80
0F0700
000000
000000
000000
000000
F000F0
F000F0
F000F0
F000F0
F000F0
F000F0
F000F0
F000F0
F000F0
F000F0
F000F0
F000F0
F000F0
7000F0
7801F0
7801F0
7803F0
3C07F0
3F1FF0
1FFFF0
0FFEF0
07F8F0
ENDCHAR
STARTCHAR 01D9
ENCODING 473
SWIDTH 580 0
DWIDTH 29 0
BBX 25 42 2 0
BITMAP
00808000
00C18000
00630000
00370000
003E0000
00FF8000
01E3C000
01E3C000
00E3C000
00000000
F0000780
F0000780
F0000780
F0000780
F0000780
F0000780
F0000780
F0000780
F0000780
F0000780
F0000780
F0000780
F0000780
F0000780
F0000780
F0000780
F0000780
F0000780
F0000780
F0000780
F0000780
F0000780
70000780
78000700
78000F00
3C001F00
3E003E00
1F007C00
0FC1FC00
07FFF800
03FFE000
00FFC000
ENDCHAR
STARTCHAR 01DA
ENCODING 474
SWIDTH 480 0
DWIDTH 24 0
BBX 20 40 2 0
BITMAP
0C0300
060600
030E00
039C00
01FC00
01F800
00F800
000000
000000
0F0F00
0F8F80
1F8F80
0F8F80
0F0700
000000
000000
000000
000000
F000F0
F000F0
F000F0
F000F0
F000F0
F000F0
F000F0
F000F0
F000F0
F000F0
F000F0
F000F0
F000F0
7000F0
7801F0
7801F0
7803F0
3C07F0
3F1FF0
1FFFF0
0FFEF0
07F8F0
ENDCHAR
STARTCHAR 01DB
ENCODING 475
SWIDTH 580 0
DWIDTH 29 0
BBX 25 42 2 0
BITMAP
01E00000
00E00000
00700000
00300000
00180000
01EFC000
01E3C000
01E3C000
00E18000
00000000
F0000780
F0000780
F0000780
F0000780
F0000780
F0000780
F0000780
F0000780
F0000780
F0000780
F0000780
F0000780
F0000780
F0000780
F0000780
F0000780
F0000780
F0000780
F0000780
F0000780
F0000780
F0000780
70000780
78000700
78000F00
3C001F00
3E003E00
1F007C00
0FC1FC00
07FFF800
03FFE000
00FFC000
ENDCHAR
STARTCHAR 01DC
ENCODING 476
SWIDTH 480 0
DWIDTH 24 0
BBX 20 40 2 0
BITMAP
07C000
03C000
01E000
00E000
007000
003000
000800
000000
000000
0F0F00
0F8F80
1F8F80
0F8F80
0F0700
000000
000000
000000
000000
F000F0
F000F0
F000F0
F000F0
F000F0
F000F0
F000F0
F000F0
F000F0
F000F0
F000F0
F000F0
F000F0
7000F0
7801F0
7801F0
7803F0
3C07F0
3F1FF0
1FFFF0
0FFEF0
07F8F0
ENDCHAR
STARTCHAR 01DD
ENCODING 477
SWIDTH 480 0
DWIDTH 24 0
BBX 20 23 2 0
BITMAP
01F800
07FE00
0FFF00
1FFF80
1F07C0
3C03C0
3C01E0
0801E0
0000F0
0000F0
0000F0
FFFFF0
FFFFF0
7FFFF0
7FFFF0
7800E0
7801E0
3C01E0
3E03C0
1F8FC0
0FFF80
07FF00
03FC00
ENDCHAR
STARTCHAR 01DE
ENCODING 478
SWIDTH 640 0
DWIDTH 32 0
BBX 27 42 3 0
BITMAP
01FFE000
01FFE000
01FFE000
01FFE000
00C0E000
01E1F000
03F1F000
03F1F000
01E1E000
00800000
001E0000
001F0000
003F0000
003F0000
007F8000
007F8000
007BC000
00F3C000
00F3C000
00F1E000
01E1E000
01E1E000
01C0F000
03C0F000
03C07000
07807800
07FFF800
07FFFC00
0FFFFC00
0FFFFC00
0F001E00
1E001E00
1E001E00
1C000F00
3C000F00
3C000700
78000780
78000780
780003C0
F00003C0
F00003C0
F00001E0
ENDCHAR
STARTCHAR 01DF
ENCODING 479
SWIDTH 400 0
DWIDTH 20 0
BBX 16 38 2 0
BITMAP
3FFC
3FFC
3FFC
3FFC
0000
0000
0000
3C3C
7E3E
7E3E
3C3E
3C1C
0000
0000
0000
01C0
0FF8
1FFC
1FFE
0C1E
000F
000F
000F
000F
03CF
0FFF
1FFF
3FFF
7C0F
780F
F00F
F00F
700F
781F
7E3F
3FFF
1FFF
0FFF
ENDCHAR
STARTCHAR 01E0
ENCODING 480
SWIDTH 640 0
DWIDTH 32 0
BBX 27 42 3 0
BITMAP
01FFE000
01FFE000
01FFE000
01FFE000
001E0000
003F0000
003F0000
001E0000
000C0000
00000000
001E0000
001F0000
003F0000
003F0000
007F8000
007F8000
007BC000
00F3C000
00F3C000
00F1E000
01E1E000
01E1E000
01C0F000
03C0F000
03C07000
07807800
07FFF800
07FFFC00
0FFFFC00
0FFFFC00
0F001E00
1E001E00
1E001E00
1C000F00
3C000F00
3C000700
78000780
78000780
780003C0
F00003C0
F00003C0
F00001E0
ENDCHAR
STARTCHAR 01E1
ENCODING 481
SWIDTH 400 0
DWIDTH 20 0
BBX 16 38 2 0
BITMAP
3FFC
3FFC
3FFC
3FFC
0000
0000
0000
03C0
03E0
07E0
03E0
03C0
0000
0000
0000
01C0
0FF8
1FFC
1FFE
0C1E
000F
000F
000F
000F
03CF
0FFF
1FFF
3FFF
7C0F
780F
F00F
F00F
700F
781F
7E3F
3FFF
1FFF
0FFF
ENDCHAR
STARTCHAR 01E2
ENCODING 482
SWIDTH 720 0
DWIDTH 36 0
BBX 31 40 3 0
BITMAP
0003FFC0
0003FFC0
0003FFC0
0003FFC0
00000000
00000000
00000000
00000000
001FFFFE
001FFFFE
003FFFFE
003CE000
0078E000
0078E000
0078E000
00F0E000
00F0E000
00F0E000
01E0E000
01E0E000
01C0E000
03C0E000
03FFFFF0
07FFFFF0
07FFFFF0
07FFFFF0
0F00E000
0F00E000
0F00E000
1E00E000
1E00E000
1C00E000
3C00E000
3C00E000
7800E000
7800E000
7800FFFE
F000FFFE
F000FFFE
F000FFFE
ENDCHAR
STARTCHAR 01E3
ENCODING 483
SWIDTH 720 0
DWIDTH 36 0
BBX 32 30 2 0
BITMAP
003FFC00
003FFC00
003FFC00
003FFC00
00000000
00000000
00000000
01C01F80
0FF87FE0
1FFCFFF0
1FFFFFF8
0C1FE07C
000FC03C
000F801E
000F801E
000F000E
03CFFFFF
0FFFFFFF
1FFFFFFF
3FFF0000
7C0F0000
780F0000
F00F8010
F00F8018
700FC03C
781FE07C
7C3FF0F8
3FFDFFF0
1FF8FFE0
0FF03FC0
ENDCHAR
STARTCHAR 01E4
ENCODING 484
SWIDTH 660 0
DWIDTH 33 0
BBX 29 33 2 0
BITMAP
000F0000
007FE000
01FFF800
03FFFC00
07E07E00
0F801F00
1F000F00
1E000780
3C000700
3C000000
78000000
78000000
78000000
70000000
70000000
F0000000
F007FF80
F007FF80
F007FF80
7007FF80
70000780
78000780
78003FF8
78003FF8
3C003FF8
3E003FF8
1E000F80
1F001F00
0F803E00
07F0FE00
03FFFC00
01FFF000
007FE000
ENDCHAR
STARTCHAR 01E5
ENCODING 485
SWIDTH 500 0
DWIDTH 25 0
BBX 25 33 0 -10
BITMAP
007E0200
01FFC780
07FFEF80
0FFFFF00
0F80FE00
1E007C00
1E003C00
1C003C00
3C003C00
3C003C00
1E003C00
1E007800
1F00F800
0FFFF000
0FFFE000
0FFFC000
1EFF0000
1E000000
1E000000
0FC00000
0FFF8000
03FFE000
007FF800
0001F800
FFFFFF80
FFFFFF80
FFFFFF80
FFFFFF80
1F007800
0FF7F800
0FFFF000
03FFE000
00FF8000
ENDCHAR
STARTCHAR 01E6
ENCODING 486
SWIDTH 580 0
DWIDTH 29 0
BBX 25 42 2 0
BITMAP
01006000
0180C000
00C1C000
00E38000
00778000
007F0000
003F0000
00000000
00000000
000F0000
007FE000
01FFF800
03FFFC00
07E07E00
0F801F00
1F000F00
1E000780
3C000700
3C000000
78000000
78000000
78000000
70000000
70000000
F0000000
F007FF80
F007FF80
F007FF80
7007FF80
70000780
78000780
78000780
78000780
3C000780
3E000780
1E000F80
1F001F00
0F803E00
07F0FE00
03FFFC00
01FFF000
007FE000
ENDCHAR
STARTCHAR 01E7
ENCODING 487
SWIDTH 500 0
DWIDTH 25 0
BBX 23 42 2 -10
BITMAP
0C0300
060600
070E00
039C00
03FC00
01F800
01F800
000000
000000
01F808
07FF1E
1FFFBE
3FFFFC
3E03F8
7801F0
7800F0
7000F0
F000F0
F000F0
7800F0
7801E0
7C03E0
3FFFC0
3FFF80
3FFF00
7BFC00
780000
780000
3F0000
3FFC00
0FFF80
01FFE0
0007E0
0001F0
0000F0
F000F0
7800F0
7C01E0
3F9FE0
3FFFC0
0FFF80
03FE00
ENDCHAR
STARTCHAR 01E8
ENCODING 488
SWIDTH 540 0
DWIDTH 27 0
BBX 22 42 2 0
BITMAP
020080
030180
018300
01C700
00EE00
00FE00
007C00
000000
000000
000000
F001F0
F003E0
F003C0
F007C0
F00F80
F00F00
F01E00
F03E00
F03C00
F07800
F0F800
F1F000
F1E000
F3E000
F7C000
F7E000
FFF000
FFF000
FE7800
FC7C00
FC3E00
F81E00
F01F00
F00F80
F00780
F003C0
F003E0
F001E0
F000F0
F000F8
F0007C
F0003C
ENDCHAR
STARTCHAR 01E9
ENCODING 489
SWIDTH 420 0
DWIDTH 21 0
BBX 17 42 2 0
BITMAP
100200
180600
0C0C00
0E1C00
073800
07F800
03F000
03E000
000000
000000
F00000
F00000
F00000
F00000
F00000
F00000
F00000
F00000
F00000
F00000
F03E00
F07C00
F07800
F0F000
F1F000
F3E000
F3C000
F7C000
FF8000
FF8000
FF8000
FFC000
FFE000
F9F000
F8F000
F0F800
F07C00
F03C00
F01E00
F01F00
F00F00
F00780
ENDCHAR
STARTCHAR 01EA
ENCODING 490
SWIDTH 620 0
DWIDTH 31 0
BBX 27 42 2 -9
BITMAP
000F0000
007FE000
01FFF800
03FFFC00
07E07E00
0F801F00
1F000F00
1E000780
3C000780
3C0003C0
780003C0
780001E0
780001E0
700001E0
700001E0
F00000E0
F00000E0
F00000E0
F00000E0
700001E0
700001E0
780001E0
780001E0
780003C0
3C0003C0
3E000780
1E000F80
0F001F00
0F803E00
07F0FE00
03FFFC00
01FFF000
007FE000
00060000
000E0000
000E0000
000E0000
000F0000
00078000
0007F400
0003FC00
0001F000
ENDCHAR
STARTCHAR 01EB
ENCODING 491
SWIDTH 480 0
DWIDTH 24 0
BBX 20 32 2 -9
BITMAP
01F800
07FE00
0FFF00
1FFF80
1F07C0
3C03C0
7C01E0
7801E0
7800F0
7000F0
F000F0
F000F0
F000F0
7000F0
7000F0
7800E0
7801E0
3C03E0
3E03C0
1F8FC0
0FFF80
07FF00
03FC00
006000
006000
00E000
00E000
00F000
007800
007F60
003FC0
000F00
ENDCHAR
STARTCHAR 01EC
ENCODING 492
SWIDTH 620 0
DWIDTH 31 0
BBX 27 49 2 -9
BITMAP
00FFF000
00FFF000
00FFF000
00FFF000
00000000
00000000
00000000
000F0000
007FE000
01FFF800
03FFFC00
07E07E00
0F801F00
1F000F00
1E000780
3C000780
3C0003C0
780003C0
780001E0
780001E0
700001E0
700001E0
F00000E0
F00000E0
F00000E0
F00000E0
700001E0
700001E0
780001E0
780001E0
780003C0
3C0003C0
3E000780
1E000F80
0F001F00
0F803E00
07F0FE00
03FFFC00
01FFF000
007FE000
00060000
000E0000
000E0000
000E0000
000F0000
00078000
0007F400
0003FC00
0001F000
ENDCHAR
STARTCHAR 01ED
ENCODING 493
SWIDTH 480 0
DWIDTH 24 0
BBX 20 39 2 -9
BITMAP
0FFF00
0FFF00
0FFF00
0FFF00
000000
000000
000000
01F800
07FE00
0FFF00
1FFF80
1F07C0
3C03C0
7C01E0
7801E0
7800F0
7000F0
F000F0
F000F0
F000F0
7000F0
7000F0
7800E0
7801E0
3C03E0
3E03C0
1F8FC0
0FFF80
07FF00
03FC00
006000
006000
00E000
00E000
00F000
007800
007F60
003FC0
000F00
ENDCHAR
STARTCHAR 01EE
ENCODING 494
SWIDTH 520 0
DWIDTH 26 0
BBX 22 42 2 0
BITMAP
020080
030180
018300
01C700
00EE00
00FE00
007C00
000000
000000
000000
FFFFFC
FFFFFC
FFFFFC
00003C
00007C
0000F8
0000F0
0001F0
0003E0
0003C0
000780
000F80
000F00
001FC0
003FE0
0003F0
0000F8
000078
00003C
00003C
00001C
00001C
00001C
30001C
78003C
78003C
7C0078
3E00F8
1F83F0
0FFFE0
07FFC0
01FF00
ENDCHAR
STARTCHAR 01EF
ENCODING 495
SWIDTH 420 0
DWIDTH 21 0
BBX 18 42 2 -10
BITMAP
180600
0C0C00
0E1C00
073800
07F800
03F000
03F000
000000
000000
000000
FFFFC0
FFFFC0
FFFFC0
000780
000F80
001F00
001E00
003E00
007C00
007800
00F000
01F000
03FC00
03FE00
003E00
000F00
000F80
000780
000780
000380
0003C0
0003C0
000380
000380
000780
000780
100F00
381F00
FE7E00
7FFC00
1FF800
0FE000
ENDCHAR
STARTCHAR 01F0
ENCODING 496
SWIDTH 160 0
DWIDTH 8 0
BBX 15 42 -5 -10
BITMAP
1802
0C06
0E0C
071C
03B8
03F0
01F0
0000
0000
0000
01E0
01E0
01E0
01E0
01E0
01E0
01E0
01E0
01E0
01E0
01E0
01E0
01E0
01E0
01E0
01E0
01E0
01E0
01E0
01E0
01E0
01E0
01E0
01E0
01E0
01E0
01E0
01E0
37C0
7FC0
FF80
7E00
ENDCHAR
STARTCHAR 01F1
ENCODING 497
SWIDTH 1160 0
DWIDTH 58 0
BBX 54 32 2 0
BITMAP
FFFFC000FFFFFC
FFFFF000FFFFFC
FFFFF800FFFFFC
0F03FC0000003C
0F007E00000078
0F001F000000F8
0F000F800001F0
0F0007800001E0
0F0003C00003E0
0F0003C00007C0
0F0001E0000780
0F0001E0000F00
0F0001E0001F00
0F0001E0001E00
0F0000E0003C00
0F0000E0007C00
0F0000E000F800
0F0000E000F000
0F0001E001F000
0F0001E003E000
0F0001E003C000
0F0001C0078000
0F0003C00F8000
0F0007C00F0000
0F0007801E0000
0F000F803E0000
0F001F007C0000
0F007E00780000
FFFFFC00FFFFFC
FFFFF800FFFFFC
FFFFF000FFFFFC
FFFF8000FFFFFC
ENDCHAR
STARTCHAR 01F2
ENCODING 498
SWIDTH 1020 0
DWIDTH 51 0
BBX 47 32 2 0
BITMAP
FFFFC0000000
FFFFF0000000
FFFFF8000000
0F03FC000000
0F007E000000
0F001F000000
0F000F800000
0F0007800000
0F0003C00000
0F0003C00000
0F0001E0FFFE
0F0001E0FFFE
0F0001E0FFFE
0F0001E0001E
0F0000E0003C
0F0000E0007C
0F0000E000F8
0F0000E000F0
0F0001E001F0
0F0001E003E0
0F0001E003C0
0F0001C00780
0F0003C00F80
0F0007C00F00
0F0007801E00
0F000F803E00
0F001F007C00
0F007E007800
FFFFFC00FFFE
FFFFF800FFFE
FFFFF000FFFE
FFFF8000FFFE
ENDCHAR
STARTCHAR 01F3
ENCODING 499
SWIDTH 880 0
DWIDTH 44 0
BBX 40 32 2 0
BITMAP
0000F00000
0000F00000
0000F00000
0000F00000
0000F00000
0000F00000
0000F00000
0000F00000
0000F00000
01F8F00000
07FEF07FFF
0FFFF07FFF
1FFFF07FFF
1F07F0001F
3C03F0001E
7C01F0003C
7801F0007C
7800F000F8
7000F000F0
F000F001F0
F000F003E0
F000F003C0
7000F00780
7000F00F80
7800F00F00
7801F01E00
3C03F03E00
3E03F07C00
1F8FF07FFF
0FFFF07FFF
07FFF07FFF
03FCF07FFF
ENDCHAR
STARTCHAR 01F4
ENCODING 500
SWIDTH 580 0
DWIDTH 29 0
BBX 25 42 2 0
BITMAP
0007C000
00078000
000F0000
000E0000
001C0000
00180000
00300000
00000000
00000000
000F0000
007FE000
01FFF800
03FFFC00
07E07E00
0F801F00
1F000F00
1E000780
3C000700
3C000000
78000000
78000000
78000000
70000000
70000000
F0000000
F007FF80
F007FF80
F007FF80
7007FF80
70000780
78000780
78000780
78000780
3C000780
3E000780
1E000F80
1F001F00
0F803E00
07F0FE00
03FFFC00
01FFF000
007FE000
ENDCHAR
STARTCHAR 01F5
ENCODING 501
SWIDTH 500 0
DWIDTH 25 0
BBX 23 42 2 -10
BITMAP
001E00
003C00
003800
007000
006000
00C000
008000
000000
000000
01F808
07FF1E
1FFFBE
3FFFFC
3E03F8
7801F0
7800F0
7000F0
F000F0
F000F0
7800F0
7801E0
7C03E0
3FFFC0
3FFF80
3FFF00
7BFC00
780000
780000
3F0000
3FFC00
0FFF80
01FFE0
0007E0
0001F0
0000F0
F000F0
7800F0
7C01E0
3F9FE0
3FFFC0
0FFF80
03FE00
ENDCHAR
STARTCHAR 01F6
ENCODING 502
SWIDTH 820 0
DWIDTH 41 0
BBX 37 32 2 0
BITMAP
F000780000
F000780000
F000780000
F000780000
F000780000
F000780000
F000780000
F000780000
F000780000
F000780000
F000780078
F000780078
F000780078
F000780078
FFFFF80078
FFFFF80078
FFFFF80078
FFFFF80078
F000780078
F000780078
F000780078
F000780078
F000780078
F000780078
F000780078
F0003C00F0
F0003C00F0
F0001E01F0
F0001F87E0
F0000FFFC0
F00007FF80
F00001FE00
ENDCHAR
STARTCHAR 01F7
ENCODING 503
SWIDTH 420 0
DWIDTH 21 0
BBX 18 43 2 -10
BITMAP
00E000
F7F800
FFFE00
FFFF00
FE1F00
F80780
F80780
F00380
F003C0
F003C0
F00380
F00780
F00780
F00F00
F01F00
F03E00
F07C00
F0F800
F1F000
F7E000
FFC000
FF0000
FE0000
FE0000
FC0000
F80000
F80000
F00000
F00000
F00000
F00000
F00000
F00000
F00000
F00000
F00000
F00000
F00000
F00000
F00000
F00000
F00000
F00000
ENDCHAR
STARTCHAR 01F8
ENCODING 504
SWIDTH 600 0
DWIDTH 30 0
BBX 26 42 2 0
BITMAP
00F00000
00780000
003C0000
001C0000
000E0000
00060000
00030000
00000000
00000000
00000000
F80003C0
F80003C0
FC0003C0
FE0003C0
FE0003C0
FF0003C0
FF8003C0
F7C003C0
F3C003C0
F3E003C0
F1F003C0
F0F003C0
F07803C0
F07C03C0
F03C03C0
F01E03C0
F01F03C0
F00F83C0
F00783C0
F007C3C0
F003E3C0
F001E3C0
F000F3C0
F000FBC0
F0007BC0
F0003FC0
F0003FC0
F0001FC0
F0000FC0
F0000FC0
F00007C0
F00003C0
ENDCHAR
STARTCHAR 01F9
ENCODING 505
SWIDTH 480 0
DWIDTH 24 0
BBX 20 32 2 0
BITMAP
07C000
03C000
01E000
00E000
007000
003000
001800
000000
000000
00FC00
F3FF00
F7FF80
FFFFC0
FF03C0
FE01E0
FC01E0
F800E0
F800F0
F000F0
F000F0
F000F0
F000F0
F000F0
F000F0
F000F0
F000F0
F000F0
F000F0
F000F0
F000F0
F000F0
F000F0
ENDCHAR
STARTCHAR 01FA
ENCODING 506
SWIDTH 640 0
DWIDTH 32 0
BBX 27 42 3 0
BITMAP
00078000
00070000
000E0000
000C0000
00180000
00100000
001E0000
003F8000
00738000
00618000
00618000
00738000
003F8000
003F0000
007F8000
007F8000
007BC000
00F3C000
00F3C000
00F1E000
01E1E000
01E1E000
01C0F000
03C0F000
03C07000
07807800
07FFF800
07FFFC00
0FFFFC00
0FFFFC00
0F001E00
1E001E00
1E001E00
1C000F00
3C000F00
3C000700
78000780
78000780
780003C0
F00003C0
F00003C0
F00001E0
ENDCHAR
STARTCHAR 01FB
ENCODING 507
SWIDTH 400 0
DWIDTH 20 0
BBX 16 41 2 0
BITMAP
003E
007C
0078
00F0
00E0
01C0
0100
0200
01C0
03F0
07F8
0638
0E18
0638
07F0
03F0
00C0
0000
01C0
0FF8
1FFC
1FFE
0C1E
000F
000F
000F
000F
03CF
0FFF
1FFF
3FFF
7C0F
780F
F00F
F00F
700F
781F
7E3F
3FFF
1FFF
0FFF
ENDCHAR
STARTCHAR 01FC
ENCODING 508
SWIDTH 720 0
DWIDTH 36 0
BBX 31 42 3 0
BITMAP
00003E00
00003C00
00007800
00007000
0000E000
0000C000
00018000
00000000
00000000
00000000
001FFFFE
001FFFFE
003FFFFE
003CE000
0078E000
0078E000
0078E000
00F0E000
00F0E000
00F0E000
01E0E000
01E0E000
01C0E000
03C0E000
03FFFFF0
07FFFFF0
07FFFFF0
07FFFFF0
0F00E000
0F00E000
0F00E000
1E00E000
1E00E000
1C00E000
3C00E000
3C00E000
7800E000
7800E000
7800FFFE
F000FFFE
F000FFFE
F000FFFE
ENDCHAR
STARTCHAR 01FD
ENCODING 509
SWIDTH 720 0
DWIDTH 36 0
BBX 32 32 2 0
BITMAP
00007800
0000F000
0000E000
0001C000
00018000
00030000
00020000
00000000
00000000
01C01F80
0FF87FE0
1FFCFFF0
1FFFFFF8
0C1FE07C
000FC03C
000F801E
000F801E
000F000E
03CFFFFF
0FFFFFFF
1FFFFFFF
3FFF0000
7C0F0000
780F0000
F00F8010
F00F8018
700FC03C
781FE07C
7C3FF0F8
3FFDFFF0
1FF8FFE0
0FF03FC0
ENDCHAR
STARTCHAR 01FE
ENCODING 510
SWIDTH 620 0
DWIDTH 31 0
BBX 27 44 2 -2
BITMAP
0001E000
0003C000
00038000
00070000
000E0000
000C0000
00180000
00000000
000000C0
000F01E0
007FE3E0
01FFFBC0
03FFFFC0
07E07F80
0F801F00
1F001F00
1E003F80
3C007F80
3C007BC0
7800FBC0
7801F1E0
7801E1E0
7003E1E0
7007C1E0
F00780E0
F00F00E0
F01F00E0
F03E00E0
703C01E0
707C01E0
78F801E0
78F001E0
79E003C0
3FE003C0
3FC00780
1F800F80
0F801F00
1FC03E00
1FF0FE00
3FFFFC00
7DFFF000
787FE000
70000000
30000000
ENDCHAR
STARTCHAR 01FF
ENCODING 511
SWIDTH 480 0
DWIDTH 24 0
BBX 21 35 2 -3
BITMAP
001E00
003C00
003800
007000
006000
00C000
008000
000060
000078
01F8F0
07FFF0
0FFFE0
1FFFC0
1F07C0
3C0FC0
7C0FE0
781FE0
783EF0
703CF0
F078F0
F0F8F0
F1F0F0
71E0F0
73E0F0
7FC0E0
7F81E0
3F03E0
3F03C0
1F0FC0
3FFF80
7FFF00
FBFC00
F00000
F00000
200000
ENDCHAR
STARTCHAR 0200
ENCODING 512
SWIDTH 640 0
DWIDTH 32 0
BBX 27 42 3 0
BITMAP
1E3C0000
0F1E0000
070E0000
03870000
01830000
00C18000
00408000
00000000
00000000
00000000
001E0000
001F0000
003F0000
003F0000
007F8000
007F8000
007BC000
00F3C000
00F3C000
00F1E000
01E1E000
01E1E000
01C0F000
03C0F000
03C07000
07807800
07FFF800
07FFFC00
0FFFFC00
0FFFFC00
0F001E00
1E001E00
1E001E00
1C000F00
3C000F00
3C000700
78000780
78000780
780003C0
F00003C0
F00003C0
F00001E0
ENDCHAR
STARTCHAR 0201
ENCODING 513
SWIDTH 400 0
DWIDTH 20 0
BBX 17 32 1 0
BITMAP
F1F000
78F000
387800
1C3800
0C1C00
060C00
020600
000000
000000
00E000
07FC00
0FFE00
0FFF00
060F00
000780
000780
000780
000780
01E780
07FF80
0FFF80
1FFF80
3E0780
3C0780
780780
780780
380780
3C0F80
3F1F80
1FFF80
0FFF80
07FF80
ENDCHAR
STARTCHAR 0202
ENCODING 514
SWIDTH 640 0
DWIDTH 32 0
BBX 27 42 3 0
BITMAP
001F0000
007F8000
00FFC000
01E1E000
01C0F000
03807000
03807000
00000000
00000000
00000000
001E0000
001F0000
003F0000
003F0000
007F8000
007F8000
007BC000
00F3C000
00F3C000
00F1E000
01E1E000
01E1E000
01C0F000
03C0F000
03C07000
07807800
07FFF800
07FFFC00
0FFFFC00
0FFFFC00
0F001E00
1E001E00
1E001E00
1C000F00
3C000F00
3C000700
78000780
78000780
780003C0
F00003C0
F00003C0
F00001E0
ENDCHAR
STARTCHAR 0203
ENCODING 515
SWIDTH 400 0
DWIDTH 20 0
BBX 16 32 2 0
BITMAP
07E0
0FF8
1FFC
3C1C
380E
700E
700E
0000
0000
01C0
0FF8
1FFC
1FFE
0C1E
000F
000F
000F
000F
03CF
0FFF
1FFF
3FFF
7C0F
780F
F00F
F00F
700F
781F
7E3F
3FFF
1FFF
0FFF
ENDCHAR
STARTCHAR 0204
ENCODING 516
SWIDTH 500 0
DWIDTH 25 0
BBX 21 42 2 0
BITMAP
78F800
3C7800
1C3C00
0E1C00
060E00
030600
010300
000000
000000
000000
FFFFF8
FFFFF8
FFFFF8
F00000
F00000
F00000
F00000
F00000
F00000
F00000
F00000
F00000
F00000
F00000
FFFFC0
FFFFC0
FFFFC0
FFFFC0
F00000
F00000
F00000
F00000
F00000
F00000
F00000
F00000
F00000
F00000
FFFFF8
FFFFF8
FFFFF8
FFFFF8
ENDCHAR
STARTCHAR 0205
ENCODING 517
SWIDTH 480 0
DWIDTH 24 0
BBX 20 32 2 0
BITMAP
1E3C00
0F1E00
070F00
038700
018380
00C180
0040C0
000000
000000
01F800
07FE00
0FFF00
1FFF80
1F07C0
3C03C0
7C01E0
7801E0
7800F0
7FFFF0
FFFFF0
FFFFF0
F00000
700000
700000
780000
780180
3C03E0
3E03C0
1F8FC0
0FFF80
07FF00
03FC00
ENDCHAR
STARTCHAR 0206
ENCODING 518
SWIDTH 500 0
DWIDTH 25 0
BBX 21 42 2 0
BITMAP
00F800
03FE00
07FF00
070780
0E0380
0E0380
0E01C0
000000
000000
000000
FFFFF8
FFFFF8
FFFFF8
F00000
F00000
F00000
F00000
F00000
F00000
F00000
F00000
F00000
F00000
F00000
FFFFC0
FFFFC0
FFFFC0
FFFFC0
F00000
F00000
F00000
F00000
F00000
F00000
F00000
F00000
F00000
F00000
FFFFF8
FFFFF8
FFFFF8
FFFFF8
ENDCHAR
STARTCHAR 0207
ENCODING 519
SWIDTH 480 0
DWIDTH 24 0
BBX 20 32 2 0
BITMAP
01F800
03FE00
07FF00
0F0700
0E0380
1C0380
1C0380
000000
000000
01F800
07FE00
0FFF00
1FFF80
1F07C0
3C03C0
7C01E0
7801E0
7800F0
7FFFF0
FFFFF0
FFFFF0
F00000
700000
700000
780000
780180
3C03E0
3E03C0
1F8FC0
0FFF80
07FF00
03FC00
ENDCHAR
STARTCHAR 0208
ENCODING 520
SWIDTH 300 0
DWIDTH 15 0
BBX 15 42 -2 0
BITMAP
F8F0
7878
3C38
1C1C
0E0C
0606
0302
0000
0000
0000
0FFE
0FFE
0FFE
00F0
00F0
00F0
00F0
00F0
00F0
00F0
00F0
00F0
00F0
00F0
00F0
00F0
00F0
00F0
00F0
00F0
00F0
00F0
00F0
00F0
00F0
00F0
00F0
00F0
0FFE
0FFE
0FFE
0FFE
ENDCHAR
STARTCHAR 0209
ENCODING 521
SWIDTH 160 0
DWIDTH 8 0
BBX 15 32 -6 0
BITMAP
F8F0
3C78
1C38
0E1C
060C
0306
0102
0000
0000
0000
00F0
00F0
00F0
00F0
00F0
00F0
00F0
00F0
00F0
00F0
00F0
00F0
00F0
00F0
00F0
00F0
00F0
00F0
00F0
00F0
00F0
00F0
ENDCHAR
STARTCHAR 020A
ENCODING 522
SWIDTH 300 0
DWIDTH 15 0
BBX 14 42 1 0
BITMAP
0FC0
1FE0
3FF0
7878
F038
E01C
E01C
0000
0000
0000
7FF0
7FF0
7FF0
0780
0780
0780
0780
0780
0780
0780
0780
0780
0780
0780
0780
0780
0780
0780
0780
0780
0780
0780
0780
0780
0780
0780
0780
0780
7FF0
7FF0
7FF0
7FF0
ENDCHAR
STARTCHAR 020B
ENCODING 523
SWIDTH 160 0
DWIDTH 8 0
BBX 14 32 -3 0
BITMAP
0FC0
1FF0
3FF8
7838
701C
E01C
E01C
0000
0000
0000
0780
0780
0780
0780
0780
0780
0780
0780
0780
0780
0780
0780
0780
0780
0780
0780
0780
0780
0780
0780
0780
0780
ENDCHAR
STARTCHAR 020C
ENCODING 524
SWIDTH 620 0
DWIDTH 31 0
BBX 27 42 2 0
BITMAP
1F1E0000
078F0000
03870000
01C38000
00C18000
0060C000
00204000
00000000
00000000
000F0000
007FE000
01FFF800
03FFFC00
07E07E00
0F801F00
1F000F00
1E000780
3C000780
3C0003C0
780003C0
780001E0
780001E0
700001E0
700001E0
F00000E0
F00000E0
F00000E0
F00000E0
700001E0
700001E0
780001E0
780001E0
780003C0
3C0003C0
3E000780
1E000F80
1F001F00
0F803E00
07F0FE00
03FFFC00
01FFF000
007FE000
ENDCHAR
STARTCHAR 020D
ENCODING 525
SWIDTH 480 0
DWIDTH 24 0
BBX 20 32 2 0
BITMAP
78F800
3C7800
1C3C00
0E1C00
070E00
030600
018100
000000
000000
01F800
07FE00
0FFF00
1FFF80
1F07C0
3C03C0
7C01E0
7801E0
7800F0
7000F0
F000F0
F000F0
F000F0
7000F0
7000F0
7800E0
7801E0
3C03E0
3E03C0
1F8FC0
0FFF80
07FF00
03FC00
ENDCHAR
STARTCHAR 020E
ENCODING 526
SWIDTH 620 0
DWIDTH 31 0
BBX 27 42 2 0
BITMAP
001F0000
003FC000
007FE000
00F0F000
01E07000
01C03800
01C03800
00000000
00000000
000F0000
007FE000
01FFF800
03FFFC00
07E07E00
0F801F00
1F000F00
1E000780
3C000780
3C0003C0
780003C0
780001E0
780001E0
700001E0
700001E0
F00000E0
F00000E0
F00000E0
F00000E0
700001E0
700001E0
780001E0
780001E0
780003C0
3C0003C0
3E000780
1E000F80
1F001F00
0F803E00
07F0FE00
03FFFC00
01FFF000
007FE000
ENDCHAR
STARTCHAR 020F
ENCODING 527
SWIDTH 480 0
DWIDTH 24 0
BBX 20 32 2 0
BITMAP
01F800
03FE00
07FF00
0F0700
0E0380
1C0380
1C0380
000000
000000
01F800
07FE00
0FFF00
1FFF80
1F07C0
3C03C0
7C01E0
7801E0
7800F0
7000F0
F000F0
F000F0
F000F0
7000F0
7000F0
7800E0
7801E0
3C03E0
3E03C0
1F8FC0
0FFF80
07FF00
03FC00
ENDCHAR
STARTCHAR 0210
ENCODING 528
SWIDTH 520 0
DWIDTH 26 0
BBX 22 42 2 0
BITMAP
F1E000
78F000
387000
1C3800
0C1C00
060C00
020600
000000
000000
000000
FFFC00
FFFF00
FFFF80
F03FC0
F003E0
F001E0
F001E0
F000F0
F000F0
F000F0
F000F0
F001E0
F001E0
F007C0
FFFFC0
FFFF80
FFFE00
FFFC00
F03E00
F01E00
F00F00
F00F00
F00780
F007C0
F003C0
F003E0
F001E0
F000F0
F000F0
F00078
F0007C
F0003C
ENDCHAR
STARTCHAR 0211
ENCODING 529
SWIDTH 340 0
DWIDTH 17 0
BBX 16 32 -1 0
BITMAP
F1F0
78F0
3878
1C38
0C1C
060C
0206
0000
0000
001F
1E7E
1EFE
1FFE
1FE0
1FC0
1F80
1F00
1F00
1E00
1E00
1E00
1E00
1E00
1E00
1E00
1E00
1E00
1E00
1E00
1E00
1E00
1E00
ENDCHAR
STARTCHAR 0212
ENCODING 530
SWIDTH 520 0
DWIDTH 26 0
BBX 22 42 2 0
BITMAP
03F000
07F800
0FFC00
1E1E00
1C0E00
380700
380700
000000
000000
000000
FFFC00
FFFF00
FFFF80
F03FC0
F003E0
F001E0
F001E0
F000F0
F000F0
F000F0
F000F0
F001E0
F001E0
F007C0
FFFFC0
FFFF80
FFFE00
FFFC00
F03E00
F01E00
F00F00
F00F00
F00780
F007C0
F003C0
F003E0
F001E0
F000F0
F000F0
F00078
F0007C
F0003C
ENDCHAR
STARTCHAR 0213
ENCODING 531
SWIDTH 340 0
DWIDTH 17 0
BBX 13 32 2 0
BITMAP
1FC0
3FE0
7FF0
F078
E038
E038
E038
0000
0000
00F8
F3F0
F7F0
FFF0
FF00
FE00
FC00
F800
F800
F000
F000
F000
F000
F000
F000
F000
F000
F000
F000
F000
F000
F000
F000
ENDCHAR
STARTCHAR 0214
ENCODING 532
SWIDTH 580 0
DWIDTH 29 0
BBX 25 42 2 0
BITMAP
1F1E0000
0F0F0000
07870000
03838000
01C18000
00C0C000
00604000
00000000
00000000
00000000
F0000780
F0000780
F0000780
F0000780
F0000780
F0000780
F0000780
F0000780
F0000780
F0000780
F0000780
F0000780
F0000780
F0000780
F0000780
F0000780
F0000780
F0000780
F0000780
F0000780
F0000780
F0000780
70000780
78000700
78000F00
3C001F00
3E003E00
1F007C00
0FC1FC00
07FFF800
03FFE000
00FFC000
ENDCHAR
STARTCHAR 0215
ENCODING 533
SWIDTH 480 0
DWIDTH 24 0
BBX 20 32 2 0
BITMAP
78F800
3C7800
1C3C00
0E1C00
070E00
030600
018100
000000
000000
000000
F000F0
F000F0
F000F0
F000F0
F000F0
F000F0
F000F0
F000F0
F000F0
F000F0
F000F0
F000F0
F000F0
7000F0
7801F0
7801F0
7803F0
3C07F0
3F1FF0
1FFFF0
0FFEF0
07F8F0
ENDCHAR
STARTCHAR 0216
ENCODING 534
SWIDTH 580 0
DWIDTH 29 0
BBX 25 42 2 0
BITMAP
003E0000
00FF8000
01FFC000
01C1E000
0380E000
0380E000
03806000
00000000
00000000
00000000
F0000780
F0000780
F0000780
F0000780
F0000780
F0000780
F0000780
F0000780
F0000780
F0000780
F0000780
F0000780
F0000780
F0000780
F0000780
F0000780
F0000780
F0000780
F0000780
F0000780
F0000780
F0000780
70000780
78000700
78000F00
3C001F00
3E003E00
1F007C00
0FC1FC00
07FFF800
03FFE000
00FFC000
ENDCHAR
STARTCHAR 0217
ENCODING 535
SWIDTH 480 0
DWIDTH 24 0
BBX 20 32 2 0
BITMAP
01F800
03FE00
07FF00
0F0700
0E0380
1C0380
1C0380
000000
000000
000000
F000F0
F000F0
F000F0
F000F0
F000F0
F000F0
F000F0
F000F0
F000F0
F000F0
F000F0
F000F0
F000F0
7000F0
7801F0
7801F0
7803F0
3C07F0
3F1FF0
1FFFF0
0FFEF0
07F8F0
ENDCHAR
STARTCHAR 0218
ENCODING 536
SWIDTH 480 0
DWIDTH 24 0
BBX 20 48 2 -16
BITMAP
00F000
03FE00
0FFF00
1FFF80
1F0FC0
3E03C0
3C03C0
3C01E0
3801E0
380000
3C0000
3C0000
3E0000
1F8000
0FE000
07F800
01FE00
007F00
001FC0
0007C0
0003E0
0001F0
0000F0
0000F0
F000F0
7000F0
7800F0
7801E0
3C03E0
3F8FC0
1FFF80
0FFF00
03FE00
000000
000000
000000
00F000
01F800
01FC00
01FC00
00EC00
000C00
000C00
001800
001800
003000
006000
018000
ENDCHAR
STARTCHAR 0219
ENCODING 537
SWIDTH 380 0
DWIDTH 19 0
BBX 15 39 2 -16
BITMAP
07C0
1FF0
3FF8
3FFC
7C3C
781C
7800
7800
3E00
3F80
1FE0
07F8
00FC
007C
001E
001E
F01E
701E
781E
7C7C
3FFC
1FF8
0FE0
0000
0000
0000
07C0
07E0
07E0
07E0
03E0
0060
0060
0060
00C0
00C0
0300
0600
0800
ENDCHAR
STARTCHAR 021A
ENCODING 538
SWIDTH 500 0
DWIDTH 25 0
BBX 21 48 2 -16
BITMAP
FFFFF8
FFFFF8
FFFFF8
007800
007800
007800
007800
007800
007800
007800
007800
007800
007800
007800
007800
007800
007800
007800
007800
007800
007800
007800
007800
007800
007800
007800
007800
007800
007800
007800
007800
007800
000000
000000
000000
00F800
00FC00
00FC00
00FC00
007C00
000C00
000C00
000C00
001800
001000
006000
01C000
010000
ENDCHAR
STARTCHAR 021B
ENCODING 539
SWIDTH 340 0
DWIDTH 17 0
BBX 13 45 2 -16
BITMAP
0080
0180
0780
0780
0780
0780
0780
FFF8
FFF8
FFF8
0780
0780
0780
0780
0780
0780
0780
0780
0780
0780
0780
0780
0780
0780
0780
07F0
07F0
07F0
03F0
0000
0000
0000
0F80
0F80
1FC0
0FC0
07C0
00C0
00C0
00C0
0180
0300
0600
1C00
1000
ENDCHAR
STARTCHAR 021C
ENCODING 540
SWIDTH 480 0
DWIDTH 24 0
BBX 20 33 2 0
BITMAP
01F000
0FFE00
1FFF80
3FFFC0
7E07C0
F803E0
3001E0
0000E0
0000F0
0000F0
0000F0
0000E0
0001E0
0003E0
0007C0
001F80
00FFC0
3FFFE0
3FF9E0
3FE1E0
3E00E0
0000F0
0000F0
0000F0
0001E0
0001E0
0003C0
000FC0
003F80
01FF00
3FFC00
3FF800
3FC000
ENDCHAR
STARTCHAR 021D
ENCODING 541
SWIDTH 480 0
DWIDTH 24 0
BBX 19 33 3 -10
BITMAP
03F000
1FFC00
3FFF00
7FFF80
F80FC0
F003C0
2003C0
0001C0
0001E0
0001E0
0001E0
0003C0
0003C0
0007C0
000F80
003F00
03FF80
7FFFC0
7FF3C0
7F81C0
6001E0
0001E0
0001E0
0001C0
0003C0
0003C0
000F80
001F80
007F00
1FFC00
7FF800
7FE000
7F0000
ENDCHAR
STARTCHAR 021E
ENCODING 542
SWIDTH 500 0
DWIDTH 25 0
BBX 21 42 2 0
BITMAP
040180
060300
030700
038E00
01DE00
01FC00
00FC00
000000
000000
000000
F00078
F00078
F00078
F00078
F00078
F00078
F00078
F00078
F00078
F00078
F00078
F00078
F00078
F00078
FFFFF8
FFFFF8
FFFFF8
FFFFF8
F00078
F00078
F00078
F00078
F00078
F00078
F00078
F00078
F00078
F00078
F00078
F00078
F00078
F00078
ENDCHAR
STARTCHAR 021F
ENCODING 543
SWIDTH 480 0
DWIDTH 24 0
BBX 20 42 2 0
BITMAP
0C0100
060300
070600
038E00
03DC00
01FC00
01F800
000000
000000
000000
F00000
F00000
F00000
F00000
F00000
F00000
F00000
F00000
F00000
F0FC00
F3FF00
F7FF80
FFFFC0
FF03C0
FE01E0
FC01E0
F800E0
F800F0
F000F0
F000F0
F000F0
F000F0
F000F0
F000F0
F000F0
F000F0
F000F0
F000F0
F000F0
F000F0
F000F0
F000F0
ENDCHAR
STARTCHAR 0220
ENCODING 544
SWIDTH 580 0
DWIDTH 29 0
BBX 25 43 2 -10
BITMAP
003E0000
F1FFC000
F3FFF000
FFFFF800
FFC0FC00
FF003E00
FE001E00
FC000F00
F8000F00
F8000780
F0000780
F0000780
F0000780
F0000780
F0000780
F0000780
F0000780
F0000780
F0000780
F0000780
F0000780
F0000780
F0000780
F0000780
F0000780
F0000780
F0000780
F0000780
F0000780
F0000780
F0000780
F0000780
F0000780
00000780
00000780
00000780
00000780
00000780
00000780
00000780
00000780
00000780
00000780
ENDCHAR
STARTCHAR 0221
ENCODING 545
SWIDTH 700 0
DWIDTH 35 0
BBX 31 42 2 -10
BITMAP
0000F000
0000F000
0000F000
0000F000
0000F000
0000F000
0000F000
0000F000
0000F000
01F8F000
07FEF000
0FFFF000
1FFFF000
1F07F000
3C03F000
7C01F000
7801F000
7800F000
7000F000
F000F000
F000F000
F000F000
7000F01E
7000F022
7800F066
7801F044
3C03F0CC
3E03F0CC
1F8FF0D8
0FFFF8F0
07FF7FE0
03FC3FC0
00000180
00000180
00000180
00000180
00000180
0001C100
0001C300
0001C200
0000E600
00007800
ENDCHAR
STARTCHAR 0222
ENCODING 546
SWIDTH 480 0
DWIDTH 24 0
BBX 20 32 2 0
BITMAP
F000F0
F000F0
F000F0
7000F0
7800F0
7801E0
3C01E0
3E03C0
1F0FC0
1FFF80
0FFF00
0FFF00
1FFF80
1F07C0
3C03C0
7C01E0
7801E0
7800F0
7000F0
F000F0
F000F0
F000F0
7000F0
7000F0
7800E0
7801E0
3C03E0
3E03C0
1F8FC0
0FFF80
07FF00
03FC00
ENDCHAR
STARTCHAR 0223
ENCODING 547
SWIDTH 420 0
DWIDTH 21 0
BBX 18 32 2 0
BITMAP
780780
780780
700380
F00380
F003C0
F003C0
700380
780780
780780
7C0F80
3C1F00
3FFF00
1FFE00
0FFC00
1FFE00
3E3F00
3C0F00
780780
780780
700380
F00380
F003C0
F003C0
700380
700380
780780
780780
3C0F00
3F3F00
1FFE00
0FFC00
07F800
ENDCHAR
STARTCHAR 0224
ENCODING 548
SWIDTH 520 0
DWIDTH 26 0
BBX 22 42 2 -10
BITMAP
FFFFFC
FFFFFC
FFFFFC
00003C
00007C
0000F8
0000F0
0001F0
0003E0
0003C0
000780
000F80
000F00
001E00
003E00
007C00
007800
00F800
01F000
01E000
03C000
07C000
078000
0F0000
1F0000
3E0000
3C0000
7C0000
FFFFFC
FFFFFC
FFFFFC
FFFFFC
00001C
00001C
00001C
00001C
00001C
00003C
0006FC
000FF8
001FF0
000FE0
ENDCHAR
STARTCHAR 0225
ENCODING 549
SWIDTH 400 0
DWIDTH 20 0
BBX 16 32 2 -10
BITMAP
FFFF
FFFF
FFFF
001E
003E
007C
0078
00F8
01F0
01E0
03C0
07C0
0780
0F00
1F00
3E00
3C00
7C00
FFFF
FFFF
FFFF
FFFF
000F
000F
000F
000F
000E
001E
037E
07FC
0FF8
03F0
ENDCHAR
STARTCHAR 0226
ENCODING 550
SWIDTH 640 0
DWIDTH 32 0
BBX 27 41 3 0
BITMAP
000E0000
001F0000
003F0000
001F0000
001E0000
00000000
00000000
00000000
00000000
001E0000
001F0000
003F0000
003F0000
007F8000
007F8000
007BC000
00F3C000
00F3C000
00F1E000
01E1E000
01E1E000
01C0F000
03C0F000
03C07000
07807800
07FFF800
07FFFC00
0FFFFC00
0FFFFC00
0F001E00
1E001E00
1E001E00
1C000F00
3C000F00
3C000700
78000780
78000780
780003C0
F00003C0
F00003C0
F00001E0
ENDCHAR
STARTCHAR 0227
ENCODING 551
SWIDTH 400 0
DWIDTH 20 0
BBX 16 31 2 0
BITMAP
03C0
03E0
07E0
03E0
03C0
0000
0000
0000
01C0
0FF8
1FFC
1FFE
0C1E
000F
000F
000F
000F
03CF
0FFF
1FFF
3FFF
7C0F
780F
F00F
F00F
700F
781F
7E3F
3FFF
1FFF
0FFF
ENDCHAR
STARTCHAR 0228
ENCODING 552
SWIDTH 500 0
DWIDTH 25 0
BBX 21 42 2 -10
BITMAP
FFFFF8
FFFFF8
FFFFF8
F00000
F00000
F00000
F00000
F00000
F00000
F00000
F00000
F00000
F00000
F00000
FFFFC0
FFFFC0
FFFFC0
FFFFC0
F00000
F00000
F00000
F00000
F00000
F00000
F00000
F00000
F00000
F00000
FFFFF8
FFFFF8
FFFFF8
FFFFF8
003000
007800
007E00
007F00
000700
000300
000300
010F00
01FE00
01FC00
ENDCHAR
STARTCHAR 0229
ENCODING 553
SWIDTH 480 0
DWIDTH 24 0
BBX 20 33 2 -10
BITMAP
01F800
07FE00
0FFF00
1FFF80
1F07C0
3C03C0
7C01E0
7801E0
7800F0
7FFFF0
FFFFF0
FFFFF0
F00000
700000
700000
780000
780180
3C03E0
3E03C0
1F8FC0
0FFF80
07FF00
03FC00
006000
00F000
00FC00
00FE00
000E00
000600
000600
021E00
03FC00
03F800
ENDCHAR
STARTCHAR 022A
ENCODING 554
SWIDTH 620 0
DWIDTH 31 0
BBX 27 42 2 0
BITMAP
00FFF000
00FFF000
00FFF000
00FFF000
00E06000
01F0F000
01F1F800
01F1F800
00F0F000
000F0000
007FE000
01FFF800
03FFFC00
07E07E00
0F801F00
1F000F00
1E000780
3C000780
3C0003C0
780003C0
780001E0
780001E0
700001E0
700001E0
F00000E0
F00000E0
F00000E0
F00000E0
700001E0
700001E0
780001E0
780001E0
780003C0
3C0003C0
3E000780
1E000F80
1F001F00
0F803E00
07F0FE00
03FFFC00
01FFF000
007FE000
ENDCHAR
STARTCHAR 022B
ENCODING 555
SWIDTH 480 0
DWIDTH 24 0
BBX 20 38 2 0
BITMAP
0FFF00
0FFF00
0FFF00
0FFF00
000000
000000
000000
0F0F00
0F8F80
1F8F80
0F8F80
0F0700
000000
000000
000000
01F800
07FE00
0FFF00
1FFF80
1F07C0
3C03C0
7C01E0
7801E0
7800F0
7000F0
F000F0
F000F0
F000F0
7000F0
7000F0
7800E0
7801E0
3C03E0
3E03C0
1F8FC0
0FFF80
07FF00
03FC00
ENDCHAR
STARTCHAR 022C
ENCODING 556
SWIDTH 620 0
DWIDTH 31 0
BBX 27 42 2 0
BITMAP
00FFF000
00FFF000
00FFF000
00FFFC00
01FC0C00
03FE0C00
030FFC00
0707F800
0701F000
000F0000
007FE000
01FFF800
03FFFC00
07E07E00
0F801F00
1F000F00
1E000780
3C000780
3C0003C0
780003C0
780001E0
780001E0
700001E0
700001E0
F00000E0
F00000E0
F00000E0
F00000E0
700001E0
700001E0
780001E0
780001E0
780003C0
3C0003C0
3E000780
1E000F80
1F001F00
0F803E00
07F0FE00
03FFFC00
01FFF000
007FE000
ENDCHAR
STARTCHAR 022D
ENCODING 557
SWIDTH 480 0
DWIDTH 24 0
BBX 20 38 2 0
BITMAP
0FFF00
0FFF00
0FFF00
000000
000000
000000
020000
1F8060
3FE0E0
39F9C0
307FC0
301F80
000000
000000
000000
01F800
07FE00
0FFF00
1FFF80
1F07C0
3C03C0
7C01E0
7801E0
7800F0
7000F0
F000F0
F000F0
F000F0
7000F0
7000F0
7800E0
7801E0
3C03E0
3E03C0
1F8FC0
0FFF80
07FF00
03FC00
ENDCHAR
STARTCHAR 022E
ENCODING 558
SWIDTH 620 0
DWIDTH 31 0
BBX 27 41 2 0
BITMAP
000E0000
001F0000
001F8000
001F0000
000F0000
00000000
00000000
00000000
000F0000
007FE000
01FFF800
03FFFC00
07E07E00
0F801F00
1F000F00
1E000780
3C000780
3C0003C0
780003C0
780001E0
780001E0
700001E0
700001E0
F00000E0
F00000E0
F00000E0
F00000E0
700001E0
700001E0
780001E0
780001E0
780003C0
3C0003C0
3E000780
1E000F80
1F001F00
0F803E00
07F0FE00
03FFFC00
01FFF000
007FE000
ENDCHAR
STARTCHAR 022F
ENCODING 559
SWIDTH 480 0
DWIDTH 24 0
BBX 20 31 2 0
BITMAP
00F000
00F800
00F800
00F800
00F000
000000
000000
000000
01F800
07FE00
0FFF00
1FFF80
1F07C0
3C03C0
7C01E0
7801E0
7800F0
7000F0
F000F0
F000F0
F000F0
7000F0
7000F0
7800E0
7801E0
3C03E0
3E03C0
1F8FC0
0FFF80
07FF00
03FC00
ENDCHAR
STARTCHAR 0230
ENCODING 560
SWIDTH 620 0
DWIDTH 31 0
BBX 27 42 2 0
BITMAP
00FFF000
00FFF000
00FFF000
00FFF000
000F0000
001F0000
001F8000
000F0000
00060000
000F0000
007FE000
01FFF800
03FFFC00
07E07E00
0F801F00
1F000F00
1E000780
3C000780
3C0003C0
780003C0
780001E0
780001E0
700001E0
700001E0
F00000E0
F00000E0
F00000E0
F00000E0
700001E0
700001E0
780001E0
780001E0
780003C0
3C0003C0
3E000780
1E000F80
1F001F00
0F803E00
07F0FE00
03FFFC00
01FFF000
007FE000
ENDCHAR
STARTCHAR 0231
ENCODING 561
SWIDTH 480 0
DWIDTH 24 0
BBX 20 38 2 0
BITMAP
0FFF00
0FFF00
0FFF00
0FFF00
000000
000000
000000
00F000
00F800
00F800
00F800
00F000
000000
000000
000000
01F800
07FE00
0FFF00
1FFF80
1F07C0
3C03C0
7C01E0
7801E0
7800F0
7000F0
F000F0
F000F0
F000F0
7000F0
7000F0
7800E0
7801E0
3C03E0
3E03C0
1F8FC0
0FFF80
07FF00
03FC00
ENDCHAR
STARTCHAR 0232
ENCODING 562
SWIDTH 620 0
DWIDTH 31 0
BBX 26 40 3 0
BITMAP
01FFE000
01FFE000
01FFE000
01FFE000
00000000
00000000
00000000
00000000
F00007C0
78000780
7C000F80
3E001F00
1E001E00
1F003C00
0F807C00
07807800
03C0F000
03E1F000
01E3E000
00F3C000
00FFC000
007F8000
003F0000
003E0000
001E0000
001E0000
001E0000
001E0000
001E0000
001E0000
001E0000
001E0000
001E0000
001E0000
001E0000
001E0000
001E0000
001E0000
001E0000
001E0000
ENDCHAR
STARTCHAR 0233
ENCODING 563
SWIDTH 500 0
DWIDTH 25 0
BBX 19 40 3 -10
BITMAP
1FFF00
1FFF00
1FFF00
1FFF00
000000
000000
000000
000000
F001E0
F001E0
7001E0
7803C0
7803C0
3C03C0
3C0780
3C0780
1E0F00
1E0F00
1E0F00
0F1E00
0F1E00
071E00
07BC00
07BC00
03FC00
03F800
03F800
01F000
01F000
01F000
01E000
01E000
01E000
03C000
03C000
07C000
3F8000
7F0000
7F0000
7C0000
ENDCHAR
STARTCHAR 0234
ENCODING 564
SWIDTH 380 0
DWIDTH 19 0
BBX 16 42 1 -10
BITMAP
7800
7800
7800
7800
7800
7800
7800
7800
7800
7800
7800
7800
7800
7800
7800
7800
7800
7800
7800
7800
7800
7801
780F
7811
7833
7822
7862
7866
386C
3C78
3FF0
1FE0
0040
00C0
00C0
00C0
00C0
E080
E080
E100
7300
3C00
ENDCHAR
STARTCHAR 0235
ENCODING 565
SWIDTH 700 0
DWIDTH 35 0
BBX 31 33 2 -10
BITMAP
00FC0000
F3FF0000
F7FF8000
FFFFC000
FF03C000
FE01E000
FC01E000
F800E000
F800F000
F000F000
F000F000
F000F000
F000F000
F000F01E
F000F022
F000F066
F000F044
F000F0CC
F000F0CC
F000F0D8
F00078F0
F0007FE0
F0003FC0
00000180
00000180
00000180
00000180
00000180
0001C100
0001C300
0001C200
0000E600
00007800
ENDCHAR
STARTCHAR 0236
ENCODING 566
SWIDTH 460 0
DWIDTH 23 0
BBX 19 37 2 -10
BITMAP
078000
078000
078000
078000
078000
FFF800
FFF800
FFF800
078000
078000
078000
078000
078000
078000
078000
078000
078020
0780E0
078120
078220
078660
078660
0784C0
078DC0
07CF80
03FF00
01FC00
000C00
000C00
000C00
000800
001800
0C1800
1E1000
1E1000
0E6000
07C000
ENDCHAR
STARTCHAR 0237
ENCODING 567
SWIDTH 160 0
DWIDTH 8 0
BBX 11 32 -5 -10
BITMAP
01E0
01E0
01E0
01E0
01E0
01E0
01E0
01E0
01E0
01E0
01E0
01E0
01E0
01E0
01E0
01E0
01E0
01E0
01E0
01E0
01E0
01E0
01E0
01E0
01E0
01E0
01E0
01E0
37C0
7FC0
FF80
7E00
ENDCHAR
STARTCHAR 0238
ENCODING 568
SWIDTH 800 0
DWIDTH 40 0
BBX 36 32 2 0
BITMAP
0000F00000
0000F00000
0000F00000
0000F00000
0000F00000
0000F00000
0000F00000
0000F00000
0000F00000
01F8F1F800
07FEF7FE00
0FFFFFFF00
1FFFFFFF80
1F07FE07C0
3C03FC03C0
7C01F801E0
7801F801E0
7800F000E0
7000F000F0
F000F000F0
F000F000F0
F000F000F0
7000F000F0
7000F000F0
7800F801E0
7801F801E0
3C03FC03E0
3E03FE07C0
1F8FFF0F80
0FFFFFFF80
07FFF7FF00
03FCF3FC00
ENDCHAR
STARTCHAR 0239
ENCODING 569
SWIDTH 800 0
DWIDTH 40 0
BBX 36 34 2 -11
BITMAP
01F801F800
07FEF7FE00
0FFFFFFF00
1FFFFFFF80
1F07FE07C0
3C03FC03C0
7C01F801E0
7801F801E0
7800F000E0
7000F000F0
F000F000F0
F000F000F0
F000F000F0
7000F000F0
7000F000F0
7800F801E0
7801F801E0
3C03FC03E0
3E03FE07C0
1F8FFF0F80
0FFFFFFF80
07FFF7FF00
03FCF3FC00
0000F00000
0000F00000
0000F00000
0000F00000
0000F00000
0000F00000
0000F00000
0000F00000
0000F00000
0000300000
0000100000
ENDCHAR
STARTCHAR 023A
ENCODING 570
SWIDTH 640 0
DWIDTH 32 0
BBX 27 36 3 -2
BITMAP
00000180
000003C0
001E03C0
001F0780
003F0F80
003F0F00
007F9E00
007FBE00
007BFC00
00F3F800
00F3F800
00F1F000
01E1E000
01E3E000
01C7F000
03C7F000
03CF7000
079F7800
07FFF800
07FFFC00
0FFFFC00
0FFFFC00
0FF01E00
1FE01E00
1FE01E00
1FC00F00
3F800F00
3F800700
7F000780
7E000780
7E0003C0
FC0003C0
F80003C0
F00001E0
F0000000
20000000
ENDCHAR
STARTCHAR 023B
ENCODING 571
SWIDTH 580 0
DWIDTH 29 0
BBX 27 36 2 -2
BITMAP
000000C0
000F01E0
007FE3E0
01FFFBC0
03FFFF80
07E07F80
0F801F00
1F001F00
1E003F80
3C007F00
3C007800
7800F800
7801F000
7801E000
7003C000
7007C000
F0078000
F00F0000
F01F0000
F03E0000
703C0000
707C0000
78F80000
78F00000
79E00000
3FE00200
3FC00700
1F800F80
1F801F00
1F803E00
1FF0FE00
3FFFFC00
7DFFF000
787FE000
70000000
30000000
ENDCHAR
STARTCHAR 023C
ENCODING 572
SWIDTH 460 0
DWIDTH 23 0
BBX 21 28 2 -3
BITMAP
000060
000078
01F8F0
07FFF0
0FFFE0
1FFFC0
1F07C0
3C0FC0
7C0FC0
781F80
783E00
703C00
F07800
F0F800
F1F000
71E000
73E000
7FC000
7F8180
3F03E0
3F03C0
1F0FC0
3FFF80
7FFF00
FBFC00
F00000
F00000
200000
ENDCHAR
STARTCHAR 023D
ENCODING 573
SWIDTH 580 0
DWIDTH 29 0
BBX 25 32 2 0
BITMAP
0F000000
0F000000
0F000000
0F000000
0F000000
0F000000
0F000000
0F000000
0F000000
0F000000
0F000000
0F000000
0F000000
0F000000
FFF80000
FFF80000
FFF80000
FFF80000
0F000000
0F000000
0F000000
0F000000
0F000000
0F000000
0F000000
0F000000
0F000000
0F000000
0FFFFF80
0FFFFF80
0FFFFF80
0FFFFF80
ENDCHAR
STARTCHAR 023E
ENCODING 574
SWIDTH 500 0
DWIDTH 25 0
BBX 26 36 0 -2
BITMAP
00000100
000003C0
3FFFFFC0
3FFFFF80
3FFFFF00
001E1F00
001E3E00
001E3C00
001E7C00
001EF800
001EF000
001FE000
001FE000
001FC000
001F8000
001F8000
001F0000
001E0000
003E0000
007E0000
007E0000
00FE0000
01FE0000
01FE0000
03DE0000
07DE0000
0F9E0000
0F1E0000
1F1E0000
3E1E0000
3C1E0000
781E0000
F81E0000
F01E0000
E0000000
60000000
ENDCHAR
STARTCHAR 023F
ENCODING 575
SWIDTH 380 0
DWIDTH 19 0
BBX 25 35 2 -12
BITMAP
01800000
0FF00000
1FF80000
3FFC0000
7C3C0000
781C0000
78000000
78000000
7E000000
3F800000
1FE00000
07F80000
01FC0000
007C0000
001E0000
001E0000
F01E0000
701E0000
781E0000
7C7C0000
3FFC0000
1FF80000
0FF80000
00FC0000
003C0000
001E0000
001E0000
000F0000
000F0000
000F8000
0007C700
0003FF80
0003FF00
0000FE00
00003800
ENDCHAR
STARTCHAR 0240
ENCODING 576
SWIDTH 400 0
DWIDTH 20 0
BBX 23 33 2 -11
BITMAP
FFFF00
FFFF00
FFFF00
001E00
003E00
007C00
007800
00F800
01F000
01E000
03C000
07C000
078000
0F0000
1F0000
3E0000
3C0000
7C0000
FE0000
FFC000
FFE000
FFF000
00F000
007800
007800
003C00
003C00
003E00
001E0C
000FFE
000FFE
0007FC
0001F8
ENDCHAR
STARTCHAR 0241
ENCODING 577
SWIDTH 480 0
DWIDTH 24 0
BBX 20 33 2 0
BITMAP
00F000
03FE00
0FFF00
1FFF80
1F0FC0
3E03C0
3C01E0
7801E0
7800F0
7000F0
F000F0
F000F0
0000F0
0000F0
0000F0
0000F0
0001E0
0001E0
0003C0
000FC0
007F80
00FF00
00FE00
00F000
00F000
00F000
00F000
00F000
00F000
00F000
00F000
00F000
00F000
ENDCHAR
STARTCHAR 0242
ENCODING 578
SWIDTH 360 0
DWIDTH 18 0
BBX 14 23 2 0
BITMAP
0700
1FE0
3FF0
7FF8
787C
F03C
003C
003C
003C
0078
0078
00F0
01F0
01E0
03C0
03C0
0380
0780
0780
0780
0780
0780
0780
ENDCHAR
STARTCHAR 0243
ENCODING 579
SWIDTH 580 0
DWIDTH 29 0
BBX 25 32 2 0
BITMAP
0FFFC000
0FFFF000
0FFFF800
0F01FC00
0F003E00
0F001E00
0F001E00
0F000E00
0F000E00
0F000E00
0F001E00
0F003E00
0F007C00
0FFFF800
0FFFF800
0FFFF800
0FFFFC00
0F003E00
0F001F00
0F000F00
0F000700
FFF80780
FFF80780
FFF80780
0F000700
0F000F00
0F001F00
0F003E00
0FFFFC00
0FFFF800
0FFFF000
0FFFC000
ENDCHAR
STARTCHAR 0244
ENCODING 580
SWIDTH 680 0
DWIDTH 34 0
BBX 30 32 2 0
BITMAP
1E0000E0
1E0000E0
1E0000E0
1E0000E0
1E0000E0
1E0000E0
1E0000E0
1E0000E0
1E0000E0
1E0000E0
1E0000E0
1E0000E0
1E0000E0
1E0000E0
FFFFFFFC
FFFFFFFC
FFFFFFFC
FFFFFFFC
1E0000E0
1E0000E0
1E0000E0
1E0000E0
1E0001E0
1E0001E0
0F0001E0
0F0003C0
078007C0
07C00F80
03F87F00
01FFFE00
00FFFC00
003FF000
ENDCHAR
STARTCHAR 0245
ENCODING 581
SWIDTH 640 0
DWIDTH 32 0
BBX 27 32 3 0
BITMAP
001E0000
001F0000
003F0000
003F0000
007F8000
007F8000
007BC000
00F3C000
00F3C000
00F1E000
01E1E000
01E1E000
01C0F000
03C0F000
03C07000
07807800
07807800
07803C00
0F003C00
0F003C00
0F001E00
1E001E00
1E001E00
1C000F00
3C000F00
3C000700
78000780
78000780
780003C0
F00003C0
F00003C0
F00001E0
ENDCHAR
STARTCHAR 0246
ENCODING 582
SWIDTH 500 0
DWIDTH 25 0
BBX 26 36 0 -2
BITMAP
00000100
000003C0
3FFFFFC0
3FFFFF80
3FFFFF00
3C001F00
3C003E00
3C003C00
3C007C00
3C00F800
3C00F000
3C01E000
3C03E000
3C03C000
3C078000
3C0F8000
3FFFF000
3FFFF000
3FFFF000
3FFFF000
3C780000
3CF00000
3DF00000
3DE00000
3FC00000
3FC00000
3F800000
3F000000
3F000000
3E000000
3FFFFE00
7FFFFE00
FFFFFE00
FFFFFE00
E0000000
60000000
ENDCHAR
STARTCHAR 0247
ENCODING 583
SWIDTH 480 0
DWIDTH 24 0
BBX 21 28 2 -3
BITMAP
000060
000078
01F8F0
07FFF0
0FFFE0
1FFFC0
1F07C0
3C0FC0
7C0FE0
781FE0
783EF0
7FFFF0
FFFFF0
FFFFF0
F1F000
71E000
73E000
7FC000
7F8180
3F03E0
3F03C0
1F0FC0
3FFF80
7FFF00
FBFC00
F00000
F00000
200000
ENDCHAR
STARTCHAR 0248
ENCODING 584
SWIDTH 440 0
DWIDTH 22 0
BBX 18 32 2 0
BITMAP
003C00
003C00
003C00
003C00
003C00
003C00
003C00
003C00
003C00
003C00
003C00
003C00
003C00
003C00
03FFC0
03FFC0
03FFC0
03FFC0
003C00
003C00
003C00
003C00
003C00
003C00
003C00
003C00
F03C00
783C00
7C7C00
3FF800
3FF000
0FE000
ENDCHAR
STARTCHAR 0249
ENCODING 585
SWIDTH 340 0
DWIDTH 17 0
BBX 15 41 0 -10
BITMAP
01E0
03F0
03F0
01F0
01E0
0000
0000
0000
0000
01E0
01E0
01E0
01E0
01E0
01E0
01E0
01E0
01E0
3FFE
3FFE
3FFE
3FFE
01E0
01E0
01E0
01E0
01E0
01E0
01E0
01E0
01E0
01E0
01E0
01E0
01E0
01E0
01E0
37C0
7FC0
FF80
7E00
ENDCHAR
STARTCHAR 024A
ENCODING 586
SWIDTH 620 0
DWIDTH 31 0
BBX 35 43 2 -10
BITMAP
000F000000
007FE0E000
01FFF8E000
03FFFCE000
07E07EE000
0F801FE000
1F000FE000
1E0007E000
3C0007E000
3C0003E000
780003E000
780001E000
780001E000
700001E000
700001E000
F00000E000
F00000E000
F00000E000
F00000E000
700001E000
700001E000
780001E000
780001E000
780003E000
3C0003E000
3E0007E000
1E000FE000
1F001FE000
0F803EE000
07F0FEE000
03FFFCE000
01FFF0E000
007FE0E000
000000E000
000000E000
000000E000
000000E000
000000E000
000000F000
000000FD80
0000007FC0
0000003FE0
0000001FC0
ENDCHAR
STARTCHAR 024B
ENCODING 587
SWIDTH 480 0
DWIDTH 24 0
BBX 28 33 2 -10
BITMAP
01F80000
07FEF000
0FFFF000
1FFFF000
1F07F000
3C03F000
7C01F000
7801F000
7800F000
7000F000
F000F000
F000F000
F000F000
7000F000
7000F000
7800F000
7801F000
3C03F000
3E03F000
1F8FF000
0FFFF000
07FFF000
03FCF000
0000F000
0000F000
0000F000
0000F000
0000F000
00007800
00007EC0
00003FE0
00001FF0
00000FC0
ENDCHAR
STARTCHAR 024C
ENCODING 588
SWIDTH 600 0
DWIDTH 30 0
BBX 26 32 2 0
BITMAP
0FFFC000
0FFFE000
0FFFF800
0F03F800
0F007C00
0F003E00
0F001E00
0F000E00
0F000E00
0F000E00
0F001E00
0F001E00
0F003E00
0F007C00
FFFFF800
FFFFF000
FFFFE000
FFFFC000
0F03C000
0F01E000
0F01E000
0F00F000
0F00F800
0F007800
0F003C00
0F003C00
0F001E00
0F001E00
0F000F00
0F000F80
0F000780
0F0003C0
ENDCHAR
STARTCHAR 024D
ENCODING 589
SWIDTH 400 0
DWIDTH 20 0
BBX 16 23 2 0
BITMAP
000F
0F7F
0FFF
0FFF
0FF0
0FC0
0F80
0F80
0F00
0F00
FFF8
FFF8
FFF8
FFF8
0F00
0F00
0F00
0F00
0F00
0F00
0F00
0F00
0F00
ENDCHAR
STARTCHAR 024E
ENCODING 590
SWIDTH 620 0
DWIDTH 31 0
BBX 28 32 2 0
BITMAP
780001E0
3C0003C0
3E0007C0
1F000F80
0F000F00
FFFFFFF0
FFFFFFF0
FFFFFFF0
01E07800
01F0F800
00F1F000
0079E000
007FE000
003FC000
001F8000
001F0000
000F0000
000F0000
000F0000
000F0000
000F0000
000F0000
000F0000
000F0000
000F0000
000F0000
000F0000
000F0000
000F0000
000F0000
000F0000
000F0000
ENDCHAR
STARTCHAR 024F
ENCODING 591
SWIDTH 500 0
DWIDTH 25 0
BBX 21 32 2 -10
BITMAP
7800F0
7800F0
3800F0
3C01E0
3C01E0
1E01E0
1E03C0
1E03C0
0F0380
FFFFF8
FFFFF8
FFFFF8
FFFFF8
038F00
03DE00
03DE00
01DE00
01FC00
01FC00
00F800
00F800
00F800
00F000
00F000
00F000
01E000
01E000
03E000
1FC000
3F8000
3F8000
3E0000
ENDCHAR
STARTCHAR 0250
ENCODING 592
SWIDTH 400 0
DWIDTH 20 0
BBX 16 23 2 0
BITMAP
07E0
FFF8
FFFC
FFFE
FC1E
F80F
F00F
F00F
F00F
F01E
FFFE
FFFC
FFF8
FFF0
F000
F000
F000
F000
7810
7EF8
3FFC
1FF8
0FE0
ENDCHAR
STARTCHAR 0251
ENCODING 593
SWIDTH 480 0
DWIDTH 24 0
BBX 20 23 2 0
BITMAP
01F800
07FEF0
0FFFF0
1FFFF0
1F07F0
3C03F0
7C01F0
7801F0
7800F0
7000F0
F000F0
F000F0
F000F0
7000F0
7000F0
7800F0
7801F0
3C03F0
3E03F0
1F8FF0
0FFFF0
07FFF0
03FCF0
ENDCHAR
STARTCHAR 0252
ENCODING 594
SWIDTH 480 0
DWIDTH 24 0
BBX 20 23 2 0
BITMAP
01F800
F7FE00
FFFF00
FFFF80
FF07C0
FC03C0
FC01E0
F801E0
F800F0
F000F0
F000F0
F000F0
F000F0
F000F0
F000F0
F800E0
F801E0
FC03E0
FE03C0
FF8FC0
FFFF80
F7FF00
F3FC00
ENDCHAR
STARTCHAR 0253
ENCODING 595
SWIDTH 480 0
DWIDTH 24 0
BBX 20 33 2 0
BITMAP
038000
1FE000
3FE000
7FC000
7C0000
780000
F00000
F00000
F00000
F00000
F1F800
F7FE00
FFFF00
FFFF80
FF07C0
FC03C0
FC01E0
F801E0
F800F0
F000F0
F000F0
F000F0
F000F0
F000F0
F000F0
F800E0
F801E0
FC03E0
FE03C0
FF8FC0
FFFF80
F7FF00
F3FC00
ENDCHAR
STARTCHAR 0254
ENCODING 596
SWIDTH 460 0
DWIDTH 23 0
BBX 19 23 2 0
BITMAP
03F000
0FFC00
1FFE00
3FFF00
7C0F80
780780
7003C0
1003C0
0001C0
0001E0
0001E0
0001E0
0001E0
0001E0
0001C0
1003C0
3003C0
F807C0
7C0F80
3E1F00
3FFF00
0FFC00
07F800
ENDCHAR
STARTCHAR 0255
ENCODING 597
SWIDTH 460 0
DWIDTH 23 0
BBX 19 33 2 -10
BITMAP
01F800
07FE00
0FFF00
1FFF80
1F07C0
3C03C0
7C01C0
780180
780000
700000
F00000
F00000
F00000
7000E0
700120
780320
780220
3C0660
3E0640
1F8CC0
0FFF80
07FF00
03FC00
000C00
000C00
000C00
000C00
000800
0C1800
1E1800
0E1000
0E2000
07C000
ENDCHAR
STARTCHAR 0256
ENCODING 598
SWIDTH 480 0
DWIDTH 24 0
BBX 28 42 2 -10
BITMAP
0000F000
0000F000
0000F000
0000F000
0000F000
0000F000
0000F000
0000F000
0000F000
01F8F000
07FEF000
0FFFF000
1FFFF000
1F07F000
3C03F000
7C01F000
7801F000
7800F000
7000F000
F000F000
F000F000
F000F000
7000F000
7000F000
7800F000
7801F000
3C03F000
3E03F000
1F8FF000
0FFFF000
07FFF000
03FCF000
0000F000
0000F000
0000F000
0000F000
0000F000
00007800
00007EC0
00003FE0
00001FF0
00000FC0
ENDCHAR
STARTCHAR 0257
ENCODING 599
SWIDTH 480 0
DWIDTH 24 0
BBX 27 33 2 0
BITMAP
00000700
00001FE0
00003FE0
00007FC0
00007800
0000F000
0000F000
0000F000
0000F000
0000F000
01F8F000
07FEF000
0FFFF000
1FFFF000
1F07F000
3C03F000
7C01F000
7801F000
7800F000
7000F000
F000F000
F000F000
F000F000
7000F000
7000F000
7800F000
7801F000
3C03F000
3E03F000
1F8FF000
0FFFF000
07FFF000
03FCF000
ENDCHAR
STARTCHAR 0258
ENCODING 600
SWIDTH 480 0
DWIDTH 24 0
BBX 20 23 2 0
BITMAP
01F800
07FE00
0FFF00
1FFF80
1F07C0
3C03C0
7C01E0
7801E0
7800F0
7FFFF0
FFFFF0
FFFFF0
0000F0
0000F0
0000F0
0000E0
1801E0
3C03E0
3E03C0
1F8FC0
0FFF80
07FF00
03FC00
ENDCHAR
STARTCHAR 0259
ENCODING 601
SWIDTH 480 0
DWIDTH 24 0
BBX 20 23 2 0
BITMAP
01F800
07FE00
0FFF00
1FFF80
1F07C0
3C03C0
3C01E0
0801E0
0000F0
0000F0
0000F0
FFFFF0
FFFFF0
7FFFF0
7FFFF0
7800E0
7801E0
3C01E0
3E03C0
1F8FC0
0FFF80
07FF00
03FC00
ENDCHAR
STARTCHAR 025A
ENCODING 602
SWIDTH 680 0
DWIDTH 34 0
BBX 30 23 2 0
BITMAP
01F80000
07FE0000
0FFF0000
1FFF8000
1F07C000
3C03C000
3C01E000
0801E01C
0000F01C
0000F30C
0000FF0C
FFFFFF0C
FFFFFF1C
7FFFF31C
7FFFF3F8
7800F1F0
7801E040
3C01E000
3E03C000
1F8FC000
0FFF8000
07FF0000
03FC0000
ENDCHAR
STARTCHAR 025B
ENCODING 603
SWIDTH 380 0
DWIDTH 19 0
BBX 15 23 2 0
BITMAP
07C0
0FF0
1FF8
3FF8
3C3C
383C
3800
3C00
3E00
3F80
1F80
3F80
7F80
7800
7000
F000
F01E
701E
781E
7C7C
3FFC
1FF8
0FE0
ENDCHAR
STARTCHAR 025C
ENCODING 604
SWIDTH 380 0
DWIDTH 19 0
BBX 15 23 2 0
BITMAP
07C0
0FF0
1FF8
3FF8
3C3C
383C
003C
003C
007C
03F8
03F0
03F8
03FC
003E
001E
001E
F01E
701E
781E
7C7C
3FFC
1FF8
0FE0
ENDCHAR
STARTCHAR 025D
ENCODING 605
SWIDTH 560 0
DWIDTH 28 0
BBX 24 23 2 0
BITMAP
07C000
0FF000
1FF802
3FF807
3C3CC3
383F83
003F83
003FC7
007DC7
03F8FE
03F07C
03F838
03FC00
003E00
001E00
001E00
F01E00
701E00
781E00
7C7C00
3FFC00
1FF800
0FE000
ENDCHAR
STARTCHAR 025E
ENCODING 606
SWIDTH 420 0
DWIDTH 21 0
BBX 18 23 2 0
BITMAP
01F800
07FC00
0FFE00
1FFF00
1F0F00
3C0700
7C0700
780F00
781F00
707F00
F07E00
F07F00
F07F80
700780
700780
780380
7803C0
3C0380
3E0780
1F8F80
0FFF00
07FE00
03FC00
ENDCHAR
STARTCHAR 025F
ENCODING 607
SWIDTH 340 0
DWIDTH 17 0
BBX 16 32 -1 -10
BITMAP
00E0
00E0
00E0
00E0
00E0
00E0
00E0
00E0
00E0
00E0
00E0
00E0
00E0
00E0
00E0
00E0
1FFF
1FFF
1FFF
1FFF
00E0
00E0
00E0
00E0
00E0
00E0
01E0
01E0
37E0
7FC0
FF80
7F00
ENDCHAR
STARTCHAR 0260
ENCODING 608
SWIDTH 480 0
DWIDTH 24 0
BBX 28 42 2 -10
BITMAP
00000FC0
00001FF0
00003FE0
00007EC0
00007800
0000F000
0000F000
0000F000
0000F000
01F8F000
07FEF000
0FFFF000
1FFFF000
1F07F000
3C03F000
7C01F000
7801F000
7800F000
7000F000
F000F000
F000F000
F000F000
7000F000
7000F000
7800F000
7801F000
3C03F000
3E03F000
1F8FF000
0FFFF000
07FFF000
03FCF000
0000F000
0000F000
0000F000
0000F000
0801F000
3C03E000
3FDFC000
1FFFC000
0FFF0000
03FC0000
ENDCHAR
STARTCHAR 0261
ENCODING 609
SWIDTH 480 0
DWIDTH 24 0
BBX 20 33 2 -10
BITMAP
01F800
07FEF0
0FFFF0
1FFFF0
1F07F0
3C03F0
7C01F0
7801F0
7800F0
7000F0
F000F0
F000F0
F000F0
7000F0
7000F0
7800F0
7801F0
3C03F0
3E03F0
1F8FF0
0FFFF0
07FFF0
03FCF0
0000F0
0000F0
0000F0
0000F0
0801F0
3C03E0
3FDFC0
1FFFC0
0FFF00
03FC00
ENDCHAR
STARTCHAR 0262
ENCODING 610
SWIDTH 460 0
DWIDTH 23 0
BBX 19 23 2 0
BITMAP
01F800
07FE00
0FFF00
1FFF80
1F07C0
3C03C0
7C01C0
780180
780000
700000
F00000
F03FE0
F03FE0
703FE0
7001E0
7801E0
7801E0
3C03E0
3E03C0
1F8FC0
0FFF80
07FF00
03FC00
ENDCHAR
STARTCHAR 0263
ENCODING 611
SWIDTH 500 0
DWIDTH 25 0
BBX 19 32 3 -10
BITMAP
F001E0
F001E0
7001E0
7803C0
7803C0
3C03C0
3C0780
3C0780
1E0700
1E0F00
1E0F00
0F1E00
0F1E00
071E00
07BC00
07BC00
03FC00
03F800
03F800
01F000
01F000
01F000
01F000
03F800
03F800
03FC00
07BC00
07BC00
07BC00
07FC00
03F800
01F000
ENDCHAR
STARTCHAR 0264
ENCODING 612
SWIDTH 640 0
DWIDTH 32 0
BBX 28 23 2 0
BITMAP
0F801F00
3FE07FC0
7FF0FFE0
FFF0FFF0
3079F0C0
0079E000
003DC000
003FC000
003FC000
001F8000
001F8000
001F8000
000F0000
001F8000
001F8000
003FC000
003FC000
003FC000
0039C000
0039C000
003FC000
003FC000
001F8000
ENDCHAR
STARTCHAR 0265
ENCODING 613
SWIDTH 480 0
DWIDTH 24 0
BBX 20 33 2 -11
BITMAP
F000F0
F000F0
F000F0
F000F0
F000F0
F000F0
F000F0
F000F0
F000F0
F000F0
F000F0
F000F0
F000F0
7000F0
7801F0
7801F0
7803F0
3C07F0
3F1FF0
1FFFF0
0FFEF0
07F8F0
0000F0
0000F0
0000F0
0000F0
0000F0
0000F0
0000F0
0000F0
0000F0
000030
000010
ENDCHAR
STARTCHAR 0266
ENCODING 614
SWIDTH 480 0
DWIDTH 24 0
BBX 20 33 2 0
BITMAP
038000
1FE000
3FE000
7FC000
7C0000
780000
F00000
F00000
F00000
F00000
F0FC00
F3FF00
F7FF80
FFFFC0
FF03C0
FE01E0
FC01E0
F800E0
F800F0
F000F0
F000F0
F000F0
F000F0
F000F0
F000F0
F000F0
F000F0
F000F0
F000F0
F000F0
F000F0
F000F0
F000F0
ENDCHAR
STARTCHAR 0267
ENCODING 615
SWIDTH 480 0
DWIDTH 24 0
BBX 20 43 2 -10
BITMAP
038000
1FE000
3FE000
7FC000
7C0000
780000
F00000
F00000
F00000
F00000
F0FC00
F3FF00
F7FF80
FFFFC0
FF03C0
FE01E0
FC01E0
F800E0
F800F0
F000F0
F000F0
F000F0
F000F0
F000F0
F000F0
F000F0
F000F0
F000F0
F000F0
F000F0
F000F0
F000F0
F000F0
0000F0
0000F0
0000F0
0000F0
0000F0
0000F0
001BE0
003FE0
007FC0
003F00
ENDCHAR
STARTCHAR 0268
ENCODING 616
SWIDTH 300 0
DWIDTH 15 0
BBX 11 31 2 0
BITMAP
0F00
1F00
1F80
1F00
0F00
0000
0000
0000
0000
0F00
0F00
0F00
0F00
0F00
0F00
0F00
0F00
0F00
FFE0
FFE0
FFE0
FFE0
0F00
0F00
0F00
0F00
0F00
0F00
0F00
0F00
0F00
ENDCHAR
STARTCHAR 0269
ENCODING 617
SWIDTH 240 0
DWIDTH 12 0
BBX 8 22 2 0
BITMAP
F0
F0
F0
F0
F0
F0
F0
F0
F0
F0
F0
F0
F0
F0
F0
F0
F0
F0
FF
7F
7F
3F
ENDCHAR
STARTCHAR 026A
ENCODING 618
SWIDTH 300 0
DWIDTH 15 0
BBX 11 22 2 0
BITMAP
FFE0
FFE0
FFE0
0F00
0F00
0F00
0F00
0F00
0F00
0F00
0F00
0F00
0F00
0F00
0F00
0F00
0F00
0F00
FFE0
FFE0
FFE0
FFE0
ENDCHAR
STARTCHAR 026B
ENCODING 619
SWIDTH 420 0
DWIDTH 21 0
BBX 18 32 2 0
BITMAP
01E000
01E000
01E000
01E000
01E000
01E000
01E000
01E000
01E000
01E000
01E000
01E000
01E000
1FE1C0
3FE180
7FE180
61FF80
61FF00
E1FE00
01E000
01E000
01E000
01E000
01E000
01E000
01E000
01E000
01E000
01FC00
01FC00
00FC00
00FC00
ENDCHAR
STARTCHAR 026C
ENCODING 620
SWIDTH 420 0
DWIDTH 21 0
BBX 18 32 2 0
BITMAP
00F000
00F000
00F000
00F000
00F000
00F000
00F000
0FF000
3FF000
7FF000
7FF000
78F000
F0F3C0
F0F380
F0F780
78F780
7CFF80
3FFF00
3FFE00
0FFC00
03F000
00F000
00F000
00F000
00F000
00F000
00F000
00F000
00FE00
00FE00
00FE00
007E00
ENDCHAR
STARTCHAR 026D
ENCODING 621
SWIDTH 160 0
DWIDTH 8 0
BBX 12 42 2 -10
BITMAP
F000
F000
F000
F000
F000
F000
F000
F000
F000
F000
F000
F000
F000
F000
F000
F000
F000
F000
F000
F000
F000
F000
F000
F000
F000
F000
F000
F000
F000
F000
F000
F000
F000
F000
F000
F000
7000
7800
7EC0
3FE0
1FF0
0FC0
ENDCHAR
STARTCHAR 026E
ENCODING 622
SWIDTH 480 0
DWIDTH 24 0
BBX 20 42 2 -10
BITMAP
F00000
F00000
F00000
F00000
F00000
F00000
F00000
F00000
F00000
F00000
FFFFF0
FFFFF0
FFFFF0
F001F0
F001E0
F003C0
F007C0
F00F80
F00F00
F01F00
F03E00
F03E00
F07F00
F0FF80
F007C0
F003E0
F001E0
F001E0
F000F0
F000F0
F000F0
F000F0
0000F0
0000F0
0000F0
0001E0
0403E0
0E07C0
1F9FC0
0FFF80
07FF00
01FC00
ENDCHAR
STARTCHAR 026F
ENCODING 623
SWIDTH 600 0
DWIDTH 30 0
BBX 26 22 2 0
BITMAP
F01E03C0
F01E03C0
F01E03C0
F01E03C0
F01E03C0
F01E03C0
F01E03C0
F01E03C0
F01E03C0
F01E03C0
F01E03C0
F01E03C0
F01E03C0
701E03C0
701E03C0
703E07C0
783F07C0
787F0FC0
3CFF9FC0
3FF7FFC0
1FE3FFC0
0FC1FBC0
ENDCHAR
STARTCHAR 0270
ENCODING 624
SWIDTH 600 0
DWIDTH 30 0
BBX 26 33 2 -11
BITMAP
F01E03C0
F01E03C0
F01E03C0
F01E03C0
F01E03C0
F01E03C0
F01E03C0
F01E03C0
F01E03C0
F01E03C0
F01E03C0
F01E03C0
F01E03C0
701E03C0
701E03C0
703E07C0
783F07C0
787F0FC0
3CFF9FC0
3FF7FFC0
1FE3FFC0
0FC1FBC0
000003C0
000003C0
000003C0
000003C0
000003C0
000003C0
000003C0
000003C0
000003C0
000000C0
00000040
ENDCHAR
STARTCHAR 0271
ENCODING 625
SWIDTH 600 0
DWIDTH 30 0
BBX 26 33 2 -10
BITMAP
03E07C00
F7F0FE00
FFF9FF00
FFFFFF80
FE3FC780
FC1F8380
F81F03C0
F81F03C0
F81F03C0
F01E03C0
F01E03C0
F01E03C0
F01E03C0
F01E03C0
F01E03C0
F01E03C0
F01E03C0
F01E03C0
F01E03C0
F01E03C0
F01E03C0
F01E03C0
F01E03C0
000003C0
000003C0
000003C0
000003C0
000003C0
000003C0
00006F80
0000FF80
0001FF00
0000FC00
ENDCHAR
STARTCHAR 0272
ENCODING 626
SWIDTH 480 0
DWIDTH 24 0
BBX 27 33 -5 -10
BITMAP
0001F800
01E7FE00
01EFFF00
01FFFF80
01FE0780
01FC03C0
01F803C0
01F001C0
01F001E0
01E001E0
01E001E0
01E001E0
01E001E0
01E001E0
01E001E0
01E001E0
01E001E0
01E001E0
01E001E0
01E001E0
01E001E0
01E001E0
01E001E0
01E00000
01E00000
01E00000
01E00000
01E00000
01E00000
37C00000
7FC00000
FF800000
7E000000
ENDCHAR
STARTCHAR 0273
ENCODING 627
SWIDTH 480 0
DWIDTH 24 0
BBX 28 33 2 -10
BITMAP
00FC0000
F3FF0000
F7FF8000
FFFFC000
FF03C000
FE01E000
FC01E000
F800E000
F800F000
F000F000
F000F000
F000F000
F000F000
F000F000
F000F000
F000F000
F000F000
F000F000
F000F000
F000F000
F000F000
F000F000
F000F000
0000F000
0000F000
0000F000
0000F000
0000F000
00007800
00007EC0
00003FE0
00001FF0
00000FC0
ENDCHAR
STARTCHAR 0274
ENCODING 628
SWIDTH 460 0
DWIDTH 23 0
BBX 19 22 2 0
BITMAP
F801E0
F801E0
FC01E0
FE01E0
FF01E0
FF01E0
F781E0
F7C1E0
F3C1E0
F1E1E0
F1F1E0
F0F9E0
F079E0
F07DE0
F03FE0
F01FE0
F00FE0
F00FE0
F007E0
F003E0
F003E0
F001E0
ENDCHAR
STARTCHAR 0275
ENCODING 629
SWIDTH 480 0
DWIDTH 24 0
BBX 20 23 2 0
BITMAP
01F800
07FE00
0FFF00
1FFF80
1F07C0
3C03C0
7C01E0
7801E0
7800F0
7000F0
FFFFF0
FFFFF0
FFFFF0
7FFFF0
7000F0
7800E0
7801E0
3C03E0
3E03C0
1F8FC0
0FFF80
07FF00
03FC00
ENDCHAR
STARTCHAR 0276
ENCODING 630
SWIDTH 720 0
DWIDTH 36 0
BBX 32 23 2 0
BITMAP
01F80000
07FEFFFF
0FFFFFFF
1FFFFFFF
1F07F000
3C03F000
7C01F000
7801F000
7800F000
7000F000
F000FFF8
F000FFF8
F000FFF8
7000FFF8
7000F000
7800F000
7801F000
3C03F000
3E03F000
1F8FFFFF
0FFFFFFF
07FFFFFF
03FCFFFF
ENDCHAR
STARTCHAR 0277
ENCODING 631
SWIDTH 600 0
DWIDTH 30 0
BBX 26 23 2 0
BITMAP
03FFF000
0FFFFC00
1FFFFE00
1FFFFF00
3C000F00
3C000780
78000780
780003C0
700003C0
700003C0
F00003C0
F00003C0
F01E03C0
F01E03C0
701E03C0
781E03C0
781F0380
783F0780
3C3F8780
3E7FCF00
1FFBFF00
0FF1FE00
07E0FC00
ENDCHAR
STARTCHAR 0278
ENCODING 632
SWIDTH 480 0
DWIDTH 24 0
BBX 20 43 2 -11
BITMAP
00F000
00F000
00F000
00F000
00F000
00F000
00F000
00F000
00F000
01F800
07FE00
0FFF00
1FFF80
1FF7C0
3CF3C0
7CF1E0
78F1E0
78F0F0
70F0F0
F0F0F0
F0F0F0
F0F0F0
70F0F0
70F0F0
78F0E0
78F1E0
3CF3E0
3EF3C0
1FFFC0
0FFF80
07FF00
03FC00
00F000
00F000
00F000
00F000
00F000
00F000
00F000
00F000
00F000
003000
001000
ENDCHAR
STARTCHAR 0279
ENCODING 633
SWIDTH 340 0
DWIDTH 17 0
BBX 12 22 3 0
BITMAP
00F0
00F0
00F0
00F0
00F0
00F0
00F0
00F0
00F0
00F0
00F0
00F0
00F0
00F0
01F0
01F0
03F0
07F0
1FF0
FFF0
FEF0
F8F0
ENDCHAR
STARTCHAR 027A
ENCODING 634
SWIDTH 340 0
DWIDTH 17 0
BBX 12 32 3 0
BITMAP
00F0
00F0
00F0
00F0
00F0
00F0
00F0
00F0
00F0
00F0
00F0
00F0
00F0
00F0
00F0
00F0
00F0
00F0
00F0
00F0
00F0
00F0
00F0
00F0
01F0
01F0
03F0
07F0
1FF0
FFF0
FEF0
F8F0
ENDCHAR
STARTCHAR 027B
ENCODING 635
SWIDTH 340 0
DWIDTH 17 0
BBX 19 32 3 -10
BITMAP
00F000
00F000
00F000
00F000
00F000
00F000
00F000
00F000
00F000
00F000
00F000
00F000
00F000
00F000
01F000
01F000
03F000
07F000
1FF000
FFF000
FEF000
F8F000
00F000
00F000
00F000
00F000
00F000
00F000
007D80
007FC0
003FE0
000FC0
ENDCHAR
STARTCHAR 027C
ENCODING 636
SWIDTH 340 0
DWIDTH 17 0
BBX 13 34 2 -11
BITMAP
00F8
F3F0
F7F0
FFF0
FF00
FE00
FC00
F800
F800
F000
F000
F000
F000
F000
F000
F000
F000
F000
F000
F000
F000
F000
F000
F000
F000
F000
F000
F000
F000
F000
F000
F000
3000
1000
ENDCHAR
STARTCHAR 027D
ENCODING 637
SWIDTH 340 0
DWIDTH 17 0
BBX 13 33 2 -10
BITMAP
00F8
F3F0
F7F0
FFF0
FF00
FE00
FC00
F800
F800
F000
F000
F000
F000
F000
F000
F000
F000
F000
F000
F000
F000
F000
F000
F000
F000
F000
F000
7000
7800
7EC0
3FE0
1FF0
0FC0
ENDCHAR
STARTCHAR 027E
ENCODING 638
SWIDTH 320 0
DWIDTH 16 0
BBX 11 23 2 0
BITMAP
07C0
1FE0
3FE0
7FC0
7800
7000
F000
F000
F000
F000
F000
F000
F000
F000
F000
F000
F000
F000
F000
F000
F000
F000
F000
ENDCHAR
STARTCHAR 027F
ENCODING 639
SWIDTH 320 0
DWIDTH 16 0
BBX 11 34 3 -11
BITMAP
7C00
FF00
FF80
7FC0
03C0
01E0
01E0
01E0
01E0
01E0
01E0
01E0
01E0
01E0
01E0
01E0
01E0
01E0
01E0
01E0
01E0
01E0
01E0
01E0
01E0
01E0
01E0
01E0
01E0
01E0
01E0
01E0
0060
0020
ENDCHAR
STARTCHAR 0280
ENCODING 640
SWIDTH 400 0
DWIDTH 20 0
BBX 16 22 2 0
BITMAP
FFE0
FFF0
FFF8
F0F8
F03C
F03C
F03C
F03C
F07C
F1F8
FFF0
FFF0
FFE0
F1E0
F0F0
F0F8
F078
F03C
F03C
F01E
F01E
F00F
ENDCHAR
STARTCHAR 0281
ENCODING 641
SWIDTH 400 0
DWIDTH 20 0
BBX 16 22 2 0
BITMAP
F00F
F01E
F03E
F03C
F078
F078
F0F0
F1F0
FFE0
FFE0
FFF0
FFF8
F078
F03C
F03C
F03C
F03C
F078
FFF8
FFF0
FFE0
FFC0
ENDCHAR
STARTCHAR 0282
ENCODING 642
SWIDTH 380 0
DWIDTH 19 0
BBX 15 33 2 -10
BITMAP
0180
0FF0
1FF8
3FFC
7C3C
781C
7800
7800
7E00
3F80
1FE0
07F8
01FC
007C
001E
001E
F01E
F01E
F81E
FC7C
FFFC
FFF8
FFE0
F000
F000
F000
F000
7000
7800
7EC0
3FE0
1FF0
0FC0
ENDCHAR
STARTCHAR 0283
ENCODING 643
SWIDTH 160 0
DWIDTH 8 0
BBX 18 43 -5 -10
BITMAP
000700
003FC0
007FC0
00FF80
00F800
00F000
01E000
01E000
01E000
01E000
01E000
01E000
01E000
01E000
01E000
01E000
01E000
01E000
01E000
01E000
01E000
01E000
01E000
01E000
01E000
01E000
01E000
01E000
01E000
01E000
01E000
01E000
01E000
01E000
01E000
01E000
01E000
01E000
01E000
37C000
7FC000
FF8000
7E0000
ENDCHAR
STARTCHAR 0284
ENCODING 644
SWIDTH 160 0
DWIDTH 8 0
BBX 18 43 -5 -10
BITMAP
000700
003FC0
007FC0
00FF80
00F800
00F000
01E000
01E000
01E000
01E000
01E000
01E000
01E000
01E000
01E000
01E000
01E000
01E000
01E000
01E000
01E000
01E000
01E000
01E000
01E000
01E000
01E000
01E000
01E000
3FFF80
3FFF80
3FFF80
3FFF80
01E000
01E000
01E000
01E000
01E000
01E000
37C000
7FC000
FF8000
7E0000
ENDCHAR
STARTCHAR 0285
ENCODING 645
SWIDTH 320 0
DWIDTH 16 0
BBX 18 33 3 -10
BITMAP
7C0000
FF0000
FF8000
7FC000
03C000
01E000
01E000
01E000
01E000
01E000
01E000
01E000
01E000
01E000
01E000
01E000
01E000
01E000
01E000
01E000
01E000
01E000
01E000
01E000
01E000
01E000
01E000
01E000
01F000
00F980
00FFC0
007FC0
001F80
ENDCHAR
STARTCHAR 0286
ENCODING 646
SWIDTH 440 0
DWIDTH 22 0
BBX 19 43 1 -10
BITMAP
000700
001FE0
003FE0
007FC0
00F880
00F000
00F000
00E000
00E000
00E000
00E000
00E000
00E000
00E000
00E000
00E000
00E000
00E000
00E000
00E000
00E000
00E000
00E000
00E000
00E000
00E000
00E000
00E000
00E000
03E000
0FFC00
3FFE00
7FFF00
7CFF00
F8E780
F0E780
F0E380
F0E380
F1E000
7BE000
7FC000
3FC000
1F0000
ENDCHAR
STARTCHAR 0287
ENCODING 647
SWIDTH 340 0
DWIDTH 17 0
BBX 13 28 2 -6
BITMAP
7E00
7F00
7F00
0700
0700
0700
0700
0700
0700
0700
0700
0700
0700
0700
0700
0700
0700
0700
FFF8
FFF8
FFF8
FFF8
0700
0700
0700
0700
0600
0400
ENDCHAR
STARTCHAR 0288
ENCODING 648
SWIDTH 340 0
DWIDTH 17 0
BBX 16 37 2 -10
BITMAP
0780
0780
0780
0780
0780
FFF8
FFF8
FFF8
0780
0780
0780
0780
0780
0780
0780
0780
0780
0780
0780
0780
0780
0780
0780
0780
0780
0780
0780
0780
0780
0780
0780
0780
0780
03EC
03FE
01FF
00FE
ENDCHAR
STARTCHAR 0289
ENCODING 649
SWIDTH 620 0
DWIDTH 31 0
BBX 27 22 2 0
BITMAP
0F000F00
0F000F00
0F000F00
0F000F00
0F000F00
0F000F00
0F000F00
0F000F00
0F000F00
FFFFFFE0
FFFFFFE0
FFFFFFE0
FFFFFFE0
0F001F00
0F001F00
07803F00
07803F00
07C0FF00
03E1FF00
01FFFF00
00FFEF00
007F8F00
ENDCHAR
STARTCHAR 028A
ENCODING 650
SWIDTH 480 0
DWIDTH 24 0
BBX 20 22 2 0
BITMAP
FF0FF0
FF0FF0
FF0FF0
1F07C0
3C03C0
7C01E0
7801E0
7800F0
7000F0
F000F0
F000F0
F000F0
7000F0
7000F0
7800E0
7801E0
3C03E0
3E03C0
1F8FC0
0FFF80
07FF00
03FC00
ENDCHAR
STARTCHAR 028B
ENCODING 651
SWIDTH 440 0
DWIDTH 22 0
BBX 17 23 3 0
BITMAP
00F800
F0FC00
F0FE00
707F00
780F80
780780
3C0780
3C0780
3C0780
1E0700
1E0F00
1E0F00
0F1E00
0F1E00
071E00
07BC00
07BC00
03FC00
03F800
03F800
01F000
01F000
01F000
ENDCHAR
STARTCHAR 028C
ENCODING 652
SWIDTH 500 0
DWIDTH 25 0
BBX 20 22 3 0
BITMAP
01F000
01F000
01F800
03F800
03F800
07BC00
07BC00
079C00
0F1E00
0F1E00
0F0F00
1E0F00
1E0F00
1C0780
3C0780
3C0780
7803C0
7803C0
7801C0
F001E0
F001E0
F000F0
ENDCHAR
STARTCHAR 028D
ENCODING 653
SWIDTH 640 0
DWIDTH 32 0
BBX 27 22 3 0
BITMAP
07C07C00
07C07C00
07C07C00
0FC0FC00
0FE0FE00
0FE0FE00
0FE0FE00
1EE1EE00
1EF1EF00
1EF1EF00
1CF1CF00
3C7BC780
3C7BC780
3C7BC780
787B8380
783F83C0
783F83C0
703F83C0
F01F01C0
F01F01E0
F01F01E0
E01E01E0
ENDCHAR
STARTCHAR 028E
ENCODING 654
SWIDTH 500 0
DWIDTH 25 0
BBX 20 33 3 0
BITMAP
000180
000FC0
001FC0
003F80
003C00
007800
007800
007800
00F000
00F000
00F000
01F000
01F000
01F800
03F800
03F800
07BC00
07BC00
079C00
0F1E00
0F1E00
0F0F00
1E0F00
1E0F00
1C0780
3C0780
3C0780
7803C0
7803C0
7801C0
F001E0
F001E0
F000F0
ENDCHAR
STARTCHAR 028F
ENCODING 655
SWIDTH 500 0
DWIDTH 25 0
BBX 19 22 3 0
BITMAP
F801E0
7803C0
3C07C0
3E0F80
1E0F00
0F1E00
0FBE00
07FC00
03F800
03F800
01F000
00E000
00E000
00E000
00E000
00E000
00E000
00E000
00E000
00E000
00E000
00E000
ENDCHAR
STARTCHAR 0290
ENCODING 656
SWIDTH 400 0
DWIDTH 20 0
BBX 23 32 2 -10
BITMAP
FFFF00
FFFF00
FFFF00
001E00
003E00
007C00
007800
00F800
01F000
01E000
03C000
07C000
078000
0F0000
1F0000
3E0000
3C0000
7C0000
FFFF00
FFFF00
FFFF00
FFFF00
000F00
000F00
000F00
000F00
000F00
000F00
0007D8
0007FC
0003FE
0000FC
ENDCHAR
STARTCHAR 0291
ENCODING 657
SWIDTH 420 0
DWIDTH 21 0
BBX 18 32 2 -10
BITMAP
FFFF00
FFFF00
FFFF00
001E00
003E00
007C00
007800
00F800
01F000
01E000
03C000
07C080
078380
0F04C0
1F0C80
3E0880
3C1980
7C1900
FFFB00
FFFE00
FFFC00
FFF000
003000
003000
003000
003000
003000
382000
386000
384000
3C8000
0F0000
ENDCHAR
STARTCHAR 0292
ENCODING 658
SWIDTH 420 0
DWIDTH 21 0
BBX 18 32 2 -10
BITMAP
FFFFC0
FFFFC0
FFFFC0
000780
000F80
001F00
001E00
003E00
007C00
007800
00F000
01F000
03FC00
03FE00
003E00
000F00
000F80
000780
000780
000380
0003C0
0003C0
000380
000380
000780
000780
100F00
381F00
FE7E00
7FFC00
1FF800
0FE000
ENDCHAR
STARTCHAR 0293
ENCODING 659
SWIDTH 440 0
DWIDTH 22 0
BBX 20 41 0 -20
BITMAP
3FFFF0
3FFFF0
3FFFF0
0001E0
0003E0
0007C0
000780
000F80
001F00
001E00
003C00
007C00
00FF00
00FF80
000F80
0003C0
0003E0
0001E0
0001E0
0000E0
0000F0
E000F0
9000E0
8800E0
CC01E0
C401E0
6403C0
7607C0
3F9F80
1FFF00
0FFE00
07F800
060000
060000
030000
030000
030600
010700
010700
008E00
007E00
ENDCHAR
STARTCHAR 0294
ENCODING 660
SWIDTH 420 0
DWIDTH 21 0
BBX 18 33 2 0
BITMAP
01E000
07F800
1FFE00
3FFF00
3E1F00
780780
780780
700380
F003C0
0003C0
000380
000780
000780
000F80
000F00
001F00
003E00
007C00
00F800
00F000
00F000
01E000
01E000
01E000
01E000
01E000
01E000
01E000
01E000
01E000
01E000
01E000
01E000
ENDCHAR
STARTCHAR 0295
ENCODING 661
SWIDTH 420 0
DWIDTH 21 0
BBX 18 33 2 0
BITMAP
01E000
07F800
1FFE00
3FFF00
3E1F00
780F80
780780
700380
F003C0
F00000
F00000
700000
780000
780000
3C0000
3E0000
1F0000
0F8000
07C000
03C000
03C000
01E000
01E000
01E000
01E000
01E000
01E000
01E000
01E000
01E000
01E000
01E000
01E000
ENDCHAR
STARTCHAR 0296
ENCODING 662
SWIDTH 420 0
DWIDTH 21 0
BBX 18 32 2 0
BITMAP
01E000
01E000
01E000
01E000
01E000
01E000
01E000
01E000
01E000
01E000
01E000
01E000
00F000
00F000
00F800
007C00
003E00
001F00
000F00
000780
000780
000380
000380
0003C0
F003C0
700380
780780
7C0F80
3E1F00
1FFF00
0FFE00
07F800
ENDCHAR
STARTCHAR 0297
ENCODING 663
SWIDTH 480 0
DWIDTH 24 0
BBX 19 33 2 -10
BITMAP
00F800
03FE00
07FF00
0FFF80
0F07C0
1E03C0
3C01C0
3C0180
380000
780000
780000
780000
700000
700000
F00000
F00000
F00000
F00000
F00000
700000
700000
780000
780000
780000
380000
3C0000
3C01C0
1E03E0
1F07C0
0FDF80
07FF80
03FE00
01FC00
ENDCHAR
STARTCHAR 0298
ENCODING 664
SWIDTH 480 0
DWIDTH 24 0
BBX 20 33 2 0
BITMAP
007000
03FC00
07FE00
0FFF00
0F0F80
1E0780
1E03C0
3C03C0
3C01E0
7801E0
7800E0
7800E0
7000F0
7000F0
F060F0
F0F0F0
F0F8F0
F0F8F0
F0F0F0
7060F0
7000F0
7000F0
7800E0
7801E0
7801E0
3C01E0
3C03C0
1E03C0
1E0780
0F8F80
07FF00
07FE00
01FC00
ENDCHAR
STARTCHAR 0299
ENCODING 665
SWIDTH 400 0
DWIDTH 20 0
BBX 16 22 2 0
BITMAP
FFF8
FFFC
FFFC
F03E
F01E
F00E
F01E
F03E
FFFC
FFFC
FFFE
FFFE
F00F
F00F
F007
F007
F00F
F01F
FFFE
FFFE
FFFC
FFF0
ENDCHAR
STARTCHAR 029A
ENCODING 666
SWIDTH 420 0
DWIDTH 21 0
BBX 18 23 2 0
BITMAP
07E000
0FF800
1FFC00
3FFE00
3C3E00
380F00
380F80
3C0780
3E0780
3F8380
1F8380
3F83C0
7F83C0
780380
700380
F00780
F00780
700F00
781F00
7C7E00
3FFC00
1FF800
0FF000
ENDCHAR
STARTCHAR 029B
ENCODING 667
SWIDTH 460 0
DWIDTH 23 0
BBX 26 33 2 0
BITMAP
00000E00
00003FC0
00007FC0
0000FF80
0000F000
0001E000
0001E000
0001E000
0001E000
0001E000
01F9E000
07FFE000
0FFFE000
1FFFE000
1F07E000
3C03E000
7C01E000
7801E000
78000000
70000000
F0000000
F03FE000
F03FE000
703FE000
7001E000
7801E000
7801E000
3C03E000
3E03C000
1F8FC000
0FFF8000
07FF0000
03FC0000
ENDCHAR
STARTCHAR 029C
ENCODING 668
SWIDTH 420 0
DWIDTH 21 0
BBX 18 22 2 0
BITMAP
F003C0
F003C0
F003C0
F003C0
F003C0
F003C0
F003C0
F003C0
F003C0
FFFFC0
FFFFC0
FFFFC0
FFFFC0
F003C0
F003C0
F003C0
F003C0
F003C0
F003C0
F003C0
F003C0
F003C0
ENDCHAR
STARTCHAR 029D
ENCODING 669
SWIDTH 420 0
DWIDTH 21 0
BBX 18 41 2 -10
BITMAP
00F000
01F000
01F800
01F000
00F000
000000
000000
000000
000000
00F000
00F000
00F000
00F000
00F000
00F000
00F000
00F000
00F000
00F000
00F000
00F000
00F000
00F000
00F000
00F000
00F000
00F000
03F000
0FFC00
1FFE00
3FFF00
7CFF00
78F780
F0F780
F0F380
F0F3C0
70E000
7FE000
7FE000
3FC000
1F8000
ENDCHAR
STARTCHAR 029E
ENCODING 670
SWIDTH 420 0
DWIDTH 21 0
BBX 17 32 3 -10
BITMAP
F80780
780780
3C0780
3E0780
1E0780
0F0780
0F8780
078F80
03DF80
03FF80
01FF80
00FF80
007F80
00F780
01F780
03E780
03C780
07C780
0F8780
0F0780
1E0780
3E0780
000780
000780
000780
000780
000780
000780
000780
000780
000780
000780
ENDCHAR
STARTCHAR 029F
ENCODING 671
SWIDTH 360 0
DWIDTH 18 0
BBX 14 22 2 0
BITMAP
F000
F000
F000
F000
F000
F000
F000
F000
F000
F000
F000
F000
F000
F000
F000
F000
F000
F000
FFFC
FFFC
FFFC
FFFC
ENDCHAR
STARTCHAR 02A0
ENCODING 672
SWIDTH 480 0
DWIDTH 24 0
BBX 28 43 2 -11
BITMAP
00000FC0
00001FF0
00003FE0
00007EC0
00007800
0000F000
0000F000
0000F000
0000F000
01F8F000
07FEF000
0FFFF000
1FFFF000
1F07F000
3C03F000
7C01F000
7801F000
7800F000
7000F000
F000F000
F000F000
F000F000
7000F000
7000F000
7800F000
7801F000
3C03F000
3E03F000
1F8FF000
0FFFF000
07FFF000
03FCF000
0000F000
0000F000
0000F000
0000F000
0000F000
0000F000
0000F000
0000F000
0000F000
00003000
00001000
ENDCHAR
ENDFONT
